<svg xmlns="http://www.w3.org/2000/svg" xmlns:xlink="http://www.w3.org/1999/xlink" viewBox="0 0 1024 1024"><defs><style>.cls-1,.cls-21{fill:#fff;}.cls-1{fill-opacity:0;}.cls-2,.cls-24{fill:#47b0f1;}.cls-2,.cls-28,.cls-3,.cls-4{isolation:isolate;}.cls-2{opacity:0.05;}.cls-3,.cls-4{opacity:0.1;}.cls-3{fill:url(#未命名的渐变_22);}.cls-4{fill:url(#未命名的渐变_22-2);}.cls-5{fill:url(#未命名的渐变_3);}.cls-6{fill:url(#未命名的渐变_22-3);}.cls-7{fill:url(#未命名的渐变_22-4);}.cls-8{fill:url(#未命名的渐变_22-5);}.cls-9{fill:url(#未命名的渐变_22-6);}.cls-10{fill:url(#未命名的渐变_22-7);}.cls-11{fill:url(#未命名的渐变_13);}.cls-12{fill:url(#未命名的渐变_22-8);}.cls-13{fill:url(#未命名的渐变_13-2);}.cls-14{fill:url(#未命名的渐变_22-9);}.cls-15{fill:url(#未命名的渐变_13-3);}.cls-16{fill:url(#未命名的渐变_22-10);}.cls-17{fill:url(#未命名的渐变_22-11);}.cls-18{fill:url(#未命名的渐变_22-12);}.cls-19{fill:url(#未命名的渐变_22-13);}.cls-20{fill:url(#未命名的渐变_22-14);}.cls-22{fill:url(#未命名的渐变_22-15);}.cls-23{fill:#98d6fa;}.cls-25{fill:url(#未命名的渐变_22-16);}.cls-26{fill:url(#未命名的渐变_22-17);}.cls-27{fill:url(#未命名的渐变_22-18);}.cls-28{opacity:0.4;fill:url(#未命名的渐变_23);}.cls-29{fill:#333;}.cls-30{fill:url(#未命名的渐变_24);}.cls-31{fill:#efba9e;}.cls-32{fill:#ebb0b0;}.cls-33{fill:#131322;}.cls-34{fill:url(#未命名的渐变_25);}</style><linearGradient id="未命名的渐变_22" x1="212.14" y1="933.32" x2="212.78" y2="933.35" gradientTransform="matrix(124, 0, 0, -46, -26252, 43255.93)" gradientUnits="userSpaceOnUse"><stop offset="0" stop-color="#98d6fa"></stop><stop offset="1" stop-color="#47b0f1"></stop></linearGradient><linearGradient id="未命名的渐变_22-2" x1="212.14" y1="933.32" x2="212.78" y2="933.35" gradientTransform="matrix(124, 0, 0, -46, -25552, 43085.93)" xlink:href="#未命名的渐变_22"></linearGradient><linearGradient id="未命名的渐变_3" x1="213.77" y1="931.76" x2="214.77" y2="931.76" gradientTransform="matrix(930, 0, 0, -246, -198744, 230046.9)" gradientUnits="userSpaceOnUse"><stop offset="0" stop-color="#fff5de"></stop><stop offset="1" stop-color="#fbd2ac"></stop></linearGradient><linearGradient id="未命名的渐变_22-3" x1="211.01" y1="934.89" x2="211.64" y2="934.91" gradientTransform="matrix(74.87, 0, 0, -25.58, -15158.72, 24124.51)" xlink:href="#未命名的渐变_22"></linearGradient><linearGradient id="未命名的渐变_22-4" x1="209.74" y1="936.45" x2="210.38" y2="936.47" gradientTransform="matrix(51.89, 0, 0, -17.72, -10147.3, 16802.7)" xlink:href="#未命名的渐变_22"></linearGradient><linearGradient id="未命名的渐变_22-5" x1="209.74" y1="936.45" x2="210.38" y2="936.47" gradientTransform="matrix(51.89, 0, 0, -17.72, -10182.09, 16768.22)" xlink:href="#未命名的渐变_22"></linearGradient><linearGradient id="未命名的渐变_22-6" x1="207.92" y1="938.7" x2="208.55" y2="938.72" gradientTransform="matrix(35.97, 0, 0, -12.29, -6661.82, 11746.33)" xlink:href="#未命名的渐变_22"></linearGradient><linearGradient id="未命名的渐变_22-7" x1="213.04" y1="931.65" x2="213.68" y2="931.72" gradientTransform="matrix(269.22, 47.47, 27.01, -153.15, -82548.68, 133303.42)" xlink:href="#未命名的渐变_22"></linearGradient><linearGradient id="未命名的渐变_13" x1="213.03" y1="932.64" x2="213.21" y2="932.57" gradientTransform="matrix(50.26, -50.26, -135.69, -135.69, 115943.22, 138005.55)" gradientUnits="userSpaceOnUse"><stop offset="0.03" stop-color="#afdef9"></stop><stop offset="1" stop-color="#7cc9f9"></stop></linearGradient><linearGradient id="未命名的渐变_22-8" x1="213.04" y1="931.63" x2="213.58" y2="931.87" gradientTransform="matrix(203.58, 0, 0, -216.82, -43307.04, 202734.68)" xlink:href="#未命名的渐变_22"></linearGradient><linearGradient id="未命名的渐变_13-2" x1="212.15" y1="932.39" x2="212.28" y2="932.32" gradientTransform="matrix(64.64, -31.53, -95, -194.77, 74960.15, 188980.58)" xlink:href="#未命名的渐变_13"></linearGradient><linearGradient id="未命名的渐变_22-9" x1="212.43" y1="931.36" x2="212.65" y2="931.93" gradientTransform="matrix(110.66, 0, 0, -242.94, -23297.23, 227077.49)" xlink:href="#未命名的渐变_22"></linearGradient><linearGradient id="未命名的渐变_13-3" x1="211.26" y1="931.99" x2="211.43" y2="931.92" gradientTransform="matrix(71.08, 0, 0, -191.9, -14806.25, 179556.25)" xlink:href="#未命名的渐变_13"></linearGradient><linearGradient id="未命名的渐变_22-10" x1="209.44" y1="933.56" x2="209.04" y2="934.33" gradientTransform="matrix(40.38, 0, 0, -36.25, -7511.81, 34624.73)" xlink:href="#未命名的渐变_22"></linearGradient><linearGradient id="未命名的渐变_22-11" x1="208.91" y1="932.9" x2="209.47" y2="933.41" gradientTransform="matrix(40.64, 0, 0, -50, -7550.77, 47422.49)" xlink:href="#未命名的渐变_22"></linearGradient><linearGradient id="未命名的渐变_22-12" x1="209.46" y1="933.63" x2="210.31" y2="933.93" gradientTransform="matrix(46.95, 0, 0, -36.71, -8879.84, 35053.15)" xlink:href="#未命名的渐变_22"></linearGradient><linearGradient id="未命名的渐变_22-13" x1="210.5" y1="933.26" x2="211.35" y2="933.52" gradientTransform="matrix(61, 0, 0, -44, -11944, 41851.15)" xlink:href="#未命名的渐变_22"></linearGradient><linearGradient id="未命名的渐变_22-14" x1="208.38" y1="934.55" x2="209.23" y2="934.8" gradientTransform="matrix(38, 0, 0, -27, -6977, 26026.03)" xlink:href="#未命名的渐变_22"></linearGradient><linearGradient id="未命名的渐变_22-15" x1="215.83" y1="932.37" x2="215.02" y2="931.48" gradientTransform="translate(65920.17 282654.53) rotate(180) scale(303.12 302.78)" xlink:href="#未命名的渐变_22"></linearGradient><linearGradient id="未命名的渐变_22-16" x1="215.67" y1="931.91" x2="214.37" y2="931.96" gradientTransform="translate(86709.99 154245.49) rotate(180) scale(400 164.89)" xlink:href="#未命名的渐变_22"></linearGradient><linearGradient id="未命名的渐变_22-17" x1="210.58" y1="931.72" x2="210.96" y2="931.22" gradientTransform="matrix(56.67, 27.64, 44.53, -91.3, -52670.67, 79539.49)" xlink:href="#未命名的渐变_22"></linearGradient><linearGradient id="未命名的渐变_22-18" x1="210.58" y1="934.03" x2="210.96" y2="933.53" gradientTransform="matrix(42.51, -16.32, -26.36, -68.67, 16295.88, 67900.5)" xlink:href="#未命名的渐变_22"></linearGradient><linearGradient id="未命名的渐变_23" x1="214.79" y1="932.46" x2="215.79" y2="932.46" gradientTransform="matrix(-249.25, 35.03, -15.45, -109.92, 68487.27, 95774.85)" gradientUnits="userSpaceOnUse"><stop offset="0" stop-color="#f5dda7"></stop><stop offset="1" stop-color="#fa9a41"></stop></linearGradient><linearGradient id="未命名的渐变_24" x1="212.06" y1="931.79" x2="212.42" y2="932.37" gradientTransform="matrix(90.56, 0, 0, -191.71, -18790.13, 179356.91)" gradientUnits="userSpaceOnUse"><stop offset="0" stop-color="#1d181c"></stop><stop offset="0.3" stop-color="#2c2422"></stop><stop offset="0.5" stop-color="#42352c"></stop><stop offset="0.7" stop-color="#57352c"></stop><stop offset="1" stop-color="#923629"></stop></linearGradient><linearGradient id="未命名的渐变_25" x1="216.01" y1="932.13" x2="215.02" y2="932.13" gradientTransform="translate(45864.91 114349.18) rotate(180) scale(210.86 122.07)" gradientUnits="userSpaceOnUse"><stop offset="0" stop-color="#ffb859"></stop><stop offset="1" stop-color="#f97b61"></stop></linearGradient></defs><g id="图层_2"><g id="图层_1-2"><g id="暂无网络"><rect id="矩形" class="cls-1" width="1024" height="1024"></rect><g id="背景"><path id="路径-58" class="cls-2" d="M76.8,581.77c-7.68-33.1-57.62-248.62,83.6-278.26s224.65,4.88,286.7-55.46,77.52-50.44,128.49-46.45S685.63,162,705.47,149,904.53,51.69,950.35,303.51c7.24,108.87,13.26,227-37.44,271.73s.93,84.91,37.44,89.38S933.28,745.53,849,778.9C792.88,804.06,430.19,876.18,213,802,108.11,757.12,84.47,614.86,76.8,581.77Z"></path><path id="形状结合" class="cls-3" d="M158,329v.15a7.51,7.51,0,0,1,6,7.35v1a7.5,7.5,0,0,1-7.5,7.5h-79a7.5,7.5,0,0,1-7.5-7.5v-1a7.5,7.5,0,0,1,7.5-7.5H109a7,7,0,0,0,7-6.76V322a7,7,0,0,0-6.76-7H106v-.15a7.5,7.5,0,0,1-6-7.35v-1a7.5,7.5,0,0,1,7.5-7.5h79a7.5,7.5,0,0,1,7.5,7.5v1a7.5,7.5,0,0,1-7.5,7.5H155a7,7,0,0,0-7,6.76V322a7,7,0,0,0,6.76,7H158Z"></path><path id="形状结合-2" class="cls-4" d="M858,159v.15a7.51,7.51,0,0,1,6,7.35v1a7.5,7.5,0,0,1-7.5,7.5h-79a7.5,7.5,0,0,1-7.5-7.5v-1a7.5,7.5,0,0,1,7.5-7.5H809a7,7,0,0,0,7-6.76V152a7,7,0,0,0-6.76-7H806v-.15a7.5,7.5,0,0,1-6-7.35v-1a7.5,7.5,0,0,1,7.5-7.5h79a7.5,7.5,0,0,1,7.5,7.5v1a7.5,7.5,0,0,1-7.5,7.5H855a7,7,0,0,0-7,6.76V152a7,7,0,0,0,6.76,7H858Z"></path><path id="形状结合-3" class="cls-5" d="M514.52,712c131.1,0,249.26,10.79,331.78,28,80.76.65,145.7,25,145.7,55,0,24.23-42.45,44.8-101.39,52.13-13,3.75-27.41,7.3-43.16,10.62A35.34,35.34,0,0,1,848,864c0,51.91-112.82,94-252,94-124.65,0-228.17-33.76-248.41-78.11C180.2,867.13,62,835.72,62,799,62,751,264.37,712,514.52,712Z"></path><g id="大雁"><path id="路径" class="cls-6" d="M686.61,226.65v-.1c-5.33-15-22.7-22.11-37.44-19.93,10.93-6.79,29-8.6,37.44,1.82v.09c8.46-10.33,26.59-8.61,37.43-1.82-14.72-2.08-32.09,5-37.43,19.93Z"></path><path id="路径-2" class="cls-7" d="M770,214.11V214c-3.7-10.42-15.73-15.31-25.94-13.81,7.57-4.71,20.07-6,25.94,1.26v.06c5.87-7.16,18.44-6,26-1.26-10.21-1.44-22.24,3.46-26,13.82Z"></path><path id="路径-3" class="cls-8" d="M735.24,179.63v-.06c-3.7-10.43-15.73-15.32-26-13.82,7.58-4.71,20.08-6,26,1.26v.06c5.87-7.15,18.43-6,26-1.25-10.22-1.45-22.24,3.45-26,13.81Z"></path><path id="路径-4" class="cls-9" d="M840.72,220.07v0c-2.56-7.23-10.9-10.63-18-9.58,5.25-3.26,13.91-4.14,18,.87v0c4.08-5,12.78-4.13,18-.87C851.63,209.49,843.29,212.89,840.72,220.07Z"></path></g><g id="绿植"><path id="路径-61" class="cls-10" d="M54.17,676.4q-49-22-44,21.64Q13,711.59,20.37,715q19.26,23.47,20.37,37.62c1.11,14.14,12.11,30.16,39.66,21q27.55-9.17,37.84,30.68,31.06,41.16,109.13,32.89t-9.93-72q-23.92-9.45-36.54-11.67T168.54,726q0-15.83-22.92-23.11t-19.2-23.14q-15.23-22.43-36.34-6.41T54.17,676.4Z"></path><path id="形状结合-4" class="cls-11" d="M52.64,691.51l48.27,32.22q-3.69-19.38-8.82-31.4c-5.07-11.87,10.59,19.79,10.8,32.72l40.24,26.86-.11-.16q1.66-25.93-1.34-36.2c2.69,3.59,5.56,29.37,4,38l37,24.7c-.21-.24-.34-.41-.34-.41s1.91-14.28.22-21.47c1.67,2,2.79,17,2.3,23.34l30.55,20.39L211.52,804,180,781.68c-8.52,5-20.21,5.79-25.86,5.26q15.67-1.43,22.9-7.19a12.89,12.89,0,0,0,2.5,1.6L90.7,718.45c.2.23.38.45.56.69q-19.74,2.79-35.44-2.38c.84-1.67,14.75,4.83,33.11.45ZM94,768.36q15.81.46,41.17-18.27a23.15,23.15,0,0,0,2.22,2.22C121.39,764.93,104.24,769.9,94,768.36Z"></path><path id="路径-65" class="cls-12" d="M89.57,607.28q-48.25-32.84-44.78,16.51C51,647.36,55,663.12,53,677.56s4.31,41.75,36.56,53q32.25,11.21,18.12,31.79-7.09,31.62,78.22,45.38c85.33,13.76,65-17.87,43.06-52.16-15.87-15.88-18-25.58-18-37.72s11.61-32-21.76-40.24q-22-5-23.06-44-3.45-19.59-42-9.8Q107.06,627.09,89.57,607.28Z"></path><path id="形状结合-5" class="cls-13" d="M74.94,624.74l35.44,45.06.07-.17a44.7,44.7,0,0,0,2.35-28.28l-.08-.31v0c2.34,7.27,6.81,15.94-.61,30.93l30,38.18.19-.27q9-12.72,9-33.46c1.38,4.3,1.41,24-7.16,36.27l26.61,33.82c1.68-2.61,5.88-9.95,5.88-18.15.89,5.65,1,13.22-3.89,20.68L212,799h-6.23l-38-50.55c-18.38,7.84-28.7,4.56-33.81,2.25q15,3.66,31.72-5l-28.87-38.44c.16.29.32.6.5.91-19.21,6.73-39.15,7.53-48.36,2.74q14.79,5.58,47-5.56l-.43.15-32.17-42.84c.07.18.13.35.18.52q-21.19,1.3-33.84-13.49c1.34-1.3,10.35,11.81,32.14,11Z"></path><path id="路径-96" class="cls-14" d="M199.2,608.75q18.63-25.89,33.35,5.26c4.76,17.94-2.75,29.34,21.82,37.5q24.58,8.16,7.44,34.15-7.15,16.35,10.58,20.91t-4.27,36.22q-7.62,17.36,0,23.2c7.63,5.83,22.28,23.35,4.27,57.39s-60.46,7.6-66.83-8.4,6.37-38.06,0-49S162.1,751.28,172,718.47c8.25-13.43,19.74-17.31,8.21-40.16s-14.46-13.68,0-36.19Q189.69,632.42,199.2,608.75Z"></path><path id="形状结合-6" class="cls-15" d="M216.11,638.51l11.35,56.91q11.08-16.29,16-28.43c4.81-12-6.5,21.48-15.5,30.77l9.46,47.45a1.06,1.06,0,0,1,0-.19q19.52-17.16,24.65-26.55c-.64,4.44-16.85,24.7-24.1,29.7l8.71,43.64,0-.53s11.44-8.75,15.34-15c-.25,2.62-10,14-14.88,18.14l7.18,36H248.9l-6.51-38.09c-9.59-2.46-18.39-10.19-22-14.56q12.09,10.07,21.28,11.11a13,13,0,0,0,.63,2.89L224,684.47a6.4,6.4,0,0,1-.09.88q-15.93-12-23.37-26.74c1.77-.58,7,13.85,23.1,23.73ZM191,722.08q10.84,11.5,42,16.19a23.39,23.39,0,0,0,0,3.14C212.8,739,197.16,730.42,191,722.08Z"></path></g><g id="石头"><path id="路径-38" class="cls-16" d="M938.4,787.52q4.35-33.32-22.4-35.89c24.14-2.3,40.12,12.39,40.38,35.89Q948.88,787.78,938.4,787.52Z"></path><path id="路径-39" class="cls-17" d="M950.12,787.65Q957.19,754,932.73,738c20.82,6.57,35.78,16.44,40.64,49.65A190.3,190.3,0,0,1,950.12,787.65Z"></path><path id="路径-40" class="cls-18" d="M977.07,788q-3.14-31.95,22.93-36.61c-16.11-.4-34.09-1.48-47,36.61Q969.4,787.47,977.07,788Z"></path><path id="椭圆形" class="cls-19" d="M927.41,802c16.85,0,29.59.41,29.59-15.39S943.34,758,926.5,758,896,770.81,896,786.61,910.57,802,927.41,802Z"></path><path id="椭圆形备份-6" class="cls-20" d="M960.57,802c10.49,0,18.43.25,18.43-9.44S970.49,775,960,775s-19,7.86-19,17.56S950.07,802,960.57,802Z"></path></g></g><g id="暂无数据"><path id="路径-5" class="cls-21" d="M780,517.42H662q-10.72,0-10.73,10.72T662,538.85H780q10.72,0,10.72-10.71T780,517.42Z"></path><path id="路径-6" class="cls-21" d="M780,571H694.2q-10.71,0-10.72,10.71T694.2,592.4H780q10.72,0,10.72-10.71T780,571Z"></path><ellipse id="椭圆形-2" class="cls-22" cx="687.43" cy="560.39" rx="151.56" ry="151.39"></ellipse><ellipse id="椭圆形-3" class="cls-23" cx="639.04" cy="466.97" rx="31.33" ry="16.21" transform="translate(-108.91 208.12) rotate(-17.07)"></ellipse><ellipse id="椭圆形-4" class="cls-24" cx="716.77" cy="534.24" rx="33.26" ry="33.23"></ellipse><ellipse id="椭圆形-5" class="cls-23" cx="783.69" cy="491.15" rx="7.61" ry="11.96" transform="translate(-122.01 678.52) rotate(-43.76)"></ellipse><path id="路径-7" class="cls-25" d="M538.21,586.59c.29,1.76,1.49,7.55,1.84,9.29-26.2,17.56-38.18,33.14-34.51,41.7,10.28,26.22,114.16,15.22,206.18-14.14s184.2-82.13,172.77-106C875.74,504.75,843.74,505,828.56,505c-.72-1.64-3.44-7.48-4.21-9.1,39.43-1.4,66.21,5.29,70.92,20.42C904.64,546.47,823,598.56,713,632.72s-206.86,37.44-216.23,7.33C492.29,625.76,508.35,606.52,538.21,586.59Z"></path><ellipse id="椭圆形-6" class="cls-23" cx="577.2" cy="597.07" rx="18.66" ry="18.64"></ellipse><ellipse id="椭圆形-7" class="cls-23" cx="691.59" cy="609.22" rx="11.36" ry="11.35"></ellipse></g><path id="形状" class="cls-26" d="M729.46,359.72,735,348.3l5.67,2.77a18.64,18.64,0,0,0,25.35-8.83l2.78-5.7a18.92,18.92,0,1,0-34-16.59l-2.78,5.71-11.34-5.53,2.79-5.7a31.52,31.52,0,1,1,56.66,27.63l-2.78,5.71a31.87,31.87,0,0,1-36.3,16.9l-5.85,12-11.33-5.53,5.56-11.41Zm-8.34,17.11,11.33,5.53-5.57,11.41-11.33-5.52Z"></path><path id="形状-2" class="cls-27" d="M649.6,366.31l-3.3-8.58,4.25-1.63a13.48,13.48,0,0,0,7.81-17.77L656.72,334a13.66,13.66,0,1,0-25.51,9.79l1.65,4.29-8.5,3.26-1.65-4.29a22.77,22.77,0,1,1,42.51-16.32l1.65,4.29a23.08,23.08,0,0,1-8.94,27.56l3.46,9-8.5,3.27-3.29-8.59Zm4.94,12.88,8.5-3.26,3.3,8.58-8.51,3.26Z"></path><path id="路径-8" class="cls-28" d="M313.08,818.5c22.33,7,13.44,11.18,6,15.29-13.64,7.54-7.51,14.14-.58,20.21,10.27,9,86.93,30.63,170.05,12.22,77.51-17.16,65.83-48,45.91-62C518.43,793,448.5,767.49,368.54,773c-48.12,3.3-68.78,11.56-72.79,17.93C289.11,801.47,288.21,810.71,313.08,818.5Z"></path><g id="人物"><path id="路径-9" class="cls-29" d="M397,791.51c4.06,2.59,6.67,2.91,7.87,5.45s-.33,9.24-3.31,11.15c-3.79,2.41-10.6,6.17-12.49,7.26s-15.08,8.31-19.36,6.12-1.62-9.37,5.79-15.25,18.78-13.46,18.78-13.46Z"></path><path id="路径-10" class="cls-29" d="M447,791.51c-4.06,2.59-6.67,2.91-7.87,5.45s.33,9.24,3.31,11.15c3.79,2.41,10.6,6.17,12.49,7.26s15.08,8.31,19.36,6.12,1.62-9.37-5.79-15.25-18.78-13.46-18.78-13.46Z"></path><path id="路径-111" class="cls-30" d="M389.29,800q-23.58-148.38-4.7-187.49,12.75,3.72,74.5-1.59,17.84,65.49-5.82,189.58c-6.62.87-4.32,3.9-15.38.7-.51-5.31-2.55-115.5-14.92-141.85-4.87-5.78-4.75-5.06-6.38,0S404.16,759.79,404.16,800Q397.38,803.84,389.29,800Z"></path><path id="_Path_" class="cls-31" d="M529.36,511.36,523.94,516a6.7,6.7,0,0,1-3.47-3.75c-1.3-2.64-.87-6.39-1.74-5.51q-1.72,2-1.73,16.53l3.47,3.74,13.66-11q1.74-12.78,0-14.76Q532.41,499.46,529.36,511.36Z"></path><path id="_Path_2" class="cls-31" d="M304.1,541.2c-1.78,1.81-1.11,13.58,0,15.16q.9,1.36,14.77,10.64l3.13-3.17q0-15.17-1.79-17c-1.12-.9-.67,2.94-1.79,5.66a8,8,0,0,1-3.58,3.84,63.53,63.53,0,0,1-5.81-4.75c-1.12-1.36-3.14-12.22-4.93-10.41Z"></path><path id="形状结合-7" class="cls-32" d="M410.46,463.17a18.39,18.39,0,0,1,12.77,5.36A15.86,15.86,0,0,1,426,472l.08.13-.18-.65c1.46.29,2.33,2.74,2.69,5.84,3.74-2.27,7.92,10-.57,10.88a9.72,9.72,0,0,1-.86,2.38c-1.64,3-3.39,6.75-6.05,9.3l.75,8.21-15.92,1.62-.72-9a14.77,14.77,0,0,1-4.16-4,30.37,30.37,0,0,1-3.61-5.95c-9.14,1.06-7-12.56-2.71-10.51,0-.19,0-.39,0-.59A18.26,18.26,0,0,1,398,469.42,14.68,14.68,0,0,1,410.46,463.17Zm16.1,10.75,0,.11a4.11,4.11,0,0,0,.55,1.88Zm-.52-1.84.52,1.84,0-.17a5.91,5.91,0,0,0-.23-1.11l-.1-.27Z"></path><path id="路径-11" class="cls-33" d="M429.37,479.15c5.19-5.67,6-23.43-4.86-27.15-1.27-1.33-3.8-1.53-7.17-1.34-2.44.11-2.65,1-3.91.91s-3.3-2.89-8.09-3.14c-2.59-.17-10.21,2.26-11.75,4.53-3.14,2.67-7,8.89-7.46,16.39s3.69,10.93,7.35,16.36c2.87-2.08,3.31-6.44,5.24-9.38A29.27,29.27,0,0,1,409,467.75c8.92-1.93,13.24-2.23,17.86,5.48T429.37,479.15Z"></path><path id="路径-3-2" class="cls-34" d="M405.16,503.41q9.34,5.4,17.34,0c3.72-.1,23.22-11.05,55.42,46.33,5.59-6.31,13.26-4.88,40.08-33.29,2.2,2.86,6.73.5,7.86,6.2-2.13,6.69-16.81,52.51-44.45,60.86-9.43.59-19.56-5.11-33.25-20.67,6.8,11.27,18.6,51.31,13.84,53.93s-54.21,14.5-81.5,2.62c.38-7.41,5.68-40.6,12.36-56.55-5.54,9.47-10.47,34.45-46.85,26.45q-20.44-3.22-31-26.6,1-6.2,8-4.05c3.09,3.08,30,11.74,35.92,0s7.86-28.9,21.58-42.19A44.57,44.57,0,0,1,405.16,503.41Z"></path></g></g></g></g></svg>