<svg height="1024" viewBox="0 0 1024 1024" width="1024" xmlns="http://www.w3.org/2000/svg" xmlns:xlink="http://www.w3.org/1999/xlink"><linearGradient id="a"><stop offset="0" stop-color="#98d6fa"/><stop offset="1" stop-color="#47b0f1"/></linearGradient><linearGradient id="b" x1="-13.582351%" x2="50%" xlink:href="#a" y1="50%" y2="47.203197%"/><linearGradient id="c" x1="0%" x2="100%" y1="-3.10559%" y2="-3.10559%"><stop offset="0" stop-color="#fff5de"/><stop offset="1" stop-color="#fbd2ac"/></linearGradient><linearGradient id="d" x1="-13.582351%" x2="50%" xlink:href="#a" y1="50%" y2="47.628444%"/><linearGradient id="e" x1="-13.582351%" x2="50%" xlink:href="#a" y1="50%" y2="47.629463%"/><linearGradient id="f" x1="-13.582351%" x2="50%" xlink:href="#a" y1="50%" y2="47.629883%"/><linearGradient id="g" x1="-13.582351%" x2="50%" xlink:href="#a" y1="50%" y2="43.42302%"/><linearGradient id="h"><stop offset=".0315726754" stop-color="#afdef9"/><stop offset="1" stop-color="#7cc9f9"/></linearGradient><linearGradient id="i" x1="43.139893%" x2="60.336564%" xlink:href="#h" y1="-6.451613%" y2="0%"/><linearGradient id="j" x1="5.920258%" x2="59.966368%" xlink:href="#a" y1="60.85715%" y2="37.05422%"/><linearGradient id="k" x1="44.492637%" x2="58.298297%" xlink:href="#h" y1="-6.451613%" y2="0%"/><linearGradient id="l" x1="28.403885%" x2="50%" xlink:href="#a" y1="87.008487%" y2="30.481096%"/><linearGradient id="m" x1="80.176687%" x2="40.161259%" xlink:href="#a" y1="78.124461%" y2="1.203567%"/><linearGradient id="n" x1="16.963661%" x2="73.110637%" xlink:href="#a" y1="77.603301%" y2="27.310415%"/><linearGradient id="o" x1="0%" x2="84.977599%" xlink:href="#a" y1="66.879116%" y2="36.125568%"/><linearGradient id="p" x1="0%" x2="84.977599%" xlink:href="#a" y1="64.361728%" y2="38.19483%"/><linearGradient id="q" x1="0%" x2="84.977599%" xlink:href="#a" y1="63.935462%" y2="38.545216%"/><linearGradient id="r" x1="112.921805%" x2="-38.265255%" y1="29.575281%" y2="76.002808%"><stop offset="0" stop-color="#b6dcf2" stop-opacity="0"/><stop offset="1" stop-color="#64afde"/></linearGradient><linearGradient id="s" x1="100%" x2="15.171329%" xlink:href="#a" y1="33.790518%" y2="55.564096%"/><linearGradient id="t" x1="50.628311%" x2="49.371689%" xlink:href="#a" y1="15.451613%" y2="84.235438%"/><linearGradient id="u" x1="51.607554%" x2="58.479332%" xlink:href="#a" y1="26.852234%" y2="90.191712%"/><linearGradient id="v" x1="-17.157804%" x2="65.04205%" xlink:href="#a" y1="26.467411%" y2="63.350956%"/><linearGradient id="w" x1="-20.406062%" x2="50%" xlink:href="#a" y1="87.008487%" y2="30.481096%"/><linearGradient id="x" x1="-21.596745%" x2="143.617622%" xlink:href="#a" y1="9.018941%" y2="117.899381%"/><linearGradient id="y" x1="-54.080531%" x2="50%" xlink:href="#a" y1="61.972949%" y2="43.685264%"/><linearGradient id="z" x1="116.912684%" x2="44.771245%" xlink:href="#a" y1="68.42913%" y2="36.164666%"/><linearGradient id="A" x1="0%" x2="100%" y1="-11.764706%" y2="-11.764706%"><stop offset="0" stop-color="#f5dda7"/><stop offset="1" stop-color="#fa9a41"/></linearGradient><linearGradient id="B"><stop offset="0" stop-color="#ffb859"/><stop offset="1" stop-color="#f97b61"/></linearGradient><linearGradient id="C" x1="13.965733%" x2="87.519698%" xlink:href="#B" y1="7.491415%" y2="107.502359%"/><linearGradient id="D" x1="2.075163%" x2="50%" xlink:href="#a" y1="87.008487%" y2="30.481096%"/><linearGradient id="E" x1="100%" x2=".581466%" y1="-2.969875%" y2="-2.969875%"><stop offset="0" stop-color="#f97b61"/><stop offset="1" stop-color="#ffb859"/></linearGradient><linearGradient id="F" x1="100%" x2=".581466%" xlink:href="#B" y1="-2.969875%" y2="-2.969875%"/><linearGradient id="G" x1="86.275022%" x2="0%" y1="-2.805049%" y2="-2.805049%"><stop offset="0" stop-color="#1d181c"/><stop offset=".3" stop-color="#2c2422"/><stop offset=".5" stop-color="#42352c"/><stop offset=".7" stop-color="#57352c"/><stop offset="1" stop-color="#923629"/></linearGradient><linearGradient id="H" x1="100%" x2="0%" xlink:href="#a" y1="-14.288198%" y2="86.125%"/><linearGradient id="I" x1="39.457909%" x2="54.744922%" xlink:href="#a" y1="-29.083106%" y2="83.013039%"/><g fill="none" fill-rule="evenodd"><path d="m0 0h1024v1024h-1024z" fill="#fff" opacity="0"/><g fill-rule="nonzero" transform="translate(-10.925399 125)"><path d="m87.7222308 456.766916c-7.6730034-33.095406-57.6199502-248.620577 83.6010762-278.254387 141.221026-29.633811 224.64964 4.880799 286.700504-55.460853 62.050864-60.3416525 77.525282-50.437845 128.49179-46.4468881s110.035962-39.5659347 129.884675-52.6494478 199.059152-97.2619728 244.876252 154.5571889c7.241127 108.871169 13.25872 226.984065-37.438166 271.72473s.926166 84.914139 37.438166 89.378243c36.511999 4.464105-17.069589 80.910309-101.40047 114.286322-56.070565 25.154259-418.759948 97.27856-635.955884 23.139173-104.879909-44.916041-128.5249399-187.178674-136.1979432-220.274081z" fill="#47b0f1" opacity=".05"/><path d="m168.925399 204 .000598.150149c3.423062.695136 5.999402 3.721625 5.999402 7.349851v1c0 4.142136-3.357864 7.5-7.5 7.5h-79.0000001c-4.1421356 0-7.5-3.357864-7.5-7.5v-1c0-4.142136 3.3578644-7.5 7.5-7.5h31.5000001c3.785452 0 6.869099-3.004783 6.995941-6.75935l.004059-.24065c0-3.785452-3.004783-6.869099-6.75935-6.995941l-.24065-.004059h-3l.000406-.149945c-3.423563-.694748-6.000406-3.721475-6.000406-7.350055v-1c0-4.142136 3.357864-7.5 7.5-7.5h79c4.142136 0 7.5 3.357864 7.5 7.5v1c0 4.142136-3.357864 7.5-7.5 7.5h-31.5c-3.785452 0-6.869099 3.004783-6.995941 6.75935l-.004059.24065c0 3.785452 3.004783 6.869099 6.75935 6.995941l.24065.004059z" fill="url(#b)" opacity=".1"/><path d="m868.925399 34 .000598.1501485c3.423062.6951365 5.999402 3.7216258 5.999402 7.3498515v1c0 4.1421356-3.357864 7.5-7.5 7.5h-79c-4.142136 0-7.5-3.3578644-7.5-7.5v-1c0-4.1421356 3.357864-7.5 7.5-7.5h31.5c3.785452 0 6.869099-3.0047834 6.995941-6.7593502l.004059-.2406498c0-3.7854517-3.004783-6.8690987-6.75935-6.995941l-.24065-.004059h-3l.000406-.1499448c-3.423563-.6947486-6.000406-3.7214749-6.000406-7.3500552v-1c0-4.14213562 3.357864-7.5 7.5-7.5h79c4.142136 0 7.5 3.35786438 7.5 7.5v1c0 4.1421356-3.357864 7.5-7.5 7.5h-31.5c-3.785452 0-6.869099 3.0047834-6.995941 6.7593502l-.004059.2406498c0 3.7854517 3.004783 6.8690987 6.75935 6.995941l.24065.004059z" fill="url(#b)" opacity=".1"/><path d="m525.44197 587c131.104633 0 249.26125 10.788312 331.786374 28.013362 80.760801.646657 145.697056 25.017429 145.697056 54.986638 0 24.229977-42.44658 44.80045-101.389179 52.132354-12.966778 3.752585-27.405924 7.300765-43.157583 10.613287.361788 2.066363.546761 4.152303.546761 6.254359 0 51.914766-112.824243 94-252 94-124.652743 0-228.166602-33.760295-248.412641-78.105807-167.389709-12.765492-285.5873591-44.173019-285.5873591-80.894193 0-48.048773 202.3672931-87 452.5165711-87z" fill="url(#c)"/><g transform="translate(660.099546 36.907158)"><path d="m37.4312095 64.7423818v-.0971699c-5.3253876-15.0378854-22.6955488-22.1145373-37.4312095-19.9298891 10.9264423-6.7951942 28.9638433-8.6045654 37.4343421 1.8127219v.0904686c8.4579685-10.3268188 26.5924795-8.6045654 37.4343421-1.8127219-14.7231304-2.0841276-32.0964242 4.9824722-37.4343421 19.929889z" fill="url(#d)"/><path d="m120.860322 52.2014603v-.0636631c-3.699578-10.4239887-15.731821-15.319343-25.9471679-13.8148844 7.5714479-4.7077159 20.0767109-5.9642237 25.9471679 1.2565078v.0636631c5.870457-7.1570684 18.432106-5.9642237 25.947168-1.2565078-10.215347-1.4441463-22.241325 3.4545588-25.947168 13.8148844z" fill="url(#e)"/><path d="m86.0679846 17.7234613v-.063663c-3.699578-10.42398872-15.7318214-15.31934311-25.9471678-13.81488444 7.5714481-4.70771588 20.0767112-5.96422368 25.9471678 1.2565078v.06366307c5.8704567-7.15706843 18.4321064-5.96422369 25.9471674-1.2565078-10.215346-1.4441463-22.2413241 3.45455877-25.9471674 13.81488437z" fill="url(#e)"/><path d="m191.548904 58.1616316v-.0435589c-2.562451-7.2240822-10.907647-10.6216793-17.98728-9.5762648 5.250206-3.2635696 13.918057-4.1347483 17.98728.8711788v.0435589c4.072355-4.9623681 12.777798-4.1347483 17.98728-.8711788-7.079633-1.0052062-15.424829 2.3957416-17.98728 9.5762648z" fill="url(#f)"/></g><g transform="translate(0 469.157511)"><path d="m53.4579208 97.7847305c-34.7367587-8.7927356-47.94272974.8600727-39.6179132 28.9584255 3.4368572 8.563898 7.7779478 13.524551 13.0232716 14.881961 15.3635129 13.178361 24.2283934 24.346195 26.5946416 33.503502 3.5493721 13.735961 17.1618261 27.605118 42.7069983 13.802559 17.0301149-9.201706 31.2260169-1.319754 42.5877069 23.645857 25.166232 23.429406 62.894026 27.908916 113.183382 13.438531 50.289357-14.470385 42.861419-37.528975-22.283813-69.17577-16.802342-3.433288-29.470289-5.149931-38.00384-5.149931s-14.185001-8.31557-16.95435-24.946709c-1.800701-10.394876-10.661209-16.655783-26.581525-18.78272s-23.564482-8.6098786-22.932499-19.4488253c-12.591751-12.9658837-24.889635-12.9658837-36.8936544 0-12.004019 12.9658833-23.6134876 16.0569233-34.8284058 9.2731198z" fill="url(#g)" transform="matrix(.98480775 .17364818 -.17364818 .98480775 29.433924 -23.341191)"/><path d="m128.357876 61.8772723 11.350642 56.9152197c7.393748-10.866446 12.715123-20.3446876 15.964125-28.4347255 4.811783-11.981378-6.503224 21.4832945-15.499188 30.7697195l9.462935 47.451247c.009575-.065389.019999-.128746.031273-.190072 13.010107-11.440141 21.227344-20.290002 24.651711-26.549586-.639937 4.444463-16.842449 24.701793-24.094 29.700258l8.704693 43.64415c.027076-.321052.050308-.531988.050308-.531988s11.44369-8.748009 15.338999-15.026726c-.250387 2.616798-10.013976 13.955369-14.876599 18.133076l7.182341 36.017377h-5.473095l-6.509945-38.092047c-9.585301-2.466273-18.387352-10.193033-22.009386-14.560978 8.062478 6.709494 15.154445 10.410943 21.275902 11.104348.122524 1.080133.334847 2.04494.636971 2.894423l-18.330675-107.276069c-.01627.296057-.046449.58952-.090538.880389-10.61854-7.99466-18.409515-16.9096899-23.372925-26.7450894 1.770612-.5833397 7.010773 13.8501032 23.097243 23.7327714zm-25.119054 83.5725927c7.238113 7.667346 21.248219 13.064704 42.030319 16.192074-.070084.902191-.070084 1.948015 0 3.137473-20.213081-2.372263-35.852485-10.985079-42.030319-19.329547z" fill="url(#i)" transform="matrix(.70710678 -.70710678 .70710678 .70710678 -70.952553 144.357879)"/><path d="m100.496525 13.1192019c-32.1679744-21.89125142-47.0954677-16.38600651-44.7824798 16.5157347 6.1885731 23.5681088 10.2479513 39.323356 8.2182622 53.7692355-2.0296891 14.4458796 4.314925 41.7456119 36.5642176 52.9484059 21.499528 7.468528 27.538002 18.065538 18.115421 31.791028-4.730622 21.074059 21.345154 36.199533 78.227328 45.376421 85.323262 13.765334 64.994109-17.867308 43.058108-52.155128-15.870153-15.884806-17.994045-25.580528-17.994045-37.720553s11.615673-31.9838873-21.759257-40.2401739c-14.657521-3.3326712-22.342558-17.9906396-23.055111-43.9739052-2.306325-13.0604404-16.297266-16.3255505-41.972824-9.7953303-11.42159 2.1951923-22.961464-3.3100526-34.61962-16.5157347z" fill="url(#j)"/><path d="m132.265793 14.8667685 12.100945 56.029.136132-.1186012c7.571947-6.694274 12.408626-14.8253346 14.510036-24.393182l.064832-.3092168-.005691.0442724c-1.087375 7.5561302-.86602 17.3079739-14.109237 27.5313642l10.251928 47.4783639.293046-.157543c9.088447-5.00792 16.661616-13.722138 22.719507-26.1426543-.6425 4.4622605-9.257361 22.1943413-22.330311 29.4552403l9.085223 42.066781c2.654388-1.609397 9.652831-6.371109 13.245088-13.736327-1.6762 5.461904-4.942172 12.295427-12.566691 16.875627l13.407408 62.082658-5.597011-2.729844-11.954601-62.076411c-19.96149-1.005945-27.794505-8.477674-31.371032-12.79074 7.88546 6.562182 18.123309 9.686233 30.713547 9.372154l-9.090525-47.206941c.00837.33382.023165.680809.044386 1.040967-20.213081-2.372264-38.4882-10.397906-44.666034-18.7423753 7.238113 7.6673463 22.126791 12.8689803 44.666034 15.6049023l-.459034-.056494-10.128166-52.6045175c-.016645.1824365-.038643.3638749-.065994.5443151-13.08148-5.4119888-21.248226-14.3979461-24.500237-26.9578718 1.768532-.5826546 4.124842 15.1482737 24.086133 23.9336602z" fill="url(#k)" transform="matrix(.89879405 -.43837115 .43837115 .89879405 -39.532625 75.204706)"/><path d="m210.126368 14.594686c12.419007-17.25980218 23.53621-15.50821628 33.351609 5.2547577 4.758911 17.9408584-2.755537 29.3472357 21.820516 37.5025205 16.384036 5.4368566 18.863298 16.8196974 7.437786 34.1485226-4.772158 10.9037102-1.246356 17.8732222 10.577405 20.9085372 11.823762 3.035314 10.401534 15.108358-4.266685 36.219133-5.084557 11.573212-5.084557 19.306387 0 23.199525 7.626837 5.839708 22.281877 23.351466 4.266685 57.391444-18.015191 34.039979-60.46008 7.603541-66.823698-8.401079s6.363618-38.050904 0-48.990365-43.465276-14.706212-33.553136-47.516704c8.249606-13.423534 19.734225-17.303805 8.204018-40.16089-11.530207-22.8570852-14.457319-13.6732555 0-36.1891923 6.312601-6.4700135 12.641101-17.5920834 18.9855-33.3662097z" fill="url(#l)"/><path d="m227.031254 44.3491751 11.350641 56.9152199c7.393749-10.866446 12.715124-20.3446878 15.964125-28.4347258 4.811783-11.9813779-6.503223 21.4832942-15.499188 30.7697188l9.462935 47.451248c.009575-.065389.019999-.128746.031273-.190072 13.010107-11.440141 21.227344-20.290003 24.651712-26.549586-.639938 4.444463-16.84245 24.701793-24.094001 29.700258l8.704693 43.64415c.027076-.321052.050308-.531989.050308-.531989s11.44369-8.748008 15.339-15.026725c-.250387 2.616797-10.013976 13.955368-14.8766 18.133076l7.182341 36.017377h-5.473095l-6.509944-38.092047c-9.585302-2.466274-18.387353-10.193033-22.009387-14.560979 8.062478 6.709495 15.154445 10.410944 21.275902 11.104349.122524 1.080133.334847 2.04494.636971 2.894423l-18.330675-107.2760689c-.016269.2960566-.046449.5895196-.090538.8803887-10.61854-7.9946601-18.409515-16.9096899-23.372925-26.7450894 1.770612-.5833398 7.010773 13.8501032 23.097243 23.7327711zm-25.119055 83.5725919c7.238113 7.667346 21.24822 13.064705 42.03032 16.192075-.070084.902191-.070084 1.948015 0 3.137473-20.213081-2.372263-35.852486-10.985079-42.03032-19.329548z" fill="url(#i)"/></g><g transform="translate(906.925399 613)"><path d="m42.3959886 49.5164474c2.9060335-22.2033058-4.559296-34.1647224-22.3959886-35.8842499 24.1424324-2.3070218 40.1235326 12.3851212 40.3823024 35.8842499-5.0052576.174405-11.0006955.174405-17.9863138 0z" fill="url(#m)"/><path d="m54.120901 49.6472512c4.7130295-22.4061426-1.0837202-38.9552263-17.3902491-49.6472512 20.8215873 6.56657635 35.7800125 16.4351231 40.6425512 49.6472512-6.354325.4703317-14.1050923.4703317-23.2523021 0z" fill="url(#n)"/><path d="m81.0677818 50c-2.0843885-21.2955416 5.5596842-33.497291 22.9322182-36.6052481-16.113645-.4079712-34.0887313-1.4890971-46.9480725 36.6052481 10.8977882-.3497195 18.903073-.3497195 24.0158543 0z" fill="url(#o)"/><path d="m31.4123189 63.9990036c16.8446849 0 29.5876811.4097732 29.5876811-15.3903499 0-15.8001232-13.6553151-28.6086537-30.5-28.6086537s-30.5 12.8085305-30.5 28.6086537c0 15.8001231 14.567634 15.3903499 31.4123189 15.3903499z" fill="url(#p)"/><path d="m64.5683298 63.9993886c10.4934103 0 18.4316702.2514517 18.4316702-9.4440784s-8.5065898-17.5553102-19-17.5553102-19 7.8597801-19 17.5553102 9.0749196 9.4440784 19.5683298 9.4440784z" fill="url(#q)"/></g></g><g transform="translate(469 396.258429)"><path d="m189.492742 431.074144 218.144626-141.086193 60.704277 48.37827-288.062239 135.732577z" fill="url(#r)" opacity=".1" transform="matrix(.77714596 .62932039 -.62932039 .77714596 312.701596 -118.955317)"/><g fill-rule="nonzero"><path d="m150.384846 313.516335c28.658677 0 52.297285 5.606993 55.675469 12.845236l.414014.000486v21.135168l-.005966-.00089.005966.161424c0 8.000242-24.612386 14.500867-55.161941 14.630079l-.927542.00196c-30.977366 0-56.0894831-6.550987-56.0894831-14.632039 0-.053762.0011115-.107457.0033288-.161082l-.0033288.000548v-21.135168l.4140141-.000486c3.3781844-7.238243 27.016792-12.845236 55.675469-12.845236z" fill="url(#s)"/><path d="m153.157156 324.230568 7.586149 6.679958 11.585266-6.679958v-164.341937h-19.171415z" fill="url(#t)"/><path d="m130.866992 164.341937h29.866947v166.568589h-29.866947z" fill="url(#u)"/><path d="m0 65.9201461c0-36.4029646 32.8430394-65.91079042 73.3605619-65.91079042h189.1234241c44.484929 0 80.556041 32.39873202 80.556041 72.37556772v104.8865676h-343.040027z" fill="url(#v)"/><path d="m271.396717 0c-40.262779 0-72.892582 32.6045571-72.892582 72.8152849v104.4374951h145.785165v-104.4374951c0-40.2107278-32.629803-72.8152849-72.892583-72.8152849z" fill="url(#w)"/><path d="m271.396717 11.1332634c-33.238568 0-60.192808 26.9163015-60.192808 60.128978v95.3063476h120.376256v-95.3063476c.009361-33.2033208-26.94488-60.128978-60.183448-60.128978z" fill="url(#x)"/><path d="m331.589526 177.262136s34.428001 21.882944 53.805458 35.729355c18.300412 24.960964 12.184666 55.039486-31.814994 58.145573-34.437367.224537-58.825429-8.784987-84.168783-31.771901l-58.197932-62.112383v-10.684191z" fill="url(#y)"/><path d="m379.569572 203.224158c23.582619 19.777915 19.761448 50.146463-11.997353 55.133043l-6.902458.851367c-32.508051 2.348276-62.440556-8.083311-89.263678-34.176312l-60.192808-62.046893h120.376251z" fill="url(#z)"/><path d="m162.092564 152.40337h-31.544346c-2.064758 0-3.737213-2.910239-3.737213-6.503128 0-3.592889 1.672455-6.503129 3.737213-6.503129h31.544346c2.064758 0 3.737212 2.91024 3.737212 6.503129 0 3.592889-1.672454 6.503128-3.737212 6.503128z" fill="#fff"/><path d="m160.535392 118.261946h-44.687823c-2.925075 0-5.294385-2.91024-5.294385-6.503129 0-3.592888 2.36931-6.503128 5.294385-6.503128h44.687823c2.925074 0 5.294384 2.91024 5.294384 6.503128 0 3.592889-2.36931 6.503129-5.294384 6.503129z" fill="#fff"/><path d="m158.97822 84.1205214h-57.831301c-3.7853899 0-6.8515561-2.9102398-6.8515561-6.5031284 0-3.5928887 3.0661662-6.5031285 6.8515561-6.5031285h57.831301c3.78539 0 6.851556 2.9102398 6.851556 6.5031285 0 3.5928886-3.066166 6.5031284-6.851556 6.5031284z" fill="#fff"/></g></g><g fill-rule="nonzero"><path d="m555.335967 813.445064c-21.143645 10.030344-11.756385 12.941048-3.830145 15.97778 14.553731 5.575883 9.404845 12.960812 3.377915 19.935096-8.920027 10.322138-81.818746 42.435025-166.689152 35.766275-79.140759-6.20602-71.869711-38.365726-54.08912-54.996772 14.324119-13.364719 80.028231-48.341632 159.978614-54.016874 48.110356-3.429643 69.721093 1.878137 74.578837 7.621428 8.033963 9.513176 10.21443 18.539508-13.326949 29.713067z" fill="url(#A)" opacity=".4" transform="matrix(-.99026807 .1391731 .1391731 .99026807 776.80044 -54.319178)"/><g transform="translate(371.058824 620.935169)"><path d="m81.6838325 18.0563019c5.5840131.5264043 10.7555609 3.1942079 14.4498188 7.4541087 1.149523 1.2800656 2.1169639 2.7143555 2.8752167 4.2614722l.0532337.1137878-.1496391-.7684332c1.7532974.5009481 2.5141624 3.6179589 2.5755004 7.4202946l.003066.2661415c4.262389-1.1660184 7.300775 11.9068987-1.9695434 12.2490427-.331497.8713042-.6959048 1.6162523-1.0853906 2.1863921-2.3423128 3.4287408-4.9005735 7.8167126-8.5348571 10.4626099l.0319184 9.5914096-18.9565395.267679.0817739-11.2634172c-1.5278106-1.2543233-2.8567311-2.7896228-3.9037717-4.5697858-1.3841588-2.1057113-2.5285957-4.3456748-3.4213382-6.67742l.3731159-.019574c-11.0599951.7788432-7.3477354-14.4422016-2.6809199-12.0438882-.007885-.5099505-.0032476-1.0234498.0127304-1.5374994.4411839-4.238852 2.1592217-8.2392097 4.9224657-11.461694 3.8207125-4.4152283 9.5578979-6.6359547 15.3231596-5.9312263zm17.8022692 14.0033687.0062592.1513039c.0287937.7599569.0711375 1.5123143.4522316 2.1962755zm-.424-2.174.424 2.174-.0045385-.1339174c-.0190547-.4755668-.0486954-.9511336-.1683166-1.4118575l-.0832055-.2745344z" fill="#ebb0b0"/><path d="m101.64614 38.6784945c6.523892-6.3211046 8.896598-27.4379756-3.451132-32.77793341-1.3804285-1.6876825-4.3159362-2.13541471-8.2618517-2.19317461-2.8637265-.07424999-3.1862503 1.0216759-4.6499153.76370097s-3.6186658-3.73116533-9.187705-4.41843397c-3.0134279-.42995822-12.1126835 1.8386847-14.0929361 4.41843397-3.8816181 2.91674974-8.9271784 10.01507835-10.055288 18.91816135-1.1610955 8.9191135 3.426415 13.3469819 7.2482531 20.1220442 3.5300156-2.2357827 4.390995-7.3952812 6.8878353-10.7489552 3.4614315-4.0699137 7.8241011-7.278994 12.7424952-9.373089 10.580601-1.5532477 15.6490252-1.5532477 20.4130557 8.0291601 0 0 .8023958 2.4200285 2.4071888 7.2600856z" fill="#131322"/><path d="m71.4088604 63.5691333c3.0003944 1.8709675 6.5276178 5.0190847 9.9078219 5.0847328 2.556419.1477597 6.0445052-3.5420924 8.2739343-5.0847328 10.2575385.4842463 28.8540974 5.7394045 44.5992704 17.8140601 0 46.6880616-4.636777 55.0079666-10.652263 81.2872296-.164971 1.150034-17.195756 31.070766-20.457357 32.752998-12.7756583 6.539915-22.6530593 5.316611-36.6485278 3.65787-2.727884-.336447-18.2946132-14.010535-20.3405262-16.03742-1.6382129-1.641202-9.7944772-19.602105-11.6476593-24.55033-1.853182-4.948225-4.6751682-13.88995-4.8901373-19.248476-.5707801-14.253842-1.5278644-38.404582-1.7271657-56.2880171 11.7396108-17.2668286 30.8771936-15.8264139 43.5826097-19.3879146z" fill="url(#C)"/><rect fill="url(#D)" height="45.818182" rx="4" width="31.090909" x="63.949379" y="74.17973"/><path d="m54.45417 109.25509c4.9251958-4.222987 9.7572611-7.043793 14.496196-8.462419 3.9194163-.018117 3.1157072 1.244136 1.1028149 1.833336 1.9698891.534274 11.0545488 2.440122 6.0055875 15.18288-3.9207012 3.517885-13.367267 8.162561-21.2164236 4.53775-4.1644487-2.720182-4.2938403-7.084031-.3881748-13.091547z" fill="#efba9e" transform="matrix(.8571673 -.51503807 .51503807 .8571673 -48.575465 49.297496)"/><path d="m24.6301285 83.3977804c7.2344392-8.7902882 14.2256451-9.6183352 20.9736174-2.484141 7.6596592 7.3730823 4.4587404 54.9530106 0 84.3550346-10.4011284 12.733173-23.4066076 5.050791-26.8981992-5.472738-7.5772283-32.432625-5.6023678-57.898677 5.9245818-76.3981556z" fill="url(#E)"/><path d="m26.6635792 154.730767c3.0632163-14.140291 11.9501907-27.030824 26.660923-38.6716 5.3174201-1.985887 11.3479923-.088394 12.7737303 7.165265 1.5134863 4.406537-6.2463117 39.63078-24.2449794 48.683646-12.9566289 2.652693-18.0198536-3.073078-15.1896739-17.177311z" fill="url(#E)"/><path d="m85.705492 109.25509c4.9251958-4.222987 9.7572611-7.043793 14.496196-8.462419 3.919416-.018117 3.115707 1.244136 1.102815 1.833336 1.969889.534274 11.054549 2.440122 6.005587 15.18288-3.920701 3.517885-13.3672665 8.162561-21.2164232 4.53775-4.1644487-2.720182-4.2938403-7.084031-.3881748-13.091547z" fill="#efba9e" transform="matrix(-.8571673 -.51503807 -.51503807 .8571673 235.799962 65.393117)"/><path d="m120.644623 83.3977804c7.23444-8.7902882 14.225645-9.6183352 20.973618-2.484141 7.659659 7.3730823 4.45874 54.9530106 0 84.3550346-10.401129 12.733173-23.406608 5.050791-26.8982-5.472738-7.577228-32.432625-5.602367-57.898677 5.924582-76.3981556z" fill="url(#F)" transform="matrix(-1 0 0 1 256.45138 0)"/><path d="m94.9149837 154.730767c3.0632163-14.140291 11.9501903-27.030824 26.6609233-38.6716 5.31742-1.985887 11.347992-.088394 12.77373 7.165265 1.513486 4.406537-6.246312 39.63078-24.244979 48.683646-12.9566293 2.652693-18.019854-3.073078-15.1896743-17.177311z" fill="url(#F)" transform="matrix(-1 0 0 1 228.68829 0)"/><path d="m135.179376 168.78392s21.179525-8.824304 27.328912 10.418445c5.422039 16.978864-12.695509 20.544034-12.695509 20.544034l-13.698179 2.528097-5.965616 18.996868-48.4453869-8.950994-48.4850181 8.950994-5.9733822-19.012272-13.553082-2.503016s-18.09720218-3.565169-12.68024874-20.534867c6.14430024-19.23409 27.29839344-10.41386 27.29839344-10.41386l53.3696389 14.248696z" fill="url(#G)"/><path d="m28.5962761 207.052152-5.8348872.379496c-1.8130517.096248-3.6301301.096248-5.4431818 0-3.7390079-.155767-7.2084003-.161223-7.2084003-.161223s-6.95913318-.252999-8.4038655 1.736259c-2.77754878 3.827708-1.32772936 11.608136-1.32772936 11.608136s.87497873 3.220016 2.52828158 4.672025c1.39386147 1.228776 3.95266554.306575 3.95266554.306575s4.60381254-1.202485 9.51285024-2.24672c6.653908-1.413812 9.502676-1.885082 9.502676-1.885082l6.9998298-1.896492zm106.1725639 0 5.86541.380984c1.823217.09682 3.650487.09682 5.473705 0 3.759356-.156263 7.249097-.161719 7.249097-.161719s6.994743-.253991 8.449649 1.744196c2.79281 3.844575 1.332817 11.661215 1.332817 11.661215s-.880067 3.233908-2.538456 4.692862c-1.404036 1.233737-3.973014.308062-3.973014.308062s-4.629248-1.208437-9.568808-2.257137c-6.689518-1.419765-9.553547-1.894011-9.553547-1.894011l-7.040526-1.904429z" fill="#333"/></g><path d="m751.882717 345.572451 11.756696 4.157972 5.720619-31.129963-40 19.207643 10.495641 4.047947 25.360347-18.839926-20.360733 20.753309-.270302 8.831027z" fill="url(#H)" transform="matrix(-.91354546 .40673664 .40673664 .91354546 1297.433481 -275.778)"/><path d="m770.682096 353c57.527662 37.425332 62.686404 83.293549 15.476226 137.604651" stroke="url(#I)" stroke-dasharray="2"/></g></g></svg>