<svg enable-background="new 0 0 1024 1024" viewBox="0 0 1024 1024" xmlns="http://www.w3.org/2000/svg" xmlns:xlink="http://www.w3.org/1999/xlink"><linearGradient id="a"><stop offset="0" stop-color="#ffbeae"/><stop offset=".46" stop-color="#ffb39f"/><stop offset="1" stop-color="#ff9678"/></linearGradient><linearGradient id="b" gradientTransform="matrix(0 1042.6 -919.69 0 -179457.125 711342.625)" gradientUnits="userSpaceOnUse" x1="-681.9578" x2="-681.3187" xlink:href="#a" y1="-195.48" y2="-195.48"/><linearGradient id="c"><stop offset="0" stop-color="#ff653f"/><stop offset="1" stop-color="#ff9a7d"/></linearGradient><linearGradient id="d" gradientTransform="matrix(-94.93 144.9 -144.9 -94.93 -92772.6641 80585.0391)" gradientUnits="userSpaceOnUse" x1="-681.2319" x2="-680.6122" xlink:href="#c" y1="-196.384" y2="-196.384"/><linearGradient id="e" gradientTransform="matrix(-103.18 106.59 -106.59 -103.18 -90264.375 52555.9336)" gradientUnits="userSpaceOnUse" x1="-679.6044" x2="-678.9846" xlink:href="#a" y1="-196.0944" y2="-196.0944"/><linearGradient id="f" gradientTransform="matrix(-103.18 106.59 -106.59 -103.18 -90256.375 52720.1836)" gradientUnits="userSpaceOnUse" x1="-679.9014" x2="-679.2817" xlink:href="#a" y1="-195.7903" y2="-195.7903"/><linearGradient id="g" gradientTransform="matrix(-88.57 141.55 -91.49 -137.03 -77355.6562 70151.7344)" gradientUnits="userSpaceOnUse" x1="-680.3292" x2="-679.7094" xlink:href="#a" y1="-195.1602" y2="-194.889"/><linearGradient id="h" gradientTransform="matrix(110.22 72.4 -72.4 110.22 61506.4453 71524.3828)" gradientUnits="userSpaceOnUse" x1="-681.7578" x2="-681.1381" xlink:href="#c" y1="-194.5777" y2="-194.5777"/><linearGradient id="i"><stop offset="0" stop-color="#396fc6"/><stop offset="1" stop-color="#1f4b93"/></linearGradient><linearGradient id="j" gradientTransform="matrix(0 1110.48 -429.14 0 -83325.0781 757165.9375)" gradientUnits="userSpaceOnUse" x1="-681.8142" x2="-681.1751" xlink:href="#i" y1="-195.3791" y2="-195.3791"/><linearGradient id="k" gradientTransform="matrix(0 1003.63 -410.43 0 -79633.2031 684278.6875)" gradientUnits="userSpaceOnUse" x1="-681.7593" x2="-681.1396" y1="-195.2907" y2="-195.2907"><stop offset="0" stop-color="#fff"/><stop offset="1" stop-color="#cef"/></linearGradient><linearGradient id="l"><stop offset="0" stop-color="#cef"/><stop offset="1" stop-color="#a9cfff"/></linearGradient><linearGradient id="m" gradientTransform="matrix(0 521.76 -410.43 0 -79633.2031 355507.5312)" gradientUnits="userSpaceOnUse" x1="-681.2611" x2="-680.6414" xlink:href="#l" y1="-195.2907" y2="-195.2907"/><linearGradient id="n"><stop offset="0" stop-color="#fff"/><stop offset="1" stop-color="#e6f7ff"/></linearGradient><linearGradient id="o" gradientTransform="matrix(0 436.87 -344.48 0 -66747.4141 298140.5625)" gradientUnits="userSpaceOnUse" x1="-681.53" x2="-680.9103" xlink:href="#n" y1="-195.2722" y2="-195.2722"/><linearGradient id="p"><stop offset="0" stop-color="#ffc44c"/><stop offset="1" stop-color="#ff8618"/></linearGradient><linearGradient id="q" gradientTransform="matrix(0 92.93 -59.26 0 -11136.9219 63511.9805)" gradientUnits="userSpaceOnUse" x1="-678.8465" x2="-678.2267" xlink:href="#p" y1="-195.3358" y2="-195.3358"/><linearGradient id="r" gradientTransform="matrix(0 82.68 -82.68 0 -15515.1719 56527.4648)" gradientUnits="userSpaceOnUse" x1="-678.4582" x2="-677.8385" xlink:href="#l" y1="-194.4527" y2="-194.4527"/><linearGradient id="s" gradientTransform="matrix(0 82.68 -82.68 0 -15515.1719 56527.4648)" gradientUnits="userSpaceOnUse" x1="-678.4582" x2="-677.8385" xlink:href="#l" y1="-194.262" y2="-194.262"/><linearGradient id="t"><stop offset="0" stop-color="#b5fc4c"/><stop offset="1" stop-color="#00bc64"/></linearGradient><linearGradient id="u" gradientTransform="matrix(0 54.56 -317.04 0 -61290.3477 37624.0547)" gradientUnits="userSpaceOnUse" x1="-678.438" x2="-677.8182" xlink:href="#t" y1="-195.1543" y2="-195.1543"/><linearGradient id="v" gradientTransform="matrix(0 210.33 -202.06 0 -38952.4102 143224.4844)" gradientUnits="userSpaceOnUse" x1="-680.0658" x2="-679.446" xlink:href="#i" y1="-195.2906" y2="-195.2906"/><linearGradient id="w" gradientTransform="matrix(0 60.05 -40.27 0 -7438.6562 40655.8477)" gradientUnits="userSpaceOnUse" x1="-674.3278" x2="-673.7079" y1="-195.1733" y2="-195.1733"><stop offset="0" stop-color="#ff5252"/><stop offset="1" stop-color="#f10d5a"/></linearGradient><linearGradient id="x" gradientTransform="matrix(0 36.73 -27.81 0 -5015.2021 24755.2871)" gradientUnits="userSpaceOnUse" x1="-669.3266" x2="-668.7068" xlink:href="#n" y1="-195.4756" y2="-195.4756"/><linearGradient id="y" gradientTransform="matrix(0 180.72 -80.75 0 -15199.9111 122919.7969)" gradientUnits="userSpaceOnUse" x1="-679.494" x2="-678.8743" xlink:href="#p" y1="-194.6734" y2="-194.6734"/><linearGradient id="z" gradientTransform="matrix(0 64.07 -48.3 0 -8862.542 43358.8633)" gradientUnits="userSpaceOnUse" x1="-674.5741" x2="-673.9543" xlink:href="#n" y1="-194.2546" y2="-194.2546"/><linearGradient id="A" gradientTransform="matrix(0 63.02 -130.31 0 -24708.2832 42882.957)" gradientUnits="userSpaceOnUse" x1="-675.8667" x2="-675.247" xlink:href="#t" y1="-194.4487" y2="-194.4487"/><linearGradient id="B" gradientTransform="matrix(0 36.73 -27.81 0 -4679.7334 24957.1172)" gradientUnits="userSpaceOnUse" x1="-671.4033" x2="-670.7642" xlink:href="#n" y1="-190.9408" y2="-190.9408"/><linearGradient id="C" gradientTransform="matrix(0 1042.6 -919.69 0 -179457.125 711342.625)" gradientUnits="userSpaceOnUse" x1="-681.9578" x2="-681.3187" xlink:href="#a" y1="-195.6294" y2="-195.6294"/><g clip-rule="evenodd" fill-rule="evenodd"><path d="m30.6 661.9c-16.4 94.9 21.5 328.9 311 328.9 189.7 0 268.9-126.4 366.5-209.7s288.6-107.7 288.6-353.1-231.1-375.4-426-331c-196.3 44.7-227.1 151.5-316.1 275s-187.7 80.1-224 289.9zm698.5 140.6c-31.1 22-45.5 69.6-27.6 90.9 24.8 29.4 79.4 15.6 105.2-8.9 33.6-31.9 32.7-71.3 19.1-85.2-21.4-21.9-61.4-21.8-96.7 3.2zm-504-441.8c67-80.3 63-155.4 22.6-184.3s-131.5 1.3-176.4 62.2-59.9 136-24 180.5c20.6 25.4 93 43.4 177.8-58.4z" fill="#d6eaff"/><path d="m327.9 262.2v53.4h361.1v-89.2h56.8v-63.7h84v87.5h47.3v-29.7h50.4c42.6 54.3 69.2 124.3 69.2 207.5 0 57.9-10.6 103.6-28.2 140.5h-911.7c46.5-106.1 125.2-96 197.7-196.5 27.9-38.8 50.1-75.8 73.4-109.8zm-86.2-29.3h35c2.6 35.2-12.3 80.6-51.6 127.8-84.9 101.8-157.1 83.8-177.7 58.4-36-44.5-20.9-119.6 24-180.5 1.9-2.6 3.9-5.1 6-7.6h32.1v29.9h51.9v-76.9h80.4v48.9z" fill="#b3d8ff"/><path d="m923 634.5h-319.8v-102.5c147.1 0 147.1-91 294.2-91 42.7 0 73.1 7.7 98.2 18.6-5.8 80.5-34.3 134.6-72.6 174.9zm-737.4-193.5c142.5 1.9 144 91 289.6 91v102.5h-439.2c29.3-130.9 87.3-147.7 149.6-193.5z" fill="#72b3f3"/><path d="m816.2 390.3c-23.2-30.9-16.9-74.7 14-97.9s74.7-16.9 97.9 14c18.7 24.9 18.7 59.1 0 84 41.2 30.9 49.6 89.3 18.7 130.5s-89.3 49.6-130.5 18.7-49.6-89.3-18.7-130.5c5.2-7.2 11.5-13.5 18.6-18.8z" fill="#4399ef"/><path d="m872.1 306.8c1.2 0 2.4.5 3.3 1.4s1.4 2.1 1.4 3.3v126.8l27-27.1c1.8-1.8 4.7-1.9 6.6-.1 0 0 0 0 .1.1 1.8 1.8 1.8 4.8 0 6.6l-33.6 33.8v212.6h-9.4v-134.6l-43.6-44c-1.8-1.8-1.8-4.8 0-6.6 1.8-1.8 4.7-1.9 6.6-.1 0 0 0 0 .1.1l37 37.2v-142.6l-21.8-22.1c-1.8-1.8-1.8-4.8 0-6.7 1.8-1.8 4.7-1.9 6.5-.1 0 0 .1.1.1.1l15.2 15.4v-48.8c-.2-2.5 1.9-4.6 4.5-4.6z" fill="#d6eaff"/><path d="m220.1 412c29.5 42.8 18.7 101.3-24.1 130.8-15.5 10.6-33.7 16.4-52.5 16.6-25 0-48.9-10-66.3-27.9 38.5-56 90.8-68.9 142.9-119.5zm-162.3 16.3c6.5-15 16.7-28.1 29.7-38-23.2-30.9-17-74.7 13.9-97.9s74.7-17 97.9 13.9c17.2 22.9 18.7 54 3.8 78.4-64.5 64.1-119.3 60.6-145.3 43.6z" fill="#4399ef"/><path d="m148.1 466.7v49.6l37-37.2c1.8-1.8 4.8-1.9 6.6-.1 0 0 0 0 .1.1 1.8 1.8 1.8 4.8 0 6.6l-43.6 44v162.1h-9.4v-218.8c3-2.1 6.2-4.2 9.3-6.3zm-25.5-31.3-17.4-17.6c-1.8-1.8-1.8-4.8 0-6.7 1.8-1.8 4.7-1.9 6.6-.1 0 0 0 0 .1.1l20.9 21.1c-3.5 1.2-6.9 2.3-10.2 3.2zm16.2-5.5v-118.4c0-1.2.5-2.4 1.4-3.3s2.1-1.4 3.3-1.4c2.6 0 4.7 2.1 4.7 4.7v48.8l15.2-15.4c1.8-1.8 4.7-1.9 6.5-.1 0 0 .1.1.1.1 1.8 1.8 1.8 4.8 0 6.7l-21.8 22.1v52c-3.2 1.5-6.4 2.9-9.4 4.2z" fill="#d6eaff"/><path d="m48.6 589.7c18.6-12.1 43.4-8 57.1 9.4 14.6-18.6 41.5-21.9 60.1-7.2 2.7 2.1 5.1 4.6 7.2 7.2 14.6-18.6 41.5-21.9 60.1-7.3 2.7 2.1 5.1 4.6 7.3 7.3 14.6-18.6 41.6-21.9 60.2-7.2 10.4 8.1 16.4 20.6 16.4 33.7v82.3h-288v-35.3c.4-3.7.9-7.3 1.5-10.7 4.1-24.5 10.1-48.7 18.1-72.2zm776.4 118.1h-118.2v-82.2-2.2c1.2-23.7 21.4-41.8 45-40.6 12.4.6 23.9 6.6 31.5 16.3 14.6-18.6 41.5-21.9 60.1-7.3 2.7 2.1 5.1 4.6 7.3 7.3 14.6-18.6 41.5-21.9 60.1-7.2 2.7 2.1 5.1 4.6 7.2 7.2 8.1-10.3 20.5-16.4 33.7-16.4 2.9 0 5.9.3 8.8.9-32.8 58.9-84.2 94.3-135.5 124.2z" fill="#4399ef"/><path d="m853.5 690.5c-51.2 32.9-105.9 57-145.4 90.6-97.6 83.3-176.8 209.7-366.5 209.7-263.7 0-318.7-194-314-300.3zm-124.4 112c-31.1 22-45.5 69.6-27.6 90.9 24.8 29.4 79.4 15.6 105.2-8.9 33.6-31.9 32.7-71.3 19.1-85.2-21.4-21.9-61.4-21.8-96.7 3.2z" fill="#99cbff"/><path d="m853.5 690.5c-34.1 22-69.9 39.9-101.6 59.5h-720.9c-3.1-19.7-4.2-39.6-3.4-59.5z" fill="#d6eaff"/><path d="m114.1 914.1 56.5-96.7c5.2-8.9 8.8-18.6 10.7-28.7l53.2-278.7c2.4-12.7 8-24.6 16.3-34.6l128-154.7 154.8 377.7s-33.2 120.4-111.3 208.5l-15.5 78.5c-21.5 3.7-43.3 5.5-65.1 5.4-106.8 0-179.4-31.9-227.6-76.7z" fill="url(#b)"/><path d="m325.3 606.3-15.5 15.5c-4.5 4.5-11.7 4.5-16.2 0-3.1-3.1-4.2-7.7-2.7-11.8l34.4-98z" fill="url(#d)"/><path d="m761.1 393.4c0-18.4-14.9-33.3-33.2-33.3h-36.1v66.5h36.1c18.3.1 33.2-14.8 33.2-33.2z" fill="url(#e)"/><path d="m766.1 495.9c0-18.4-14.9-33.3-33.3-33.3h-36.1v66.5h36.1c18.4.1 33.3-14.8 33.3-33.2z" fill="url(#f)"/><path d="m756.3 631.2c0-17.5-10.9-33.2-27.4-39.2l-32.2-11.8v66.5l24.5 9c13.5 5 28.5-2 33.5-15.5 1-2.9 1.6-6 1.6-9z" fill="url(#g)"/><path d="m523.8 727.8c-5.8 16.1-14.3 37.5-25.7 61.4l-61.4-61.4z" fill="url(#h)"/><path d="m714.6 80c0-25.8-20.9-46.8-46.8-46.8h-295.8c-25.9 0-46.8 21-46.8 46.8v601c0 25.8 20.9 46.8 46.8 46.8h295.8c25.8 0 46.8-20.9 46.8-46.8z" fill="url(#j)"/><path d="m684.7 647.9c0 12.9-10.5 23.4-23.4 23.4h-282.6c-12.9 0-23.4-10.4-23.4-23.4 0 0 0 0 0-.1v-563c0-12.9 10.5-23.4 23.4-23.4h46.6c10.3 0 19.6 6.1 23.7 15.5 4.1 9.4 13.4 15.5 23.7 15.5h94.5c10.3 0 19.6-6.1 23.7-15.5 4.1-9.4 13.4-15.5 23.7-15.5h46.6c12.9 0 23.4 10.5 23.4 23.4z" fill="url(#k)"/><path d="m630.8 61.4h15.6v57h38.2v15.5h-81.3v45.2l33.1 33 48.3-48.3v22.1l-37.2 37.2 17.4 17.4h19.7v15.6h-156.9v45.5h156.9v15.6h-46.5v45.5h46.5v15.6h-329.3v-15.6h49.5l45.5-45.5h-95.1v-15.6h57.9v-74h-57.9v-15.6h57.9v-78h-57.9v-15.6h16.2l56.8-56.8c5.6.7 10.9 3.2 15 7.1l-49.7 49.7h83.5v-25.8h15.6v25.8h138.2zm-8.3 256h-150.1l-45.5 45.5h100.4v-29.5h15.5v29.6h79.7zm-110.4-61.1h-83.3v45.5h83.3zm0-66.2h-83.3v50.5h83.3zm80.2 0h-64.6v50.5h115.1zm-80.2-56.1h-83.3v40.5h83.3zm75.6 0h-60v40.5h60z" fill="url(#m)"/><path d="m658.2 418.6c0-7-5.7-12.7-12.7-12.7 0 0 0 0-.1 0h-251c-7 0-12.7 5.7-12.8 12.7v.1 252.7h276.5v-252.8z" fill="url(#o)"/></g><circle cx="438.7" cy="456.4" fill="url(#q)" r="28"/><path clip-rule="evenodd" d="m629.2 445c0-3.2-2.6-5.8-5.8-5.8h-122.4c-3.2 0-5.8 2.6-5.8 5.8 0 3.2 2.6 5.8 5.8 5.8h122.4c3.2 0 5.8-2.6 5.8-5.8z" fill="url(#r)" fill-rule="evenodd"/><path clip-rule="evenodd" d="m597.7 467.8c0-3.2-2.6-5.8-5.8-5.8h-90.9c-3.2 0-5.8 2.6-5.8 5.8 0 3.2 2.6 5.8 5.8 5.8h90.9c3.2 0 5.8-2.6 5.8-5.8z" fill="url(#s)" fill-rule="evenodd"/><path clip-rule="evenodd" d="m629.2 626.9c0-9.4-7.6-17-17-17h-61.6c-9.4 0-17 7.6-17 17s7.6 17 17 17h61.6c9.4 0 17-7.6 17-17z" fill="url(#u)" fill-rule="evenodd"/><path clip-rule="evenodd" d="m524.7 309.6c0 2.6-2.1 4.7-4.7 4.7-2.6 0-4.7-2.1-4.7-4.7 0-2.6 2.1-4.7 4.7-4.7 2.6 0 4.7 2.1 4.7 4.7zm37.5 0c0 2.6-2 4.6-4.6 4.7h-.1c-1.2 0-2.4-.5-3.3-1.4s-1.4-2.1-1.4-3.3c0-1.2.5-2.4 1.4-3.3s2.1-1.4 3.3-1.4c2.6 0 4.7 2.1 4.7 4.7zm18.7 0c0 2.6-2.1 4.7-4.7 4.7-2.6 0-4.7-2.1-4.7-4.7 0-2.6 2.1-4.7 4.7-4.7 2.6 0 4.7 2.1 4.7 4.7zm18.7 0c0 1.2-.5 2.4-1.4 3.3s-2.1 1.4-3.3 1.4c-2.6 0-4.7-2.1-4.7-4.6 0-1.2.5-2.4 1.4-3.3s2.1-1.4 3.3-1.4c1.2 0 2.4.5 3.3 1.4.9.7 1.4 1.9 1.4 3.2zm-56.1 0c0 1.2-.5 2.4-1.4 3.3s-2.1 1.4-3.3 1.4c-2.6 0-4.7-2.1-4.7-4.6 0-2.6 2.1-4.7 4.7-4.7 1.2 0 2.4.5 3.3 1.4.9.8 1.4 2 1.4 3.2zm-18.9-18.7c0 2.6-2.1 4.7-4.7 4.7-1.2 0-2.4-.5-3.3-1.4s-1.4-2.1-1.4-3.3c0-2.6 2.1-4.7 4.6-4.7 2.7.1 4.8 2.2 4.8 4.7zm0-18.7c0 1.2-.5 2.4-1.4 3.3s-2.1 1.4-3.3 1.4c-2.6 0-4.7-2.1-4.7-4.7 0-2.6 2.1-4.7 4.7-4.7 2.6 0 4.7 2.1 4.7 4.7zm-9.3-19.1h-94.3c-.7 0-1.4-.2-2-.5-1.3-.6-2.2-1.8-2.5-3.2-.1-.3-.1-.7-.1-1v-61.1c0-.8.2-1.5.5-2.2.5-1 1.4-1.8 2.5-2.2.7-.3 1.5-.4 2.2-.3l1.1.3c1.4.6 2.4 1.8 2.8 3.2.1.4.1.7.1 1.1v56.4h94.4l1 .1c2.1.5 3.6 2.4 3.6 4.6v3.9.4.7c0 1.2-.5 2.4-1.4 3.3s-2.1 1.4-3.3 1.4c-2.6 0-4.6-2-4.7-4.6v-.1-.3z" fill="url(#v)" fill-rule="evenodd"/><circle cx="421" cy="182.3" fill="url(#w)" r="19.7"/><circle cx="421" cy="182.3" fill="url(#x)" r="11.2"/><path clip-rule="evenodd" d="m517.4 228.3c-4.4-5-8.2-9.7-11.5-14.1s-6.6-9.2-9.9-14.5c-3.5-5.5-6.5-11.4-9-17.4-2.5-5.7-4.1-11.8-4.9-18-.2-1.7-.2-3.3-.2-4.9.5-21 17.9-37.7 39-37.2 20.4.5 36.8 16.9 37.2 37.2 0 1.4 0 3-.2 4.7-.8 6.3-2.5 12.4-5 18.2-2.5 5.9-5.3 11.6-8.6 17.1-3 4.9-6.4 9.9-10.1 14.9-3.8 5-6.3 8.4-7.7 10.1s-2.6 3-3.4 3.9c-.5.6-1 1.1-1.7 1.5-.7.3-1.4.3-2.1 0-.8-.4-1.3-.9-1.9-1.5z" fill="url(#y)" fill-rule="evenodd"/><path clip-rule="evenodd" d="m500.6 159.5c-.1 5.2 2 10.1 5.7 13.7 7.5 7.6 19.8 7.6 27.4.1 0 0 0 0 .1-.1 7.5-7.6 7.5-19.9 0-27.5s-19.8-7.6-27.4-.1c0 0 0 0-.1.1-3.8 3.6-5.8 8.6-5.7 13.8z" fill="url(#z)" fill-rule="evenodd"/><circle cx="630.3" cy="308.3" fill="url(#A)" r="19.7"/><circle cx="630.3" cy="308.3" fill="url(#B)" r="11.2"/><path clip-rule="evenodd" d="m559.4 66.7c0-2.9-2.3-5.2-5.2-5.2h-.1-68.3c-2.9 0-5.3 2.3-5.3 5.2 0 2.9 2.3 5.2 5.2 5.2h68.3c3 0 5.3-2.3 5.4-5.2z" fill="#1f4b93" fill-rule="evenodd"/><path clip-rule="evenodd" d="m315.4 616.1 89.1-89.1c16.4-16.4 38.7-25.6 61.9-25.6h109.1c17.5 0 31.7 14.2 31.8 31.7 0 1.8-.2 3.6-.5 5.4-.5 3-1 6-1.5 8.7-1.9 11-9.3 20.1-19.7 24.2l-94.9 37.3-54.1 119v55.4h-121.2z" fill="url(#C)" fill-rule="evenodd"/></svg>