<svg enable-background="new 0 0 1024 1024" viewBox="0 0 1024 1024" xmlns="http://www.w3.org/2000/svg" xmlns:xlink="http://www.w3.org/1999/xlink"><linearGradient id="a"><stop offset="0" stop-color="#e6cbb0"/><stop offset="1" stop-color="#d3a77c"/></linearGradient><linearGradient id="b" gradientTransform="matrix(0 269.85 298.23 0 -141187.2344 1110069.625)" gradientUnits="userSpaceOnUse" x1="-4111.0479" x2="-4110.4385" xlink:href="#a" y1="475.9045" y2="475.9045"/><linearGradient id="c"><stop offset="0" stop-color="#ff5133"/><stop offset="1" stop-color="#ffbc56"/></linearGradient><linearGradient id="d" gradientTransform="matrix(0 -36.24 15.9 0 -10421.3633 -149631.3594)" gradientUnits="userSpaceOnUse" x1="-4141.3281" x2="-4140.6997" xlink:href="#c" y1="690.4992" y2="690.4992"/><linearGradient id="e"><stop offset="0" stop-color="#ff3a23"/><stop offset="1" stop-color="#ff963e"/></linearGradient><linearGradient id="f" gradientTransform="matrix(0 -311.07 150.55 0 -73158.8203 -1280306.75)" gradientUnits="userSpaceOnUse" x1="-4117.2876" x2="-4116.6587" xlink:href="#e" y1="488.7099" y2="488.7099"/><linearGradient id="g"><stop offset="0" stop-color="#ffddd3"/><stop offset=".54" stop-color="#fba"/><stop offset="1" stop-color="#ffae9a"/></linearGradient><linearGradient id="h" gradientTransform="matrix(0 87.52 -87.52 0 37525.2422 359442.25)" gradientUnits="userSpaceOnUse" x1="-4102.313" x2="-4101.6846" xlink:href="#g" y1="422.7598" y2="422.7598"/><linearGradient id="i" gradientTransform="matrix(0 198.74 -198.74 0 88518.0547 817701.9375)" gradientUnits="userSpaceOnUse" x1="-4110.2944" x2="-4109.6665" y1="444.7591" y2="444.7591"><stop offset="0" stop-color="#ff963e"/><stop offset="1" stop-color="#ff3a23"/></linearGradient><linearGradient id="j"><stop offset="0" stop-color="#2b5acc"/><stop offset="1" stop-color="#152873"/></linearGradient><linearGradient id="k" gradientTransform="matrix(0 771.01 -771.01 0 354363.8438 3171399)" gradientUnits="userSpaceOnUse" x1="-4112.7979" x2="-4112.188" xlink:href="#j" y1="459.2982" y2="459.2982"/><linearGradient id="l" gradientTransform="matrix(0 -81.06 99.06 0 -49423.4062 -333190.625)" gradientUnits="userSpaceOnUse" x1="-4122.6953" x2="-4122.085" xlink:href="#e" y1="502.0677" y2="502.0677"/><linearGradient id="m" gradientTransform="matrix(0 620.95 -620.95 0 284701.8125 2554234.25)" gradientUnits="userSpaceOnUse" x1="-4112.6333" x2="-4112.0234" xlink:href="#j" y1="458.1016" y2="458.1016"/><linearGradient id="n" gradientTransform="matrix(0 -444.97 153.3 0 -74675.9766 -1831097.25)" gradientUnits="userSpaceOnUse" x1="-4116.2344" x2="-4115.6064" xlink:href="#c" y1="488.868" y2="488.868"/><linearGradient id="o" gradientTransform="matrix(0 69.41 -69.41 0 28737.6328 284690.0625)" gradientUnits="userSpaceOnUse" x1="-4098.2339" x2="-4097.606" y1="410.102" y2="410.102"><stop offset="0" stop-color="#fff"/><stop offset="1" stop-color="#f0e7df"/></linearGradient><linearGradient id="p" gradientTransform="matrix(0 143.92 -143.92 0 63342.6094 591009.875)" gradientUnits="userSpaceOnUse" x1="-4105.6733" x2="-4105.0635" xlink:href="#j" y1="438.0738" y2="438.0738"/><linearGradient id="q" gradientTransform="matrix(0 207.39 -207.39 0 92794.9453 852206.75)" gradientUnits="userSpaceOnUse" x1="-4108.4565" x2="-4107.8467" xlink:href="#g" y1="446.037" y2="446.037"/><linearGradient id="r" gradientTransform="matrix(.01433852 227.6611 -227.6611 .01433852 102254.1016 935596.1875)" gradientUnits="userSpaceOnUse" x1="-4108.9419" x2="-4108.332" xlink:href="#g" y1="447.7903" y2="447.7903"/><linearGradient id="s" gradientTransform="matrix(-42.49 0 0 40.38 -178263.7031 -19613.3809)" gradientUnits="userSpaceOnUse" x1="-4202.4932" x2="-4201.8828" y1="491.9248" y2="491.9248"><stop offset="0" stop-color="#f58b71"/><stop offset="1" stop-color="#fca289"/></linearGradient><linearGradient id="t" gradientTransform="matrix(0 -311.07 184.34 0 -89071.2969 -1280306.75)" gradientUnits="userSpaceOnUse" x1="-4117.2876" x2="-4116.6587" xlink:href="#e" y1="484.6846" y2="484.6846"/><linearGradient id="u" gradientTransform="matrix(0 32.51 205.16 0 -98439.4922 133196.8594)" gradientUnits="userSpaceOnUse" x1="-4082.9146" x2="-4082.3049" xlink:href="#j" y1="482.0521" y2="482.0521"/><linearGradient id="v" gradientTransform="matrix(0 87.52 -87.52 0 37344.1719 359438.9688)" gradientUnits="userSpaceOnUse" x1="-4102.2891" x2="-4101.6792" xlink:href="#g" y1="421.969" y2="421.969"/><linearGradient id="w" gradientTransform="matrix(91.83 342.71 362.73 -97.19 206552.7344 1454346.125)" gradientUnits="userSpaceOnUse" x1="-4108.6763" x2="-4108.0664" xlink:href="#j" y1="472.5727" y2="472.5727"/><linearGradient id="x"><stop offset="0" stop-color="#e1f2ff"/><stop offset="1" stop-color="#95d2ff"/></linearGradient><linearGradient id="y" gradientTransform="matrix(39.15 146.12 171.67 -46 78533.9297 621812.6875)" gradientUnits="userSpaceOnUse" x1="-4101.3726" x2="-4100.7441" xlink:href="#x" y1="481.8007" y2="481.8007"/><linearGradient id="z" gradientTransform="matrix(-93.82 362.92 -362.92 -93.82 -220258.375 1535936.625)" gradientUnits="userSpaceOnUse" x1="-4113.7559" x2="-4113.1465" xlink:href="#x" y1="454.5511" y2="454.5511"/><linearGradient id="A" gradientTransform="matrix(-60.43 139.05 -139.05 -60.43 -186943.5781 599627.5625)" gradientUnits="userSpaceOnUse" x1="-4117.5459" x2="-4116.936" xlink:href="#x" y1="440.2661" y2="440.2661"/><linearGradient id="B" gradientTransform="matrix(13.35 49.83 53.35 -14.3 27405.0684 211272.25)" gradientUnits="userSpaceOnUse" x1="-4079.0149" x2="-4078.3862" xlink:href="#j" y1="520.7543" y2="520.7543"/><linearGradient id="C" gradientTransform="matrix(8.1 30.22 148.97 -39.92 -38595.3672 142521.2344)" gradientUnits="userSpaceOnUse" x1="-4056.8215" x2="-4056.2119" xlink:href="#j" y1="484.6004" y2="484.6004"/><linearGradient id="D"><stop offset="0" stop-color="#ffbc56"/><stop offset="1" stop-color="#ff5133"/></linearGradient><linearGradient id="E" gradientTransform="matrix(55.06 205.48 -205.48 55.06 318848.5 819124.25)" gradientUnits="userSpaceOnUse" x1="-4105.0894" x2="-4104.479" xlink:href="#D" y1="449.0135" y2="449.0135"/><linearGradient id="F" gradientTransform="matrix(0 31.73 344.66 0 -162742.8594 130374.4688)" gradientUnits="userSpaceOnUse" x1="-4087.7529" x2="-4087.1431" xlink:href="#x" y1="474.3317" y2="474.3317"/><linearGradient id="G" gradientTransform="matrix(0 256.03 271.19 0 -128633.3594 1052927.75)" gradientUnits="userSpaceOnUse" x1="-4110.4531" x2="-4109.8433" xlink:href="#j" y1="477.0591" y2="477.0591"/><linearGradient id="H" gradientTransform="matrix(0 111.77 123.43 0 -60044.0977 459448.3438)" gradientUnits="userSpaceOnUse" x1="-4105.7861" x2="-4105.1763" xlink:href="#x" y1="492.4603" y2="492.4603"/><linearGradient id="I" gradientTransform="matrix(-128.17 241.06 -226.59 -136.36 -424801.4375 1054702)" gradientUnits="userSpaceOnUse" x1="-4117.6875" x2="-4117.0776" xlink:href="#x" y1="451.0583" y2="451.0952"/><linearGradient id="J" gradientTransform="matrix(-68.43 86.07 -86.07 -68.43 -244393.3438 385618.9688)" gradientUnits="userSpaceOnUse" x1="-4127.6318" x2="-4127.0034" xlink:href="#x" y1="434.0855" y2="434.0855"/><linearGradient id="K" gradientTransform="matrix(-157.99 209.66 115.34 86.92 -706354.1875 821774.125)" gradientUnits="userSpaceOnUse" x1="-4119.3989" x2="-4118.7705" xlink:href="#j" y1="487.6298" y2="487.6298"/><linearGradient id="L" gradientTransform="matrix(-130.44 173.1 90.95 68.54 -581715.5625 679933.375)" gradientUnits="userSpaceOnUse" x1="-4120.4536" x2="-4119.8252" xlink:href="#x" y1="493.8957" y2="493.8957"/><linearGradient id="M" gradientTransform="matrix(-147.7 55.52 -55.52 -147.7 -584791.375 296642.4375)" gradientUnits="userSpaceOnUse" x1="-4133.0767" x2="-4132.4482" xlink:href="#x" y1="450.7847" y2="450.7847"/><linearGradient id="N" gradientTransform="matrix(-79.76 94.82 -102.81 -69.16 -283304.75 421754.75)" gradientUnits="userSpaceOnUse" x1="-4123.644" x2="-4123.0347" xlink:href="#D" y1="437.1482" y2="437.0742"/><linearGradient id="O" gradientTransform="matrix(0 -130.99 -36.7 0 13876.0361 -539170.6875)" gradientUnits="userSpaceOnUse" x1="-4121.0483" x2="-4120.4385" xlink:href="#c" y1="364.9074" y2="364.9074"/><linearGradient id="P" gradientTransform="matrix(0 30.77 -113.29 0 49510.9258 126453.7188)" gradientUnits="userSpaceOnUse" x1="-4086.178" x2="-4085.5679" xlink:href="#j" y1="432.326" y2="432.326"/><linearGradient id="Q" gradientTransform="matrix(0 24.96 -64.87 0 27035.5117 102424.1406)" gradientUnits="userSpaceOnUse" x1="-4078.9011" x2="-4078.2725" xlink:href="#j" y1="408.5523" y2="408.5523"/><linearGradient id="R" gradientTransform="matrix(0 -25.01 -77.95 0 33101.8203 -103332.5)" gradientUnits="userSpaceOnUse" x1="-4151.5386" x2="-4150.9287" xlink:href="#c" y1="417.8205" y2="417.8205"/><linearGradient id="S" gradientTransform="matrix(0 14.47 -53.06 0 21551.4238 59083.0352)" gradientUnits="userSpaceOnUse" x1="-4046.7117" x2="-4046.0833" xlink:href="#j" y1="396.1307" y2="396.1307"/><linearGradient id="T" gradientTransform="matrix(0 165.2 -96.28 0 41616.7188 679224.375)" gradientUnits="userSpaceOnUse" x1="-4108.4307" x2="-4107.8208" xlink:href="#x" y1="426.7138" y2="426.7138"/><linearGradient id="U" gradientTransform="matrix(-54.19 103.59 -103.59 -54.19 -177932.6875 450968.5625)" gradientUnits="userSpaceOnUse" x1="-4121.5308" x2="-4120.9023" xlink:href="#x" y1="433.1378" y2="433.1378"/><linearGradient id="V" gradientTransform="matrix(0 77.95 -77.95 0 33101.8203 320482.0312)" gradientUnits="userSpaceOnUse" x1="-4102.7021" x2="-4102.0923" xlink:href="#D" y1="417.8205" y2="417.8205"/><linearGradient id="W" gradientTransform="matrix(0 46.71 -31.53 0 11555.0781 191960.7812)" gradientUnits="userSpaceOnUse" x1="-4095.385" x2="-4094.7751" xlink:href="#x" y1="349.5833" y2="349.5833"/><linearGradient id="X" gradientTransform="matrix(0 25.65 -25.65 0 8826.2715 105312.1719)" gradientUnits="userSpaceOnUse" x1="-4080.0869" x2="-4079.4587" xlink:href="#j" y1="323.3355" y2="323.3355"/><linearGradient id="Y" gradientTransform="matrix(133.32 115.37 47.5 -54.89 523779.7188 499811.3125)" gradientUnits="userSpaceOnUse" x1="-4096.0049" x2="-4095.377" xlink:href="#j" y1="485.8477" y2="485.8477"/><linearGradient id="Z" gradientTransform="matrix(109.77 94.98 33.74 -38.99 433277.5312 408582.0938)" gradientUnits="userSpaceOnUse" x1="-4092.0996" x2="-4091.4897" xlink:href="#x" y1="495.2616" y2="495.2616"/><linearGradient id="aa" gradientTransform="matrix(20.85 70.81 -70.81 20.85 116054.0234 281388.75)" gradientUnits="userSpaceOnUse" x1="-4089.7026" x2="-4089.0745" xlink:href="#x" y1="422.9449" y2="422.9449"/><linearGradient id="ab"><stop offset="0" stop-color="#e6f7ff"/><stop offset="1" stop-color="#66beff"/></linearGradient><linearGradient id="ac" gradientTransform="matrix(0 8.4 125.93 0 -61174.3164 34275.9844)" gradientUnits="userSpaceOnUse" x1="-4008.0222" x2="-4007.4124" xlink:href="#ab" y1="491.7932" y2="491.7932"/><linearGradient id="ad" gradientTransform="matrix(0 10.85 125.93 0 -61190.7617 44343.2734)" gradientUnits="userSpaceOnUse" x1="-4032.5835" x2="-4031.9734" xlink:href="#ab" y1="491.8432" y2="491.8432"/><linearGradient id="ae" gradientTransform="matrix(0 -99.05 -26.2 0 9297.8428 -407659.3125)" gradientUnits="userSpaceOnUse" x1="-4122.687" x2="-4122.0771" xlink:href="#e" y1="329.477" y2="329.477"/><linearGradient id="af"><stop offset="0" stop-color="#85d1fe"/><stop offset="1" stop-color="#4a7ee8"/></linearGradient><linearGradient id="ag" gradientTransform="matrix(0 27.79 -38.07 0 14805.8564 114042.2578)" gradientUnits="userSpaceOnUse" x1="-4082.1479" x2="-4081.52" xlink:href="#af" y1="371.4297" y2="371.4297"/><linearGradient id="ah" gradientTransform="matrix(0 -99.05 -72.8 0 31027.1758 -407659.3125)" gradientUnits="userSpaceOnUse" x1="-4122.687" x2="-4122.0771" xlink:href="#c" y1="416.2483" y2="416.2483"/><linearGradient id="ai" gradientTransform="matrix(0 27.79 -105.79 0 46338.875 114042.2578)" gradientUnits="userSpaceOnUse" x1="-4082.1479" x2="-4081.52" xlink:href="#x" y1="431.1808" y2="431.1808"/><linearGradient id="aj" gradientTransform="matrix(0 30.29 -14.23 0 3788.1819 124370.6797)" gradientUnits="userSpaceOnUse" x1="-4085.7478" x2="-4085.1382" xlink:href="#x" y1="217.4935" y2="217.4935"/><linearGradient id="ak" gradientTransform="matrix(0 115.79 -54.56 0 22550.8711 476120.2188)" gradientUnits="userSpaceOnUse" x1="-4106.3198" x2="-4105.71" xlink:href="#af" y1="400.1159" y2="400.1159"/><linearGradient id="al" gradientTransform="matrix(0 115.79 -68.08 0 28867.8477 476120.2188)" gradientUnits="userSpaceOnUse" x1="-4106.3198" x2="-4105.71" xlink:href="#x" y1="413.0772" y2="413.0772"/><linearGradient id="am" gradientTransform="matrix(0 81.86 -48.13 0 19606.4355 336539.125)" gradientUnits="userSpaceOnUse" x1="-4103.23" x2="-4102.6016" xlink:href="#j" y1="391.8737" y2="391.8737"/><linearGradient id="an"><stop offset="0" stop-color="#152873"/><stop offset="1" stop-color="#2b5acc"/></linearGradient><linearGradient id="ao" gradientTransform="matrix(0 45.9 -26.99 0 9793.7061 188613.8594)" gradientUnits="userSpaceOnUse" x1="-4094.8035" x2="-4094.1936" xlink:href="#an" y1="335.2409" y2="335.2409"/><linearGradient id="ap" gradientTransform="matrix(0 -80.47 35.77 0 -19765.748 -330836.375)" gradientUnits="userSpaceOnUse" x1="-4122.8833" x2="-4122.2549" xlink:href="#e" y1="566.0345" y2="566.0345"/><linearGradient id="aq" gradientTransform="matrix(0 101.99 62.96 0 -32433.8848 419766.5312)" gradientUnits="userSpaceOnUse" x1="-4106.9302" x2="-4106.3203" xlink:href="#j" y1="522.3912" y2="522.3912"/><linearGradient id="ar" gradientTransform="matrix(0 -80.47 35.77 0 -19796.207 -330836.375)" gradientUnits="userSpaceOnUse" x1="-4122.8833" x2="-4122.2549" xlink:href="#c" y1="566.3597" y2="566.3597"/><linearGradient id="as" gradientTransform="matrix(0 -80.47 35.77 0 -19485.7285 -330836.375)" gradientUnits="userSpaceOnUse" x1="-4122.8833" x2="-4122.2549" xlink:href="#e" y1="563.0421" y2="563.0421"/><linearGradient id="at" gradientTransform="matrix(0 101.99 62.96 0 -32153.8652 419766.5312)" gradientUnits="userSpaceOnUse" x1="-4106.9302" x2="-4106.3203" xlink:href="#j" y1="520.691" y2="520.691"/><linearGradient id="au" gradientTransform="matrix(0 -80.47 35.77 0 -19516.1875 -330836.375)" gradientUnits="userSpaceOnUse" x1="-4122.8833" x2="-4122.2549" xlink:href="#c" y1="563.3675" y2="563.3675"/><linearGradient id="av" gradientTransform="matrix(0 -80.47 35.77 0 -19189.8574 -330836.375)" gradientUnits="userSpaceOnUse" x1="-4122.8833" x2="-4122.2549" xlink:href="#e" y1="559.8801" y2="559.8801"/><linearGradient id="aw" gradientTransform="matrix(0 101.99 62.96 0 -31857.9941 419766.5312)" gradientUnits="userSpaceOnUse" x1="-4106.9302" x2="-4106.3203" xlink:href="#j" y1="518.8946" y2="518.8946"/><linearGradient id="ax" gradientTransform="matrix(0 -80.47 35.77 0 -19220.3184 -330836.375)" gradientUnits="userSpaceOnUse" x1="-4122.8833" x2="-4122.2549" xlink:href="#c" y1="560.2057" y2="560.2057"/><linearGradient id="ay"><stop offset="0" stop-color="#f7e9dd"/><stop offset="1" stop-color="#e6c2a2"/></linearGradient><linearGradient id="az" gradientTransform="matrix(0 707.54 557.69 0 -261935.3906 2910351.25)" gradientUnits="userSpaceOnUse" x1="-4112.7178" x2="-4112.1074" xlink:href="#ay" y1="470.6815" y2="470.6815"/><linearGradient id="aA"><stop offset="0" stop-color="#eb4022"/><stop offset="1" stop-color="#ffbc56"/></linearGradient><linearGradient id="aB" gradientTransform="matrix(43.65 -170.59 -77.04 -19.71 212804.4531 -693056.4375)" gradientUnits="userSpaceOnUse" x1="-4114.4272" x2="-4113.8169" xlink:href="#aA" y1="419.8462" y2="419.8462"/><linearGradient id="aC" gradientTransform="matrix(24.81 -92.61 -68.07 -18.24 131180.6406 -372890.375)" gradientUnits="userSpaceOnUse" x1="-4114.4009" x2="-4113.772" xlink:href="#c" y1="415.1173" y2="415.1173"/><linearGradient id="aD" gradientTransform="matrix(24.83 -92.66 -23.59 -6.32 110496.0859 -378565.2812)" gradientUnits="userSpaceOnUse" x1="-4114.0918" x2="-4113.4819" xlink:href="#c" y1="318.7783" y2="318.7783"/><linearGradient id="aE" gradientTransform="matrix(-38.92 142.52 -52.85 -14.43 -138124.9062 592603.75)" gradientUnits="userSpaceOnUse" x1="-4114.0312" x2="-4113.4023" xlink:href="#j" y1="399.8277" y2="399.8277"/><linearGradient id="aF" gradientTransform="matrix(-24.77 92.45 -46.98 -12.59 -82644.3984 385812.3438)" gradientUnits="userSpaceOnUse" x1="-4113.9375" x2="-4113.3271" xlink:href="#j" y1="391.4846" y2="391.4846"/><linearGradient id="aG" gradientTransform="matrix(-14.58 54.4 -26.07 -6.99 -50413.1914 226698.625)" gradientUnits="userSpaceOnUse" x1="-4113.8857" x2="-4113.2754" xlink:href="#an" y1="333.8855" y2="333.8855"/><linearGradient id="aH" gradientTransform="matrix(0 470.04 370.49 0 -174737.5469 1933245.875)" gradientUnits="userSpaceOnUse" x1="-4112.0039" x2="-4111.376" xlink:href="#a" y1="473.7907" y2="473.7907"/><linearGradient id="aI" gradientTransform="matrix(0 707.54 557.69 0 -261935.3906 2910351.25)" gradientUnits="userSpaceOnUse" x1="-4112.7178" x2="-4112.1074" xlink:href="#ay" y1="470.6697" y2="470.6697"/><linearGradient id="aJ" gradientTransform="matrix(0 36.16 23.11 0 -14066.792 148201.3438)" gradientUnits="userSpaceOnUse" x1="-4086.3508" x2="-4085.7407" xlink:href="#j" y1="624.9081" y2="624.9081"/><linearGradient id="aK" gradientTransform="matrix(0 32.51 21.95 0 -13544.2617 133196.8594)" gradientUnits="userSpaceOnUse" x1="-4082.9146" x2="-4082.3049" xlink:href="#j" y1="633.6453" y2="633.6453"/><linearGradient id="aL" gradientTransform="matrix(-24.77 92.45 -34.28 -9.19 -88447.6641 384260.3438)" gradientUnits="userSpaceOnUse" x1="-4113.9224" x2="-4113.3125" xlink:href="#j" y1="365.5079" y2="365.5079"/><linearGradient id="aM" gradientTransform="matrix(43.65 -170.59 -77.04 -19.71 212804.4531 -693056.4375)" gradientUnits="userSpaceOnUse" x1="-4114.4272" x2="-4113.8169" xlink:href="#aA" y1="419.6607" y2="419.6607"/><linearGradient id="aN" gradientTransform="matrix(24.83 -92.66 -45.57 -12.21 120840.6797 -375883.375)" gradientUnits="userSpaceOnUse" x1="-4114.4497" x2="-4113.8213" xlink:href="#c" y1="389.9304" y2="389.9304"/><linearGradient id="aO" gradientTransform="matrix(24.81 -92.61 -68.07 -18.24 131180.6406 -372890.375)" gradientUnits="userSpaceOnUse" x1="-4114.4009" x2="-4113.772" xlink:href="#c" y1="414.5079" y2="414.5079"/><linearGradient id="aP" gradientTransform="matrix(24.83 -92.66 -32.32 -8.66 114698.8594 -377438.0938)" gradientUnits="userSpaceOnUse" x1="-4114.0981" x2="-4113.4697" xlink:href="#c" y1="359.786" y2="359.786"/><linearGradient id="aQ" gradientTransform="matrix(19.21 -71.7 -23.59 -6.32 87561 -292323.75)" gradientUnits="userSpaceOnUse" x1="-4113.8105" x2="-4113.2007" xlink:href="#D" y1="321.9868" y2="321.9868"/><path clip-rule="evenodd" d="m659.9 834.7c-66.3 9.8-114.2 42.1-107 72.2s66.9 46.5 133.1 36.7 114.2-42.1 107-72.1c-7.3-30-66.9-46.6-133.1-36.8zm337.2-349.5c7.8-226.8-167.7-343.9-371.8-313.8-127.7 18.9-169.7 99.9-302.6 163.7-118.5 56.9-274.6 90.5-295 284.9-12.3 118 76.2 268.3 232.9 268.3 202 0 216.2-126.4 466.9-126.4 150.7 0 263.4-97.2 269.6-276.7zm-783.8-382.1c-90.6 39-148.6 108.9-129.6 156s108 53.6 198.5 14.6 148.6-108.9 129.6-156-107.9-53.6-198.5-14.6z" fill="#cde6ff" fill-rule="evenodd"/><path clip-rule="evenodd" d="m974.2 602.6c-41.1 104.1-133.1 159.3-246.7 159.3-107.3 0-171.3 23.2-225.2 49.7h-410.7c-47.5-53.8-70.5-127.5-63.9-191.5.6-6 1.4-11.8 2.3-17.5z" fill="#9fcfff" fill-rule="evenodd"/><path clip-rule="evenodd" d="m183.7 602.6h-97.2c-1 0-1.9-.4-2.6-1.1s-1.1-1.6-1.1-2.6v-71c0-2 1.7-3.7 3.7-3.7h97.3v78.4z" fill="#b1d9ff" fill-rule="evenodd"/><path clip-rule="evenodd" d="m489.2 602.6h-97.3c-2 0-3.7-1.7-3.7-3.7v-71c0-1 .4-1.9 1.1-2.6s1.6-1.1 2.6-1.1h97.3z" fill="#b1d9ff" fill-rule="evenodd"/><path clip-rule="evenodd" d="m976.6 349.8c6.7 17.8 11.7 36.2 15 54.9h-819.2c38-21.5 79.3-37.9 118.3-54.9z" fill="#9fcfff" fill-rule="evenodd"/><path clip-rule="evenodd" d="m147.8 140.4h10.6c4.9 0 8.9 4 8.9 9h19.9c4.2 0 7.6 3.5 7.7 7.7 0 4.3-3.5 7.7-7.7 7.7v9.9h12.1c9.3.3 16.7 7.7 17 17v32.9c-.1 10.2-5.1 19.8-13.5 25.6-5.2 3.5-11.3 5.4-17.5 5.4h-6.2c-1.8 4-3.9 7.9-6.3 11.6v15.5h2.2c3.1 0 5.9 2 6.8 5l3.3 10.9c-32.2 2.3-59.9-2.5-78.8-14.1 1.3-1.2 3-1.8 4.8-1.8h2.2v-15.5c-9.4-14.7-14.4-31.7-14.4-49.1v-28.8c11.5-16.8 28.2-33.5 48.9-48.9zm39.3 46h9.6c4.3.1 7.7 3.5 7.9 7.8v28.3c-.3 11.7-9.6 21.1-21.3 21.6 2.5-8.4 3.8-17.2 3.8-26z" fill="#b1d9ff" fill-rule="evenodd"/><path clip-rule="evenodd" d="m449.3 255.8c53.3-39.1 99.1-73 176-84.4 59.9-8.8 117.3-5 168.4 10.6 0 38.3 0 76.7-.1 115.1-.2 5.9-5 10.7-10.9 10.9-42 .1-88.6.2-135.8.2v22.2h45.4v19.4h-141.5v-19.3h45.4v-22.2c-47.2 0-93.8-.1-135.8-.2-1 0-1.9-.1-2.9-.4-4.7-1.4-7.9-5.6-8-10.5-.1-13.9-.1-27.6-.2-41.4z" fill="#b1d9ff" fill-rule="evenodd"/><path clip-rule="evenodd" d="m864.2 213.5c51.7 31.5 91.3 79.5 112.4 136.3h-141.4c-2.6 0-4.6-2.1-4.6-4.6v-10.4c0-2.6 2.1-4.6 4.6-4.6h29.1v-116.7z" fill="#b1d9ff" fill-rule="evenodd"/><path d="m766.3 495.1v213.6" fill="none"/><path d="m628.6 564h349" fill="none"/><path d="m642.9 641.3h312.6" fill="none"/><path d="m681.3 485.6v223.1" fill="none"/><path d="m851.3 504.6v204.1" fill="none"/><path d="m936.2 514.2v194.5" fill="none"/><path clip-rule="evenodd" d="m670 487.9-58-7.4-.8-.3c-.6-.5-.8-.5-1.1-1.3-.4-1.2-.1-2.5.9-3.3.6-.5.9-.4 1.6-.4l330.3 42.3c.5.1 1.1.4 1.4.8.4.5.6 1.1.6 1.7 0 .3 0 .6-.1.9l-47.2 188.5c-.1.3-.2.6-.4.8-.1.3-.3.5-.6.6-.5.3-1 .5-1.6.4s-1.2-.4-1.5-.9c-.2-.2-.3-.5-.4-.8s-.2-.6-.1-.9v-64.8h-69.7v64.8c0 .6-.2 1.2-.5 1.7-.7 1-2.2 1.2-3.2.4-.2-.1-.3-.3-.4-.4-.4-.5-.6-1.1-.6-1.7v-64.8h-69.6v64.8c0 .6-.2 1.2-.6 1.7-.7 1-2.2 1.2-3.2.4-.2-.1-.3-.3-.4-.4-.4-.5-.6-1.1-.6-1.7v-64.8h-69.6v64.8c0 .6-.2 1.2-.6 1.7-.7 1-2.2 1.2-3.2.4-.2-.1-.3-.3-.4-.4-.4-.5-.6-1.1-.6-1.7v-64.8h-31.2c-.7-.1-.9 0-1.5-.6-1-1.2-1-2.9 0-4.1.4-.4.9-.6 1.5-.6h31.4v-71.8h-43.8c-.7-.1-.9 0-1.5-.6-1.1-1.2-1.1-2.9 0-4.1.4-.4.9-.6 1.5-.6h43.8zm227.8 156v45.7l11.4-45.7zm30.7-77.2h-30.8v71.8h12.8zm-253.8 0v71.8h69.6v-71.8zm74.4 0v71.8h69.6v-71.8zm74.3 0v71.8h69.7v-71.8zm74.4-49.5v44.1h32.1l9.7-38.8zm-223.1 44.1h69.6v-63.8l-69.6-8.9zm74.4 0h69.6v-54.3l-69.6-8.9zm74.3 0h69.7v-44.7l-69.7-8.9z" fill="#fff" fill-rule="evenodd"/><path clip-rule="evenodd" d="m643 708.7 14.6 20s-23.1 73-29.7 93.7c-1.1 3.4-.5 7.2 1.6 10.1l12.9 18.1c2.2 3 5.6 4.8 9.3 4.8h216.4c5.5 0 10 4.5 10 10 0 5.5-4.5 10-10 10h-226.7c-3.7 0-7.1-1.8-9.2-4.8l-24.7-34.6c-2.1-2.9-2.7-6.7-1.6-10.1 7.5-23.8 37.2-117.2 37.1-117.2z" fill="url(#b)" fill-rule="evenodd"/><path clip-rule="evenodd" d="m565.7 458.5-18.6-2.3v-20l21.1 2.5z" fill="url(#d)" fill-rule="evenodd"/><path clip-rule="evenodd" d="m317.2 319.8c-4.5-19.2 7.4-38.5 26.6-43.1 18.5-4.4 37.1 6.4 42.5 24.6.2.7.4 1.4.5 2.1l22.6 95.5 99.8-1.8 7.4 50.6-129.1 18.8c-17.2 2.5-33.5-8.4-37.8-25.2z" fill="url(#f)" fill-rule="evenodd"/><path clip-rule="evenodd" d="m488.1 407.8c.9-7.2 7.4-12.2 14.6-11.3h.1l42 5.7c4.9.7 9 4.1 10.5 8.8l10.4 32.3c.8 2.6-.6 5.4-3.1 6.2-.5.2-1 .2-1.6.2h-37.2c-1.2 0-2.4-.3-3.6-.8l-11.5-5.2h-15c-4.8 0-8.8-3.9-8.8-8.8 0-.4 0-.8.1-1.1.8-7.4 2.1-17.8 3.1-26z" fill="url(#h)" fill-rule="evenodd"/><path clip-rule="evenodd" d="m153.3 870.7s1.3 22.7 1.8 33.9c.2 3.7-1.7 7.2-4.9 9.1l-.4.2c-4.7 2.7-10.8 1.1-13.5-3.6 0 0 0 0 0-.1l-37.4-64.8c-1.7-3-.7-6.7 2.3-8.4l24.5-14.2c0 .1 27.6 47.9 27.6 47.9z" fill="url(#i)" fill-rule="evenodd"/><path clip-rule="evenodd" d="m355 530.7c0 2.7-.2 5.3-.7 7.9l-13.8 166.2c0 10.6-4.2 20.8-11.7 28.3-2.3 2.3-4.8 4.3-7.6 6l-167.9 131.8-27.6-48.1 134.7-134.7v-157.4z" fill="url(#k)" fill-rule="evenodd"/><path clip-rule="evenodd" d="m321.2 911.1 30.3 15.3c3.3 1.7 5.4 5.1 5.4 8.8v.5c0 5.5-4.4 9.9-9.9 9.9h-74.9c-3.4 0-6.2-2.8-6.2-6.2v-28.3z" fill="url(#l)" fill-rule="evenodd"/><path clip-rule="evenodd" d="m278.2 530.7-5.7 39.2 17.3 120.4c.8 3.1 1.3 6.3 1.4 9.5l30.3 211.3h-55.5l-53.6-200.1-45.1-168.2c-1.1-4-1.6-8.1-1.6-12.2h112.5z" fill="url(#m)" fill-rule="evenodd"/><path clip-rule="evenodd" d="m369.2 294.7c.6-9.1-5-17.4-13.6-20.5l-53.1-18.5h-53.4l-68.3 19.8-15 255.2h189.2s10.9-181.4 14.2-236z" fill="url(#n)" fill-rule="evenodd"/><path clip-rule="evenodd" d="m316 260.6-.5 7.5c-.2 2.6-1 5.2-2.4 7.4l-11.8 18.2c-3.7 5.7-11.3 7.3-17 3.7l-55.4-35.5 20.3-5.8h53.3z" fill="url(#o)" fill-rule="evenodd"/><path clip-rule="evenodd" d="m328.9 192.5s33.3-14 32.1-53.5c0 0-26.5-15.8-45.2-28.3-23.7-15.7-59.7-5.1-66.5 20.8 0 0-14.4 4.8-19.4 23.3-4.3 15.7 11 37.7 11 37.7z" fill="url(#p)" fill-rule="evenodd"/><path clip-rule="evenodd" d="m274.3 154.9s18.1 22.8 60.2 16.3c0 0-1 27.7-1.8 50.4-.5 14.8-13 26.4-27.8 25.9-.8 0-1.6-.1-2.4-.2v15.7l-10.4 15.9c-1.5 2.4-4.7 3-7.1 1.5l-36.8-23.5.3-57.9s13.1-3.2 25.8-44.1z" fill="url(#q)" fill-rule="evenodd"/><circle cx="250.7" cy="199.8" fill="url(#r)" r="15.4"/><path clip-rule="evenodd" d="m302.4 247.3s-16.8-3.2-26.2-9.2c0 0 2.7 20.5 26.2 25z" fill="url(#s)" fill-rule="evenodd"/><path clip-rule="evenodd" d="m154.3 319.8c-4.5-19.2 7.4-38.5 26.6-43.1 18.5-4.4 37.1 6.4 42.5 24.6.2.7.4 1.4.5 2.1l22.4 94.8 143.7-5.8c4-.2 7.4 2.9 7.6 7 0 .4 0 .9-.1 1.3l-5.5 38.9-166.5 26.8-1 .1c-17.2 2.5-33.5-8.4-37.7-25.2z" fill="url(#t)" fill-rule="evenodd"/><path d="m364.2 436.1h188.2v20.1h-188.2z" fill="url(#u)"/><path clip-rule="evenodd" d="m376.2 405.8c.8-7.1 7.3-12.2 14.3-11.4h.3l41.9 5.7c4.9.6 9 4.1 10.5 8.8 2.9 9 7.7 23.9 10.4 32.3.8 2.6-.6 5.4-3.2 6.2-.5.2-1 .2-1.5.2h-37.2c-1.2 0-2.4-.3-3.6-.8l-11.6-5.2h-15c-4.9 0-8.8-4-8.8-8.8 0-.3 0-.7.1-1 1.1-7.4 2.4-17.8 3.4-26z" fill="url(#v)" fill-rule="evenodd"/><path clip-rule="evenodd" d="m569.5 593.7c-4.9-.1-9.1-3.4-10.5-8.1-17.2-63.5-34.3-127.1-51.1-190.7-1.4-5.8 2-11.6 7.7-13.3 95.7-25.9 215.5-58.1 311.3-83.4 5.8-1.4 11.6 2 13.3 7.7 17.2 63.5 34.3 127.1 51.1 190.7 1.4 5.8-2 11.6-7.7 13.3-95.6 26-215.5 58.1-311.4 83.4-.8.2-1.8.3-2.7.4z" fill="url(#w)" fill-rule="evenodd"/><path clip-rule="evenodd" d="m871.2 488.5c.8-.2 1.3-1 1.1-1.8l-45.7-170.5c-.1-.4-.4-.7-.7-.9-.4-.2-.8-.3-1.2-.1l-298.9 80.1c-.4.1-.7.4-.9.7-.2.4-.3.8-.1 1.2l45.7 170.5c.2.8 1 1.3 1.8 1.1z" fill="url(#y)" fill-rule="evenodd"/><path clip-rule="evenodd" d="m715.5 344.3 128 34.3 29 108.2c.2.7-.2 1.5-1 1.7l-189.8 50.9-128-34.3-29-108.2c-.2-.7.2-1.5 1-1.7z" fill="url(#z)" fill-rule="evenodd"/><path clip-rule="evenodd" d="m538.6 448.2 241.7 64.7-208 55.8c-.7.2-1.5-.2-1.7-1z" fill="url(#A)" fill-rule="evenodd"/><path clip-rule="evenodd" d="m760.8 576.1-8.3-30.9-48.9 13.1 8.3 30.9z" fill="url(#B)" fill-rule="evenodd"/><path clip-rule="evenodd" d="m807.2 573.7-5-18.7-136.6 36.6 5 18.7z" fill="url(#C)" fill-rule="evenodd"/><path clip-rule="evenodd" d="m573.1 365.9-49.9 86.5 15.6 58.1 92.5-160.3z" fill="url(#E)" fill-rule="evenodd"/><path clip-rule="evenodd" d="m898.3 694.7c0-2.6-2.1-4.6-4.6-4.6h-306.8c-2.6 0-4.6 2.1-4.6 4.6v10.4c0 2.6 2.1 4.6 4.6 4.6h306.8c2.6 0 4.6-2.1 4.6-4.6z" fill="url(#F)" fill-rule="evenodd"/><path clip-rule="evenodd" d="m864.7 541.5c0-5.5-4.4-9.9-9.9-9.9h-229c-5.5 0-9.9 4.4-9.9 9.9v148.6h248.7v-148.6z" fill="url(#G)" fill-rule="evenodd"/><path d="m631.7 547.4h217.1v132.7h-217.1z" fill="url(#H)"/><path clip-rule="evenodd" d="m654 680.1-22.2-12.8v-119.9h119.3l97.8 56.4v76.3z" fill="url(#I)" fill-rule="evenodd"/><path clip-rule="evenodd" d="m631.7 589.4 157.1 90.7h-157.1z" fill="url(#J)" fill-rule="evenodd"/><path clip-rule="evenodd" d="m727.1 554.9c5.7 4.5 6.8 12.6 2.6 18.5-27.2 36.3-54.5 72.5-81.9 108.7-4.5 5.7-12.6 6.8-18.5 2.6-28.3-21.2-56.5-42.4-84.6-63.8-5.6-4.5-6.7-12.5-2.6-18.4 27.2-36.3 54.5-72.6 81.9-108.7 4.5-5.6 12.6-6.8 18.5-2.6 28.3 21.1 56.5 42.3 84.6 63.7z" fill="url(#K)" fill-rule="evenodd"/><path clip-rule="evenodd" d="m637.8 505.5c-1.6-1.1-3.9-.8-5.1.7-27.4 36.2-49.6 64.2-76.1 101-1.1 1.6-.8 3.8.7 5 27.9 21.7 48.3 37.4 77 58 1.6 1.1 3.8.8 5-.8 27.4-36.1 49.6-64.2 76.1-101 1.1-1.6.8-3.8-.8-5-28.1-21.3-48.6-36.7-76.8-57.9z" fill="url(#L)" fill-rule="evenodd"/><path clip-rule="evenodd" d="m621.6 520.7 46.9 110.4c-9.3 12.2-18.9 24.6-29.2 38.2-1.2 1.5-3.4 1.9-5 .8-28.7-20.6-49.1-36.3-77-58-1.5-1.2-1.8-3.4-.7-5 22.8-31.6 42.5-56.9 65-86.4z" fill="url(#M)" fill-rule="evenodd"/><path clip-rule="evenodd" d="m669.6 511.4-65.9 9.2-20 26.4 112.3-15.7z" fill="url(#N)" fill-rule="evenodd"/><path clip-rule="evenodd" d="m476.5 534.7c-9.3.3-16.7 7.7-17 17v32.9c.1 10.2 5.1 19.7 13.5 25.6 5.2 3.5 11.3 5.4 17.5 5.4h17.9v-11.6h-15.7c-11.8-.3-21.3-9.8-21.7-21.7 0-11.1-.1-17.3 0-28.3.2-4.3 3.6-7.7 7.9-7.8h17.1v-11.6z" fill="url(#O)" fill-rule="evenodd"/><path clip-rule="evenodd" d="m480.8 690.7h103.9v11.6c0 4.1-3.3 7.4-7.4 7.4h-89.1c-4.1 0-7.4-3.3-7.4-7.4z" fill="url(#P)" fill-rule="evenodd"/><path clip-rule="evenodd" d="m515.4 709.7c0-6.4 3.7-11.5 8.2-11.5h18.4c4.5 0 8.2 5.1 8.2 11.5z" fill="#152873" fill-rule="evenodd"/><path d="m503 627.1h59.5v15.5h-59.5z" fill="url(#Q)"/><path clip-rule="evenodd" d="m480.8 517.1c0-4.3 3.5-7.7 7.7-7.7h88.5c4.3 0 7.7 3.5 7.7 7.7 0 4.3-3.5 7.7-7.7 7.7h-88.5c-4.3 0-7.7-3.5-7.7-7.7z" fill="url(#R)" fill-rule="evenodd"/><path clip-rule="evenodd" d="m508.4 509.3c0-5 4-9 9-9h30.7c5 0 9 4 9 9z" fill="url(#S)" fill-rule="evenodd"/><path clip-rule="evenodd" d="m488.6 524.9h88.3v53c0 17.4-5 34.5-14.4 49.2h-59.5c-9.4-14.7-14.4-31.7-14.4-49.2z" fill="url(#T)" fill-rule="evenodd"/><path clip-rule="evenodd" d="m488.6 539 87.6 50.6c-1.7 13.4-6.4 26.2-13.7 37.6h-59.5c-9.4-14.7-14.4-31.7-14.4-49.1z" fill="url(#U)" fill-rule="evenodd"/><path clip-rule="evenodd" d="m480.8 690.7h103.9s-9.4-30.8-13.2-43.2c-.9-3-3.7-5-6.8-5h-63.9c-3.1 0-5.9 2-6.8 5z" fill="url(#V)" fill-rule="evenodd"/><circle cx="532.7" cy="666.6" fill="url(#W)" r="14.5"/><path clip-rule="evenodd" d="m534.7 650.8c.8 0 1.5.7 1.5 1.5v12.9c0 .8-.7 1.5-1.5 1.5h-3.9c-.8 0-1.5-.7-1.5-1.5v-12.9c0-.8.7-1.5 1.5-1.5z" fill="url(#X)" fill-rule="evenodd"/><path clip-rule="evenodd" d="m818.1 577.7c-3.9-3.3-9.7-2.9-13 .9-8.3 9.6-23.1 26.7-31.4 36.3-3.3 3.9-2.9 9.7.9 13l68.5 59.3c3.9 3.4 9.7 2.9 13-.9 0 0 0 0 0-.1l31.4-36.3c3.3-3.9 2.9-9.7-.9-13z" fill="url(#Y)" fill-rule="evenodd"/><path clip-rule="evenodd" d="m810 587.5c.5-.6 1.3-1 2.1-1.1s1.6.2 2.2.7l63.3 54.8c.6.5 1 1.3 1.1 2.1s-.2 1.6-.8 2.2l-26.9 31.1c-.5.6-1.3 1-2.1 1.1-.8 0-1.6-.2-2.2-.8l-63.3-54.6c-.6-.5-1-1.3-1.1-2.1s.2-1.6.8-2.3l4.3-5c.6-.7 1.5-1.1 2.5-1.1l3 .1c1 .1 1.9-.3 2.5-1.1l9.5-11c.6-.7.9-1.7.7-2.6s-.4-2-.6-2.9.1-1.9.7-2.6z" fill="url(#Z)" fill-rule="evenodd"/><path clip-rule="evenodd" d="m808.1 644.3 51.6-17.9 18.2 15.8c1.1 1 1.3 2.7.3 3.9l-27.3 31.6c-1 1.1-2.7 1.3-3.9.3z" fill="url(#aa)" fill-rule="evenodd"/><path clip-rule="evenodd" d="m746.5 613.2h19.6c.5 0 1 .2 1.3.6.3.3.5.8.5 1.3v3.3h-21.4z" fill="url(#ac)" fill-rule="evenodd"/><path clip-rule="evenodd" d="m736.3 611.7h19.6c1 0 1.8.8 1.8 1.8v4.8h-21.4z" fill="url(#ad)" fill-rule="evenodd"/><path clip-rule="evenodd" d="m648.1 628.9h34.9v61.2h-27.5c-4.1 0-7.4-3.3-7.4-7.4z" fill="url(#ae)" fill-rule="evenodd"/><path clip-rule="evenodd" d="m648.1 619.1c0-4.1 3.3-7.4 7.4-7.4h27.5v17.2h-34.9z" fill="url(#ag)" fill-rule="evenodd"/><path clip-rule="evenodd" d="m675.8 628.9h97v53.8c0 4.1-3.3 7.4-7.4 7.4h-82.2c-4.1 0-7.4-3.3-7.4-7.4z" fill="url(#ah)" fill-rule="evenodd"/><path clip-rule="evenodd" d="m675.8 619.1c0-4.1 3.3-7.4 7.4-7.4h56.4c1.7 0 3.2.9 4 2.4l1 1.8c.8 1.5 2.3 2.4 4 2.4h16.8c4.1 0 7.4 3.3 7.4 7.4v3.1h-97z" fill="url(#ai)" fill-rule="evenodd"/><path clip-rule="evenodd" d="m686.7 651.1c0-3.4 2.8-6.2 6.2-6.2h6.9v18.8h-6.9c-3.4 0-6.2-2.8-6.2-6.2z" fill="url(#aj)" fill-rule="evenodd"/><path clip-rule="evenodd" d="m726.7 690.1h18.8v-71.7h-18.8c-17.2 0-31.2 16.1-31.2 35.8s14 35.9 31.2 35.9z" fill="url(#ak)" fill-rule="evenodd"/><ellipse cx="745.6" cy="654.2" fill="url(#al)" rx="31.2" ry="35.9"/><ellipse cx="745.6" cy="654.2" fill="url(#am)" rx="22.1" ry="25.3"/><ellipse cx="745.6" cy="654.2" fill="url(#ao)" rx="12.4" ry="14.2"/><path clip-rule="evenodd" d="m479.2 875.4-21.4 44.6c-.5 1.1-.4 2.4.2 3.5.7 1 1.8 1.7 3 1.7h16.4c2.8 0 5.3-1.6 6.5-4.1l21.2-45.6h-25.9z" fill="url(#ap)" fill-rule="evenodd"/><path clip-rule="evenodd" d="m470.9 883.2c16 0 28.9 14.2 28.9 31.6s-12.9 31.6-28.9 31.6h-15v-63.2z" fill="#152873" fill-rule="evenodd"/><ellipse cx="455.9" cy="914.8" fill="url(#aq)" rx="28.9" ry="31.6"/><path clip-rule="evenodd" d="m460.3 875.4-21.3 44.6c-.9 1.8-.1 3.9 1.7 4.8.5.2 1 .4 1.6.4h16.4c2.8 0 5.3-1.6 6.5-4.1 5.5-11.9 21.2-45.6 21.2-45.6h-26.1z" fill="url(#ar)" fill-rule="evenodd"/><path clip-rule="evenodd" d="m652.1 875.4-21.3 44.6c-.9 1.8-.1 3.9 1.7 4.8.5.2 1 .4 1.6.4h16.4c2.8 0 5.3-1.6 6.5-4.1 5.5-11.9 21.2-45.6 21.2-45.6h-26.1z" fill="url(#as)" fill-rule="evenodd"/><path clip-rule="evenodd" d="m643.9 883.2c15.9 0 28.9 14.2 28.9 31.6s-12.9 31.6-28.9 31.6h-15v-63.2z" fill="#152873" fill-rule="evenodd"/><ellipse cx="628.8" cy="914.8" fill="url(#at)" rx="28.9" ry="31.6"/><path clip-rule="evenodd" d="m633.3 875.4-21.3 44.6c-.9 1.8-.1 3.9 1.6 4.8.5.2 1 .4 1.6.4h16.4c2.8 0 5.3-1.6 6.5-4.1 5.5-11.9 21.2-45.6 21.2-45.6h-26z" fill="url(#au)" fill-rule="evenodd"/><path clip-rule="evenodd" d="m834.9 875.4-21.3 44.6c-.9 1.8-.1 3.9 1.7 4.8.5.2 1 .4 1.6.4h16.4c2.8 0 5.3-1.6 6.5-4.1 5.5-11.9 21.2-45.6 21.2-45.6h-26.1z" fill="url(#av)" fill-rule="evenodd"/><path clip-rule="evenodd" d="m826.6 883.2c15.9 0 28.9 14.2 28.9 31.6s-12.9 31.6-28.9 31.6h-15v-63.2z" fill="#152873" fill-rule="evenodd"/><ellipse cx="811.6" cy="914.8" fill="url(#aw)" rx="28.9" ry="31.6"/><path clip-rule="evenodd" d="m816.1 875.4-21.3 44.6c-.9 1.8-.1 3.9 1.7 4.8.5.2 1 .4 1.6.4h16.4c2.8 0 5.3-1.6 6.5-4.1 5.5-11.9 21.2-45.6 21.2-45.6h-26.1z" fill="url(#ax)" fill-rule="evenodd"/><path d="m583.5 495.1v213.6" fill="none"/><path d="m445.8 564h349" fill="none"/><path d="m460.2 641.3h312.6" fill="none"/><path d="m498.5 485.6v223.1" fill="none"/><path d="m668.5 504.6v204.1" fill="none"/><path d="m753.4 514.2v194.5" fill="none"/><g clip-rule="evenodd" fill-rule="evenodd"><path d="m487.3 487.9-58-7.4-.8-.3c-.6-.5-.8-.5-1.1-1.3-.4-1.2-.1-2.5.9-3.3.4-.3 1-.5 1.6-.4l330.4 42.3c.5.1 1 .4 1.4.8.4.5.6 1.1.6 1.7 0 .3 0 .6-.1.9l-47.2 188.5c-.1.3-.2.6-.4.8-.1.3-.3.5-.6.6-.5.3-1 .5-1.6.4s-1.2-.4-1.5-.9c-.2-.2-.3-.4-.4-.6-.1-.3-.2-.6-.1-.9v-64.9h-69.6v64.8c0 .6-.2 1.2-.6 1.7-.7 1-2.1 1.2-3.1.5-.2-.1-.3-.3-.5-.5-.4-.5-.6-1.1-.6-1.7v-64.8h-69.7v64.8c0 .6-.2 1.2-.6 1.7-.7 1-2.1 1.2-3.1.5-.2-.1-.3-.3-.5-.5-.4-.5-.6-1.1-.6-1.7v-64.8h-69.5v64.8c0 .6-.2 1.2-.5 1.7-.7 1-2.1 1.3-3.1.6-.2-.2-.4-.3-.6-.6-.4-.5-.6-1.1-.6-1.7v-64.8h-31.2c-.7-.1-.9 0-1.5-.6-1.1-1.2-1.1-2.9 0-4.1.4-.4.9-.6 1.5-.6h31.2v-71.8h-43.7c-.7-.1-.9 0-1.5-.6-1-1.2-1-2.9 0-4.1.4-.4.9-.6 1.5-.6h43.8zm227.7 156v45.7l11.4-45.7zm30.8-77.2h-30.8v71.8h12.8zm-253.8 0v71.8h69.7v-71.8zm74.3 0v71.8h69.7v-71.8zm74.4 0v71.8h69.7v-71.8zm74.3-49.5v44.1h32.1l9.7-38.8zm-223 44.1h69.7v-63.8l-69.7-8.9zm74.3 0h69.7v-54.3l-69.7-8.9zm74.4 0h69.7v-44.7l-69.7-8.9z" fill="#fff"/><path d="m460.2 708.7 14.6 20s-23.1 73-29.7 93.7c-1.1 3.4-.5 7.2 1.6 10.1l12.9 18.1c2.2 3 5.6 4.8 9.3 4.8h216.4c5.5 0 10 4.5 10 10 0 5.5-4.5 10-10 10h-226.6c-3.7 0-7.1-1.8-9.2-4.8-6.1-8.5-18.7-26.2-24.7-34.6-2.1-2.9-2.7-6.7-1.6-10.1 7.5-23.8 37.1-117.2 37-117.2z" fill="url(#az)"/><path d="m864.5 517.7c-13.7 11.7-18.5 29.3-19.5 33l17.3 4.6.2-.7c3.5-12.9 11.1-24.3 21.7-32.5 2.4-1.7 4.9-3.2 7.6-4.5h-27.3z" fill="url(#aB)"/><path d="m860.9 517.7c-4.6 4.3-8.4 9.2-11.6 14.7-3.1 5.5-5.6 11.4-7.2 17.5l4.8 1.3c0-.2.1-.4.2-.7 3.5-12.9 11-24.3 21.6-32.5l.5-.4h-8.3z" fill="url(#aC)"/><path d="m836.8 604.3 9.9 2.7 15.3-57.3-9.9-2.7c-11.9-3.2-25 7.1-29.2 22.8-4.2 15.9 2 31.4 13.9 34.5z" fill="url(#aD)"/><path d="m840.5 605.4 9.9 2.7 15.3-57.3-9.9-2.7c-11.9-3.2-25 7-29.2 22.8s2 31.3 13.9 34.5z" fill="url(#aE)"/><path d="m865.7 550.7c-11.9-3.2-25 7-29.2 22.8s2 31.2 13.9 34.4 25-7.1 29.2-22.9c4.2-15.7-2-31-13.9-34.3z" fill="url(#aF)"/><path d="m864.6 563.1c-6.6-1.8-14 4.3-16.5 13.6s.8 18.3 7.4 20.1 14-4.3 16.5-13.6c2.4-9.4-.8-18.3-7.4-20.1z" fill="url(#aG)"/><path d="m879.9 517.7.1-.4 1 .1.9.1.4.1h60v5.3h-58.9l-9.6 38.2h59.5v5.4h-60.8l-17.9 71.9h58.6v5.4h-60.1l-16.4 65.6c-.1.3-.2.6-.4.8-.1.2-.3.5-.6.6-.5.3-1 .5-1.6.4-.9-.1-1.6-.8-1.8-1.7-.1-.3-.2-.6-.1-.9v-.4l16.1-64.4h-56.1l-16.4 65.6c-.1.3-.2.6-.4.8-.1.3-.3.5-.6.6-.4.3-1 .5-1.6.4s-1.2-.4-1.5-.9c-.2-.2-.3-.4-.4-.6-.1-.3-.2-.6-.1-.9v-.4l16.1-64.4h-97.8v-5.4h99.1l18-71.8h-76.4v-5.4h77.8l9.6-38.3h-59v-5.4zm-68.4 49-17.9 71.8h56l17.9-71.8zm10.9-43.6-9.6 38.2h56l9.7-38.3z" fill="#fff"/><path d="m689.6 708.7h205.1c5.5 0 10 4.5 10 10 0 5.5-4.5 10-10 10h-205.1z" fill="url(#aH)"/><path d="m382.9 438.3 29.6 3.6c6.5.8 11.7 5.7 12.9 12.2 9.2 49.9 47.3 254.6 47.3 254.6h239.3c5.5 0 10 4.5 10 10 0 5.5-4.5 10-10 10h-243.4c-7.2 0-13.5-5.2-14.8-12.3-8.8-47.4-40.3-217.1-46.3-249.7-.6-3.2-3.2-5.7-6.5-6.1l-18.1-2.2z" fill="url(#aI)"/><path d="m382.9 458.5-18.6-2.3v-20l21.2 2.6z" fill="url(#aJ)"/><path d="m364.2 436.2c5.6 0 10.1 4.5 10.1 10.1s-4.5 10.1-10.1 10.1-10.1-4.5-10.1-10.1c.1-5.6 4.6-10.1 10.1-10.1z" fill="url(#aK)"/><path d="m915.7 625.5 9.9 2.6 15.3-57.3-9.9-2.6c-11.9-3.2-25 7-29.2 22.8-4.2 15.9 2.1 31.3 13.9 34.5z" fill="url(#aL)"/><path d="m891.7 517.7c6.3-3 13.4-4.2 20.3-3.5l-7.2-6.2c-18.3-3.1-31.2 2-40.3 9.7z" fill="url(#aM)"/><path d="m912 514.2c4.5.5 26.4 13.4 18.7 59.4l17.5 4.7c6.2-23.4 0-49.1-15.6-61.9-4.3-3.5-9.2-6.1-14.6-7.5-4.3-1.1-15.2-4.1-15.2-4.1z" fill="url(#aN)"/><path d="m869.3 517.7c12.6-9 28.2-10.3 40.2-3.3 11.6 6.7 19.5 20.9 20.7 37 .5 7.3-.2 14.6-2.1 21.6l4.8 1.3c6.2-23.4 0-49.1-15.6-61.9-4.3-3.5-9.2-6.1-14.6-7.5-13.8-3.6-29.6 1.4-41.8 12.9z" fill="url(#aO)"/><path d="m941 570.9c-11.9-3.2-25 7.1-29.2 22.8-4.2 15.8 2 31.2 13.9 34.4s25-7.1 29.2-22.8-2-31.2-13.9-34.4z" fill="url(#aP)"/><path d="m945.1 579c-8.7-2.3-18.4 5.7-21.7 17.9s1.1 24 9.8 26.4 18.4-5.7 21.7-17.9c3.3-12.3-1.2-24.1-9.8-26.4z" fill="url(#aQ)"/></g></svg>