<svg enable-background="new 0 0 1024 1024" viewBox="0 0 1024 1024" xmlns="http://www.w3.org/2000/svg" xmlns:xlink="http://www.w3.org/1999/xlink"><linearGradient id="a"><stop offset="0" stop-color="#fff"/><stop offset="1" stop-color="#b0dcff"/></linearGradient><linearGradient id="b" gradientTransform="matrix(52.1 90.24 -141.9 81.93 130792.5938 334807.1875)" gradientUnits="userSpaceOnUse" x1="-3406.4971" x2="-3405.9087" xlink:href="#a" y1="-330.9662" y2="-330.9662"/><linearGradient id="c" gradientTransform="matrix(52.1 90.24 -58.49 33.77 158031.0156 319646.25)" gradientUnits="userSpaceOnUse" x1="-3408.3557" x2="-3407.749" xlink:href="#a" y1="-348.2267" y2="-348.2267"/><linearGradient id="d" gradientTransform="matrix(52.1 90.24 -65.89 38.04 154812.1875 320683.125)" gradientUnits="userSpaceOnUse" x1="-3405.5686" x2="-3404.98" xlink:href="#a" y1="-347.8943" y2="-347.8943"/><linearGradient id="e" gradientTransform="matrix(52.1 90.24 -98.69 56.98 144702.8281 327454.1562)" gradientUnits="userSpaceOnUse" x1="-3408.7451" x2="-3408.1389" xlink:href="#a" y1="-337.7414" y2="-337.7414"/><linearGradient id="f" gradientTransform="matrix(52.1 90.24 -122.81 70.91 137265.625 331064.25)" gradientUnits="userSpaceOnUse" x1="-3406.5022" x2="-3405.8955" xlink:href="#a" y1="-331.8737" y2="-331.8737"/><linearGradient id="g"><stop offset="0" stop-color="#ffbc56"/><stop offset="1" stop-color="#ff5133"/></linearGradient><linearGradient id="h" gradientTransform="matrix(0 929.06 -929.06 0 -295308.9375 3180919.75)" gradientUnits="userSpaceOnUse" x1="-3423.7075" x2="-3423.1191" xlink:href="#g" y1="-318.4115" y2="-318.4115"/><linearGradient id="i" gradientTransform="matrix(0 600.58 -600.58 0 -191750.0156 2056294.5)" gradientUnits="userSpaceOnUse" x1="-3423.5842" x2="-3422.978" xlink:href="#g" y1="-320.1313" y2="-320.1313"/><linearGradient id="j" gradientTransform="matrix(0 656.4 -656.4 0 -209360.9062 2247562)" gradientUnits="userSpaceOnUse" x1="-3423.6521" x2="-3423.0632" xlink:href="#g" y1="-319.6589" y2="-319.6589"/><linearGradient id="k"><stop offset="0" stop-color="#fff"/><stop offset=".55" stop-color="#eef8ff"/><stop offset="1" stop-color="#b0dcff"/></linearGradient><linearGradient id="l" gradientTransform="matrix(0 120.73 -120.73 9.51 -40505.0078 416353.6875)" gradientUnits="userSpaceOnUse" x1="-3419.5042" x2="-3418.9153" xlink:href="#k" y1="-339.7124" y2="-339.7658"/><linearGradient id="m" gradientTransform="matrix(0 142.61 -142.61 11.24 -47419.668 491952.1562)" gradientUnits="userSpaceOnUse" x1="-3420.7646" x2="-3420.1584" xlink:href="#k" y1="-336.0673" y2="-336.103"/><linearGradient id="n" gradientTransform="matrix(75 129.91 -127.88 73.83 214396 468391.9688)" gradientUnits="userSpaceOnUse" x1="-3413.7971" x2="-3413.1904" xlink:href="#a" y1="-331.2578" y2="-331.2578"/><linearGradient id="o" gradientTransform="matrix(73.1 126.62 -93.13 53.77 218045.3594 450670.5625)" gradientUnits="userSpaceOnUse" x1="-3412.0579" x2="-3411.469" xlink:href="#a" y1="-339.429" y2="-339.429"/><linearGradient id="p"><stop offset="0" stop-color="#2b5acc"/><stop offset="1" stop-color="#152873"/></linearGradient><linearGradient id="q" gradientTransform="matrix(-79.41 205.07 138.43 53.6 -231067.7969 719528.1875)" gradientUnits="userSpaceOnUse" x1="-3428.6929" x2="-3428.104" xlink:href="#p" y1="-295.5569" y2="-295.5569"/><linearGradient id="r" gradientTransform="matrix(-40.82 101.74 -39.25 -15.75 -154980.0312 343877.5312)" gradientUnits="userSpaceOnUse" x1="-3433.6335" x2="-3433.0447" xlink:href="#a" y1="-384.6375" y2="-384.6375"/><linearGradient id="s" gradientTransform="matrix(-46.36 192.51 129.95 31.29 -120423.4297 668732.4375)" gradientUnits="userSpaceOnUse" x1="-3425.5962" x2="-3425.0078" xlink:href="#p" y1="-292.5161" y2="-292.5161"/><linearGradient id="t" gradientTransform="matrix(-24.27 95.68 -36.91 -9.36 -97423.3906 324373.1562)" gradientUnits="userSpaceOnUse" x1="-3427.5476" x2="-3426.9587" xlink:href="#a" y1="-395.8007" y2="-395.8007"/><linearGradient id="u" gradientTransform="matrix(32.97 281.45 189.98 -22.26 170918.7969 956849.25)" gradientUnits="userSpaceOnUse" x1="-3422.2214" x2="-3421.6147" xlink:href="#p" y1="-301.3498" y2="-301.3498"/><linearGradient id="v" gradientTransform="matrix(14.73 140.49 -54.2 5.68 31474.2969 483052.375)" gradientUnits="userSpaceOnUse" x1="-3420.4949" x2="-3419.906" xlink:href="#a" y1="-364.481" y2="-364.481"/><linearGradient id="w"><stop offset="0" stop-color="#ff5133"/><stop offset="1" stop-color="#ffbc56"/></linearGradient><linearGradient id="x" gradientTransform="matrix(0 -190.89 88.47 0 24882.7344 -653535.5625)" gradientUnits="userSpaceOnUse" x1="-3425.5476" x2="-3424.9587" xlink:href="#w" y1="-279.3652" y2="-279.3652"/><linearGradient id="y" gradientTransform="matrix(0 153.32 -44.04 0 -16903.9707 524947)" gradientUnits="userSpaceOnUse" x1="-3422.1479" x2="-3421.5413" xlink:href="#a" y1="-387.6309" y2="-387.6309"/><linearGradient id="z" gradientTransform="matrix(.00301432 -175.3596 81.2663 .0007806 23520.7969 -599787.1875)" gradientUnits="userSpaceOnUse" x1="-3424.4448" x2="-3423.856" xlink:href="#w" y1="-280.6241" y2="-280.6241"/><linearGradient id="A" gradientTransform="matrix(0 140.84 -40.46 0 -14866.2158 482791.0625)" gradientUnits="userSpaceOnUse" x1="-3423.5386" x2="-3422.9497" xlink:href="#a" y1="-384.8595" y2="-384.8595"/><linearGradient id="B" gradientTransform="matrix(-.01006566 -158.2439 73.3418 -.00271705 21008.8848 -542140.5625)" gradientUnits="userSpaceOnUse" x1="-3426.9238" x2="-3426.3171" xlink:href="#w" y1="-277.1155" y2="-277.1155"/><linearGradient id="C" gradientTransform="matrix(0 127.09 -36.51 0 -13598.5361 434772.9375)" gradientUnits="userSpaceOnUse" x1="-3420.3943" x2="-3419.8057" xlink:href="#a" y1="-392.1601" y2="-392.1601"/><linearGradient id="D" gradientTransform="matrix(0 397.09 420.28 0 129964.6797 1360364.25)" gradientUnits="userSpaceOnUse" x1="-3424.126" x2="-3423.5198" xlink:href="#p" y1="-308.1527" y2="-308.1527"/><linearGradient id="E"><stop offset="0" stop-color="#e1f2ff"/><stop offset="1" stop-color="#95d2ff"/></linearGradient><linearGradient id="F" gradientTransform="matrix(0 169.3 198.9 0 60182.9062 580414.75)" gradientUnits="userSpaceOnUse" x1="-3423.9731" x2="-3423.3665" xlink:href="#E" y1="-300.295" y2="-300.295"/><linearGradient id="G" gradientTransform="matrix(-206.55 365.15 -365.15 -206.55 -824796.3125 1185957.375)" gradientUnits="userSpaceOnUse" x1="-3427.571" x2="-3426.9827" xlink:href="#E" y1="-321.3034" y2="-321.3034"/><linearGradient id="H" gradientTransform="matrix(-105.6 132.82 -132.82 -105.6 -406097.4688 422391.625)" gradientUnits="userSpaceOnUse" x1="-3435.5525" x2="-3434.9458" xlink:href="#E" y1="-329.1027" y2="-329.1027"/><linearGradient id="I" gradientTransform="matrix(0 57.74 61.82 0 16964.0059 198760.4688)" gradientUnits="userSpaceOnUse" x1="-3426.3086" x2="-3425.7197" xlink:href="#p" y1="-267.0617" y2="-267.0617"/><linearGradient id="J" gradientTransform="matrix(0 35.02 172.6 0 51888.4219 120997.0078)" gradientUnits="userSpaceOnUse" x1="-3428.2617" x2="-3427.6731" xlink:href="#p" y1="-297.9964" y2="-297.9964"/><linearGradient id="K" gradientTransform="matrix(0 35.51 385.7 0 119520.8359 122671.7266)" gradientUnits="userSpaceOnUse" x1="-3428.2727" x2="-3427.6663" xlink:href="#E" y1="-307.9965" y2="-307.9965"/><linearGradient id="L" gradientTransform="matrix(0 286.52 303.49 0 93601.6328 981907.25)" gradientUnits="userSpaceOnUse" x1="-3424.2742" x2="-3423.6853" xlink:href="#p" y1="-306.0234" y2="-306.0234"/><linearGradient id="M" gradientTransform="matrix(0 125.08 138.13 0 41470.4062 429134.4062)" gradientUnits="userSpaceOnUse" x1="-3424.4355" x2="-3423.8467" xlink:href="#E" y1="-294.9672" y2="-294.9672"/><linearGradient id="N" gradientTransform="matrix(-143.44 269.77 -253.58 -152.6 -573074.0625 876505.0625)" gradientUnits="userSpaceOnUse" x1="-3428.9956" x2="-3428.3889" xlink:href="#E" y1="-323.3275" y2="-323.2917"/><linearGradient id="O" gradientTransform="matrix(-76.58 96.32 -96.32 -76.58 -294736.375 306661.8125)" gradientUnits="userSpaceOnUse" x1="-3439.0105" x2="-3438.4221" xlink:href="#E" y1="-332.8885" y2="-332.8885"/><linearGradient id="P" gradientTransform="matrix(0 24.69 31.24 0 7980.4766 85614.9297)" gradientUnits="userSpaceOnUse" x1="-3429.5676" x2="-3428.9788" xlink:href="#p" y1="-228.4453" y2="-228.4453"/><linearGradient id="Q" gradientTransform="matrix(0 -231.36 61.47 0 17509.1133 -791126.25)" gradientUnits="userSpaceOnUse" x1="-3423.6799" x2="-3423.0732" xlink:href="#w" y1="-271.1112" y2="-271.1112"/><linearGradient id="R" gradientTransform="matrix(0 17.33 32.21 0 8282.3779 60349.7695)" gradientUnits="userSpaceOnUse" x1="-3429.1079" x2="-3428.5012" xlink:href="#E" y1="-230.9394" y2="-230.9394"/><linearGradient id="S" gradientTransform="matrix(0 -24.74 67.55 0 19423.0996 -83596.4141)" gradientUnits="userSpaceOnUse" x1="-3417.9932" x2="-3417.4048" xlink:href="#w" y1="-275.0443" y2="-275.0443"/><linearGradient id="T" gradientTransform="matrix(.00000025 103.05 69.56 -.00000083 20075.2246 353744.5625)" gradientUnits="userSpaceOnUse" x1="-3424.582" x2="-3423.9753" xlink:href="#p" y1="-276.4722" y2="-276.4722"/><linearGradient id="U"><stop offset="0" stop-color="#152873"/><stop offset="1" stop-color="#2b5acc"/></linearGradient><linearGradient id="V" gradientTransform="matrix(-.05720115 56.1546 37.9022 .03600001 9889.4287 193177.1875)" gradientUnits="userSpaceOnUse" x1="-3425.2791" x2="-3424.6902" xlink:href="#U" y1="-243.9571" y2="-243.9571"/><linearGradient id="W" gradientTransform="matrix(0 27.76 18.74 0 4031.1387 95955.6016)" gradientUnits="userSpaceOnUse" x1="-3426.6499" x2="-3426.0432" xlink:href="#p" y1="-170.0787" y2="-170.0787"/><linearGradient id="X" gradientTransform="matrix(0 16.29 11 0 1581.7054 56686.6133)" gradientUnits="userSpaceOnUse" x1="-3427.7896" x2="-3427.1833" xlink:href="#E" y1="-67.5728" y2="-67.5728"/><linearGradient id="Y" gradientTransform="matrix(0 9.5 6.41 0 163.6402 33459.332)" gradientUnits="userSpaceOnUse" x1="-3431.3569" x2="-3430.7681" xlink:href="#E" y1="107.1322" y2="107.1322"/><linearGradient id="Z" gradientTransform="matrix(0 293.79 161.63 0 48141.0312 1006837)" gradientUnits="userSpaceOnUse" x1="-3424.2947" x2="-3423.7058" xlink:href="#p" y1="-296.1055" y2="-296.1055"/><linearGradient id="aa" gradientTransform="matrix(0 242.57 127.46 0 37360.81640000001 831463.0625)" gradientUnits="userSpaceOnUse" x1="-3424.3892" x2="-3423.8008" xlink:href="#E" y1="-290.9102" y2="-290.9102"/><linearGradient id="ab" gradientTransform="matrix(-94.62 149.1 -149.1 -94.62 -373819.6875 481684.1562)" gradientUnits="userSpaceOnUse" x1="-3433.9236" x2="-3433.3347" xlink:href="#E" y1="-329.8825" y2="-329.8825"/><linearGradient id="ac" gradientTransform="matrix(0 -42.81 33.09 0 7418.9707 -145586.25)" gradientUnits="userSpaceOnUse" x1="-3422.2737" x2="-3421.6848" xlink:href="#w" y1="-219.2939" y2="-219.2939"/><linearGradient id="ad" gradientTransform="matrix(0 42.81 33.09 0 7418.9707 147663.8906)" gradientUnits="userSpaceOnUse" x1="-3427.4644" x2="-3426.876" xlink:href="#g" y1="-219.2939" y2="-219.2939"/><linearGradient id="ae" gradientTransform="matrix(0 108.16 69.76 0 18982.6328 371347.375)" gradientUnits="userSpaceOnUse" x1="-3425.0347" x2="-3424.4458" xlink:href="#p" y1="-269.7839" y2="-269.7839"/><linearGradient id="af" gradientTransform="matrix(-39.59 62.12 -62.12 -39.59 -158132.9062 201224.7344)" gradientUnits="userSpaceOnUse" x1="-3448.4812" x2="-3447.8926" xlink:href="#E" y1="-350.803" y2="-350.803"/><linearGradient id="ag" gradientTransform="matrix(-31.07 39.52 -39.52 -31.07 -121880.0391 126569.1719)" gradientUnits="userSpaceOnUse" x1="-3464.7715" x2="-3464.1829" xlink:href="#E" y1="-363.8486" y2="-363.8486"/><linearGradient id="ah" gradientTransform="matrix(0 107.11 39.72 0 10354.1143 367795.2188)" gradientUnits="userSpaceOnUse" x1="-3425.1213" x2="-3424.5325" xlink:href="#p" y1="-243.9105" y2="-243.9105"/><linearGradient id="ai"><stop offset="0" stop-color="#ff3a23"/><stop offset="1" stop-color="#ff963e"/></linearGradient><linearGradient id="aj" gradientTransform="matrix(0 -102.69 46.38 0 12542.457 -350614.0625)" gradientUnits="userSpaceOnUse" x1="-3423.0657" x2="-3422.4768" xlink:href="#ai" y1="-254.8115" y2="-254.8115"/><linearGradient id="ak" gradientTransform="matrix(0 -107.35 52.8 0 14482.085 -366564.8438)" gradientUnits="userSpaceOnUse" x1="-3423.1619" x2="-3422.573" xlink:href="#w" y1="-261.5418" y2="-261.5418"/><linearGradient id="al" gradientTransform="matrix(0 -161.26 118.53 0 35262.2969 -551108.5625)" gradientUnits="userSpaceOnUse" x1="-3423.3774" x2="-3422.7886" xlink:href="#w" y1="-291.5346" y2="-291.5346"/><linearGradient id="am" gradientTransform="matrix(0 -107.35 27.33 0 6597.5708 -366467.0625)" gradientUnits="userSpaceOnUse" x1="-3422.7876" x2="-3422.1987" xlink:href="#w" y1="-213.8057" y2="-213.8057"/><linearGradient id="an" gradientTransform="matrix(0 180.03 66.76 0 19018.8633 617399.375)" gradientUnits="userSpaceOnUse" x1="-3424.6558" x2="-3424.0671" xlink:href="#p" y1="-273.648" y2="-273.648"/><linearGradient id="ao" gradientTransform="matrix(0 -107.35 37.45 0 9608.9775 -366467.0625)" gradientUnits="userSpaceOnUse" x1="-3422.7876" x2="-3422.1987" xlink:href="#w" y1="-239.2676" y2="-239.2676"/><linearGradient id="ap" gradientTransform="matrix(0 107.11 54.43 0 15096.2217 367795.2188)" gradientUnits="userSpaceOnUse" x1="-3425.1213" x2="-3424.5325" xlink:href="#p" y1="-263.8927" y2="-263.8927"/><linearGradient id="aq" gradientTransform="matrix(0 -83.08 27.33 0 6409.1216 -283352.8125)" gradientUnits="userSpaceOnUse" x1="-3422.6389" x2="-3422.05" xlink:href="#g" y1="-211.0219" y2="-211.0219"/><linearGradient id="ar" gradientTransform="matrix(0 63.03 30.2 0 7464.2383 216869.1562)" gradientUnits="userSpaceOnUse" x1="-3426.0229" x2="-3425.4167" xlink:href="#U" y1="-222.9771" y2="-222.9771"/><linearGradient id="as" gradientTransform="matrix(0 197.33 81.24 0 23230.3418 676616.375)" gradientUnits="userSpaceOnUse" x1="-3424.6106" x2="-3424.0037" xlink:href="#p" y1="-279.2969" y2="-279.2969"/><linearGradient id="at" gradientTransform="matrix(0 162.46 57.71 0 15809.1445 557256.875)" gradientUnits="userSpaceOnUse" x1="-3424.6113" x2="-3424.0225" xlink:href="#E" y1="-264.5799" y2="-264.5799"/><linearGradient id="au" gradientTransform="matrix(-44.66 69.5 -69.5 -44.66 -177212.9688 224949.9062)" gradientUnits="userSpaceOnUse" x1="-3444.3789" x2="-3443.79" xlink:href="#E" y1="-344.2702" y2="-344.2702"/><linearGradient id="av"><stop offset="0" stop-color="#e6f7ff"/><stop offset="1" stop-color="#66beff"/></linearGradient><linearGradient id="aw" gradientTransform="matrix(0 9.4 140.91 0 41864.2109 33171.3711)" gradientUnits="userSpaceOnUse" x1="-3434.2996" x2="-3433.6931" xlink:href="#av" y1="-294.0253" y2="-294.0253"/><linearGradient id="ax" gradientTransform="matrix(0 12.14 140.91 0 41845.8047 42546.8086)" gradientUnits="userSpaceOnUse" x1="-3432.2036" x2="-3431.5974" xlink:href="#av" y1="-293.9725" y2="-293.9725"/><linearGradient id="ay" gradientTransform="matrix(0 -110.83 -29.31 0 -11973.0176 -378384.8125)" gradientUnits="userSpaceOnUse" x1="-3422.832" x2="-3422.2258" xlink:href="#ai" y1="-419.8957" y2="-419.8957"/><linearGradient id="az"><stop offset="0" stop-color="#85d1fe"/><stop offset="1" stop-color="#4a7ee8"/></linearGradient><linearGradient id="aA" gradientTransform="matrix(0 31.09 -42.6 0 -16158.5488 107455.5391)" gradientUnits="userSpaceOnUse" x1="-3426.804" x2="-3426.1973" xlink:href="#az" y1="-387.1519" y2="-387.1519"/><linearGradient id="aB" gradientTransform="matrix(0 -110.83 -81.45 0 -28303.2832 -378384.8125)" gradientUnits="userSpaceOnUse" x1="-3422.832" x2="-3422.2258" xlink:href="#w" y1="-352.3738" y2="-352.3738"/><linearGradient id="aC" gradientTransform="matrix(0 31.09 -118.37 0 -39941.5156 107455.5391)" gradientUnits="userSpaceOnUse" x1="-3426.804" x2="-3426.1973" xlink:href="#E" y1="-340.7878" y2="-340.7878"/><linearGradient id="aD" gradientTransform="matrix(0 33.89 -15.92 0 -7691.9678 117086.8594)" gradientUnits="userSpaceOnUse" x1="-3427.7231" x2="-3427.1343" xlink:href="#E" y1="-506.0296" y2="-506.0296"/><linearGradient id="aE" gradientTransform="matrix(0 129.57 -61.05 0 -21873.5898 444670.125)" gradientUnits="userSpaceOnUse" x1="-3424.9521" x2="-3424.3633" xlink:href="#az" y1="-364.7353" y2="-364.7353"/><linearGradient id="aF" gradientTransform="matrix(0 129.57 -76.18 0 -26594.5566 444670.125)" gradientUnits="userSpaceOnUse" x1="-3424.9521" x2="-3424.3633" xlink:href="#E" y1="-354.6216" y2="-354.6216"/><linearGradient id="aG" gradientTransform="matrix(0 91.6 -53.86 0 -19554.8047 314677.7812)" gradientUnits="userSpaceOnUse" x1="-3425.3049" x2="-3424.6987" xlink:href="#p" y1="-370.8748" y2="-370.8748"/><linearGradient id="aH" gradientTransform="matrix(0 51.36 -30.2 0 -12100.3203 176916.6094)" gradientUnits="userSpaceOnUse" x1="-3426.1807" x2="-3425.5745" xlink:href="#U" y1="-414.5972" y2="-414.5972"/><path clip-rule="evenodd" d="m377.6 243.3c-7.3-12.5-23.3-16.8-35.9-9.6l-143.1 82.6c-12.6 7.3-16.9 23.3-9.6 35.9s23.3 16.9 35.9 9.6l143.1-82.7c12.6-7.2 16.9-23.3 9.6-35.8z" fill="url(#b)" fill-rule="evenodd"/><path clip-rule="evenodd" d="m864 297.1c-7.3-12.6-23.3-16.9-35.9-9.6l-32.2 18.6c-12.6 7.3-16.9 23.3-9.6 35.9s23.3 16.9 35.9 9.6l32.2-18.6c12.6-7.3 16.9-23.3 9.6-35.9z" fill="url(#c)" fill-rule="evenodd"/><path clip-rule="evenodd" d="m347.8 103.5c-7.3-12.5-23.3-16.8-35.8-9.6l-42.2 24.4c-12.7 7-17.3 23-10.3 35.7s23 17.3 35.7 10.3c.3-.2.6-.3.8-.5l42.1-24.3c12.6-7.3 16.9-23.4 9.7-36z" fill="url(#d)" fill-rule="evenodd"/><path clip-rule="evenodd" d="m507.1 571.1c-7.3-12.6-23.3-16.9-35.9-9.6l-85.7 49.5c-12.6 7.3-16.9 23.3-9.6 35.9s23.3 16.9 35.9 9.6l85.7-49.4c12.6-7.3 16.9-23.4 9.6-36z" fill="url(#e)" fill-rule="evenodd"/><path clip-rule="evenodd" d="m632.8 93.3c-7.3-12.6-23.3-16.9-35.9-9.6l-117.7 68c-12.6 7.3-16.9 23.3-9.6 35.9s23.3 16.9 35.9 9.6l117.7-68c12.6-7.3 16.9-23.4 9.6-35.9z" fill="url(#f)" fill-rule="evenodd"/><path clip-rule="evenodd" d="m507 87.4c4.6-2.7 10.3-2.7 14.9 0l226.3 130.6c4.6 2.7 7.4 7.6 7.5 12.9v261.2c0 5.3-2.8 10.2-7.5 12.9l-226.3 130.6c-4.6 2.7-10.3 2.7-14.9 0l-226.2-130.6c-4.6-2.7-7.5-7.6-7.5-12.9v-261.2c0-5.3 2.8-10.2 7.5-12.9z" fill="url(#h)" fill-rule="evenodd"/><path clip-rule="evenodd" d="m410.3 143.2 345.4 199.4v149.5c0 5.3-2.8 10.3-7.5 12.9l-143.1 82.6-331.8-191.5v-165.2c0-5.3 2.8-10.2 7.5-12.9z" fill="url(#i)" fill-rule="evenodd"/><path clip-rule="evenodd" d="m273.3 340.7 379.7 219.2-131.1 75.7c-4.6 2.7-10.3 2.7-14.9 0l-226.2-130.6c-4.6-2.7-7.5-7.6-7.5-12.9z" fill="url(#j)" fill-rule="evenodd"/><path clip-rule="evenodd" d="m513.5 602.5h-.1l-4.6-2.7c-.6-.5-1-1.2-1.1-1.9 0-.5.2-1 .5-1.4.5-.6.7-.5 1.3-.8h.8l.7.3 3.6 2 3.6-2c.5-.2 1-.3 1.5-.3l.7.3c.6.4 1 1.2 1.1 1.9 0 .5-.2 1-.5 1.4-.2.2-.4.3-.6.5l-4.6 2.7h-.1c-.2.1-.4.2-.6.2-.3 0-.5 0-.8 0-.4-.1-.6-.1-.8-.2zm26.1-17.9c.4.3.8.7 1 1.2.3.7.1 1.6-.4 2.2-.2.2-.4.4-.6.5l-7.8 4.5c-.5.3-1 .4-1.5.3-1.3-.2-2.1-1.5-1.8-2.7 0-.1 0-.2.1-.2.2-.7.5-.7 1-1.2l7.7-4.5c.5-.2 1-.3 1.5-.3zm-48.7-.3.7.3 7.7 4.6c.5.4.7.5 1 1.2.4 1.2-.3 2.6-1.6 2.9-.1 0-.1 0-.2.1-.5.1-1 0-1.5-.3l-7.8-4.5c-.4-.3-.8-.7-1-1.2-.3-.7-.1-1.6.4-2.2.4-.6.7-.5 1.3-.8zm68.1-10.9c.4.3.8.7 1 1.2.3.7.1 1.6-.4 2.2-.2.2-.4.3-.6.5l-7.7 4.5c-.5.3-1 .4-1.5.3-1.3-.2-2.1-1.5-1.8-2.7 0-.1 0-.2.1-.2.2-.7.5-.7 1-1.2l7.7-4.5c.5-.2 1-.3 1.5-.3zm-87.4-.2.7.3 7.7 4.5c.5.4.7.5 1 1.2.4 1.2-.3 2.5-1.5 2.9-.1 0-.2.1-.3.1-.5.1-1 0-1.5-.3l-7.7-4.5c-.6-.4-1-1.2-1.1-1.9 0-.5.2-1 .5-1.4.4-.4.8-.7 1.4-.8zm106.8-11c.4.3.8.7 1 1.2.3.8.1 1.6-.4 2.2-.2.2-.4.3-.6.5l-7.8 4.5c-.5.3-1 .4-1.5.3-1.3-.2-2.1-1.5-1.8-2.7 0-.1 0-.2.1-.3.2-.7.5-.7 1-1.2l7.7-4.5c.5-.2 1-.3 1.5-.2zm-126.2-.2.7.2 7.7 4.5c.5.4.7.5 1 1.2.4 1.2-.3 2.5-1.5 2.9-.1 0-.2 0-.3.1-.5.1-1 0-1.5-.3l-7.8-4.5c-.5-.4-.7-.5-1-1.2-.3-1 .1-2.1 1-2.7.6-.1 1.1-.2 1.7-.2zm145.6-10.9c.4.3.8.7 1 1.2.3.8.1 1.6-.4 2.2-.2.2-.4.3-.6.5l-7.7 4.5c-1.1.6-2.5.2-3.1-.9-.3-.6-.4-1.2-.2-1.8.2-.7.5-.7 1-1.2l7.7-4.5c.5-.2 1-.3 1.5-.3zm-165-.3.7.3 7.7 4.5c.5.4.7.5 1 1.2.4 1.2-.2 2.5-1.4 2.9-.6.2-1.3.2-1.8-.2l-7.7-4.5c-.5-.4-.7-.5-1-1.2-.3-1 .1-2.1 1-2.7.5-.2 1-.3 1.5-.3zm184.2-10.8c.6.5 1 1.2 1.1 1.9 0 .5-.2 1-.5 1.4-.2.2-.4.4-.6.5l-7.8 4.5c-.5.3-1 .4-1.5.3-1.3-.3-2.1-1.5-1.8-2.8 0-.1 0-.1.1-.2.2-.7.5-.7 1-1.2l7.7-4.5c.5-.2 1-.3 1.5-.3zm-203.6-.3.7.3 7.7 4.5c.5.4.7.5 1 1.2.4 1.2-.3 2.6-1.6 2.9-.1 0-.1 0-.2.1-.5.1-1 0-1.5-.3l-7.7-4.5c-.5-.4-.7-.5-1-1.2-.3-1 .1-2.1 1-2.7.6-.3 1.1-.3 1.6-.3zm223-10.9c.6.5 1 1.2 1.1 1.9 0 .5-.2 1-.5 1.4-.2.2-.4.4-.6.5l-7.7 4.5c-.5.3-1 .4-1.5.3-1.3-.3-2.1-1.5-1.8-2.7 0-.1 0-.1.1-.2.2-.7.5-.7 1-1.2l7.7-4.5c.5-.2 1-.3 1.5-.3zm-242.4-.2.7.3 7.7 4.5c.5.4.7.5 1 1.2.4 1.2-.3 2.5-1.6 2.9-.1 0-.1 0-.2.1-.5.1-1 0-1.5-.3l-7.7-4.5c-.2-.1-.4-.3-.6-.5-.7-.8-.7-2 0-2.9.4-.5.7-.5 1.3-.8zm261.8-10.9c.6.4 1 1.2 1.1 1.9 0 .5-.2 1-.5 1.4-.2.2-.4.3-.6.5l-7.8 4.5c-.5.3-1 .4-1.5.3-1.3-.2-2.1-1.5-1.8-2.7 0-.1 0-.2.1-.3.2-.7.5-.7 1-1.2l7.7-4.5c.5-.2 1-.3 1.5-.3zm-281.1-.3.7.3 7.7 4.5c.5.4.7.5 1 1.2.4 1.2-.3 2.5-1.5 2.9-.1 0-.2 0-.3.1-.5.1-1 0-1.5-.3l-7.8-4.5c-.5-.4-.7-.5-1-1.2-.3-1 .1-2.1 1-2.7.6-.3 1.1-.4 1.7-.3zm300.5-10.9c.6.4 1 1.2 1.1 1.9 0 .5-.2 1-.5 1.4-.2.2-.4.4-.6.5l-7.7 4.5c-1.1.6-2.5.2-3.1-.8-.3-.6-.4-1.3-.2-1.9.2-.7.5-.7 1-1.2l7.7-4.5c.5-.2 1-.3 1.5-.3zm-319.9-.3.7.3 7.7 4.4c.5.4.7.5 1 1.2.4 1.2-.3 2.5-1.5 2.9-.1 0-.2 0-.2.1-.5.1-1 0-1.5-.3l-7.7-4.5c-.5-.4-.7-.5-1-1.2-.3-1 .1-2.1 1-2.7.4-.2.9-.3 1.5-.2zm339.3-10.9c.2.1.4.3.6.5.7.8.7 2 0 2.9-.2.2-.4.4-.6.5l-7.8 4.4c-.5.3-1 .4-1.5.3-1.3-.2-2.1-1.5-1.8-2.7 0-.1 0-.2.1-.3.2-.7.5-.7 1-1.2l7.7-4.5c.5-.2 1-.3 1.5-.3zm-358.6-.3.7.3 7.7 4.5c.5.4.7.5 1 1.2.4 1.2-.3 2.5-1.6 2.9-.1 0-.1 0-.2.1-.5.1-1.1 0-1.5-.3l-7.7-4.5c-.5-.4-.7-.5-1-1.2-.3-1 .1-2.1 1-2.7.5-.3 1-.4 1.6-.3zm377.9-10.9c.4.3.8.7 1 1.2.3.8.1 1.6-.4 2.2-.2.2-.4.3-.6.5l-7.7 4.5c-.5.3-1 .4-1.5.3-1.3-.3-2.1-1.5-1.8-2.7 0-.1 0-.1.1-.2.2-.7.5-.7 1-1.2l7.8-4.5c.5-.2 1-.3 1.5-.2zm-397.3-.2.7.2 7.7 4.5c.5.4.7.5 1 1.2.4 1.2-.3 2.5-1.5 2.9-.1 0-.2.1-.3.1-.5.1-1 0-1.5-.3l-7.7-4.5c-.5-.4-.7-.5-1-1.2-.4-1 .1-2.2 1-2.7.5-.2 1-.3 1.6-.2zm406-17.2c.5.4.7.5 1 1.2.1.3.1.5.1.8v8.9c-.1.7 0 .9-.5 1.4-.9.9-2.4 1-3.3.1 0 0-.1-.1-.1-.1-.3-.4-.5-.9-.5-1.4v-8.9c.1-.5.2-1 .5-1.4s.8-.7 1.3-.7c.5-.2 1-.1 1.5.1zm-413.9 0c.2.2.4.3.6.5.3.4.5.9.5 1.4v8.9c0 .5-.2 1-.5 1.4-.9.9-2.4 1-3.3.1 0 0-.1-.1-.1-.1-.5-.5-.4-.8-.5-1.4v-8.9c0-.3.1-.5.1-.8.3-.8 1-1.3 1.8-1.4.4.1.9.1 1.4.3zm413.9-22.3c.5.4.7.5 1 1.2.1.3.1.5.1.8v8.9c0 .5-.2 1-.5 1.4-.9.9-2.4 1-3.3.1 0 0-.1-.1-.1-.1-.3-.4-.5-.9-.5-1.4v-8.9c0-.5.2-1 .5-1.4s.8-.7 1.3-.8 1 0 1.5.2zm-413.9 0c.2.1.4.3.6.5.3.4.5.9.5 1.4v8.9c0 .5-.2 1-.5 1.4-.9.9-2.4 1-3.3.1 0 0-.1-.1-.1-.1-.3-.4-.5-.9-.5-1.4v-8.9c0-.5.2-1 .5-1.4s.8-.7 1.3-.8c.5 0 1 0 1.5.3zm0-22.4c.2.1.4.3.6.5.3.4.5.9.5 1.4v8.9c0 .5-.2 1-.5 1.4-.9.9-2.3 1-3.3.1-.1 0-.1-.1-.1-.1-.3-.4-.5-.9-.5-1.4v-8.8c0-.3.1-.5.1-.8.3-.8 1-1.3 1.8-1.4.4-.1.9 0 1.4.2zm413.9 0c.5.4.7.5 1 1.2.1.3.1.5.1.8v8.9c0 .5-.2 1-.5 1.4-.9.9-2.4 1-3.3.1 0 0-.1-.1-.1-.1-.3-.4-.5-.9-.5-1.4v-8.9c0-.5.2-1 .5-1.4s.8-.7 1.3-.8 1 0 1.5.2zm0-22.3c.5.4.7.5 1 1.2.1.3.1.5.1.8v8.9c0 .5-.2 1-.5 1.4-.9.9-2.4 1-3.3.1 0 0-.1-.1-.1-.1-.3-.4-.5-.9-.5-1.4v-8.9c0-.5.2-1 .5-1.4s.8-.7 1.3-.8 1-.1 1.5.2zm-413.9 0c.2.2.4.3.6.5.3.4.5.9.5 1.4v8.9c0 .5-.2 1-.5 1.4-.9.9-2.4 1-3.3.1 0 0-.1-.1-.1-.1-.3-.4-.5-.9-.5-1.4v-8.9c0-.3.1-.5.1-.8.3-.8 1-1.3 1.8-1.4.4 0 .9 0 1.4.3zm413.9-22.4c.5.4.7.5 1 1.2.1.3.1.5.1.8v8.9c0 .5-.2 1-.5 1.4-.9.9-2.3 1-3.3.1-.1 0-.1-.1-.1-.1-.3-.4-.5-.9-.5-1.4v-8.9c.1-.5.2-1 .5-1.4s.8-.7 1.3-.8 1 0 1.5.2zm-413.9 0c.2.1.4.3.6.5.3.4.5.9.5 1.4v8.9c0 .5-.2 1-.5 1.4-.9.9-2.4 1-3.3.1 0 0-.1-.1-.1-.1-.3-.4-.5-.9-.5-1.4v-8.9c0-.3.1-.5.1-.8.3-.8 1-1.3 1.8-1.4.4 0 .9.1 1.4.3zm413.9-22.4c.5.4.7.5 1 1.2.1.3.1.5.1.8v8.9c0 .5-.2 1-.5 1.4-.9.9-2.4 1-3.3.1 0 0-.1-.1-.1-.1-.3-.4-.5-.9-.5-1.4v-8.9c0-.5.2-1 .5-1.4s.8-.7 1.3-.8 1 0 1.5.2zm-413.9 0c.5.4.7.5 1 1.2.1.3.1.5.1.8v8.9c0 .5-.2 1-.5 1.4-.9.9-2.4 1-3.3.1 0 0-.1-.1-.1-.1-.3-.4-.5-.9-.5-1.4v-8.9c0-.3.1-.5.1-.8.3-.8 1-1.3 1.8-1.4.4-.1.9 0 1.4.2zm413.9-22.3c.5.4.7.5 1 1.2.1.3.1.5.1.8v8.9c0 .5-.2 1-.5 1.4-.9.9-2.3 1-3.3.1-.1 0-.1-.1-.1-.1-.3-.4-.5-.9-.5-1.4v-8.9c0-.5.2-1 .5-1.4s.8-.7 1.3-.8 1 0 1.5.2zm-413.9 0c.5.4.7.5 1 1.2.1.3.1.5.1.8v8.9c0 .5-.2 1-.5 1.4-.9.9-2.4 1-3.3.1 0 0-.1-.1-.1-.1-.3-.4-.5-.9-.5-1.4v-8.9c0-.5.2-1 .5-1.4s.8-.7 1.3-.8 1-.1 1.5.2zm413.9-22.4c.5.4.7.5 1 1.2.1.3.1.5.1.8v8.9c-.1.7 0 .9-.5 1.4-.9.9-2.4 1-3.3.1 0 0-.1-.1-.1-.1-.3-.4-.5-.9-.5-1.4v-8.9c0-.5.2-1 .5-1.4s.8-.7 1.3-.8 1 0 1.5.2zm-413.9 0c.2.1.4.3.6.5.3.4.5.9.5 1.4v8.9c0 .5-.2 1-.5 1.4-.9.9-2.4 1-3.3.1 0 0-.1-.1-.1-.1-.5-.5-.4-.8-.5-1.4v-8.9c0-.3.1-.5.1-.8.3-.8 1-1.3 1.8-1.4.4 0 .9.1 1.4.3zm413.9-22.3c.5.4.7.5 1 1.2.1.3.1.5.1.8v8.9c0 .5-.2 1-.5 1.4-.9.9-2.4 1-3.3.1 0 0-.1-.1-.1-.1-.3-.4-.5-.9-.5-1.4v-8.9c0-.5.2-1 .5-1.4s.8-.7 1.3-.8c.5-.2 1-.1 1.5.2zm-413.9 0c.2.1.4.3.6.5.3.4.5.9.5 1.4v8.9c0 .5-.2 1-.5 1.4-.9.9-2.4 1-3.3.1 0 0-.1-.1-.1-.1-.3-.4-.5-.9-.5-1.4v-8.9c0-.3.1-.5.1-.8.3-.8 1-1.3 1.8-1.4.4 0 .9 0 1.4.3zm413.9-22.4c.5.4.7.5 1 1.2.1.3.1.5.1.8v8.9c0 .5-.2 1-.5 1.4-.9.9-2.3 1-3.3.1-.1 0-.1-.1-.1-.1-.3-.4-.5-.9-.5-1.4v-8.9c0-.5.2-1 .5-1.4s.8-.7 1.3-.8 1 0 1.5.2zm-413.9 0c.2.1.4.3.6.5.3.4.5.9.5 1.4v8.9c0 .5-.2 1-.5 1.4-.9.9-2.4 1-3.3.1 0 0-.1-.1-.1-.1-.3-.4-.5-.9-.5-1.4v-8.9c0-.3.1-.5.1-.8.3-.8 1-1.3 1.8-1.4.4 0 .9.1 1.4.3zm413.9-22.4c.5.4.7.5 1 1.2.1.3.1.5.1.8v8.9c0 .5-.2 1-.5 1.4-.9.9-2.4 1-3.3.1 0 0-.1-.1-.1-.1-.3-.4-.5-.9-.5-1.4v-8.9c0-.5.2-1 .5-1.4s.8-.7 1.3-.8 1 0 1.5.2zm-413.9 0c.2.2.4.3.6.5.3.4.5.9.5 1.4v8.9c0 .5-.2 1-.5 1.4-.9.9-2.4 1-3.3.1 0 0-.1-.1-.1-.1-.3-.4-.5-.9-.5-1.4v-8.9c0-.3.1-.5.1-.8.3-.8 1-1.3 1.8-1.4.4 0 .9.1 1.4.3zm397.2-12.7 7.7 4.5.6.5c.3.6.5.7.5 1.4 0 1.1-.8 2-1.8 2.2-.5.1-1 0-1.5-.3l-7.9-4.6c-.5-.4-.7-.5-1-1.2-.3-1 .1-2.1 1-2.7.5-.3 1-.4 1.5-.3zm-380.4 0c.6.5 1 1.2 1.1 1.9 0 .5-.2 1-.5 1.4-.2.2-.4.4-.6.5l-7.8 4.5c-.5.3-1 .4-1.5.3-1.3-.2-2.1-1.5-1.8-2.7 0-.1 0-.2.1-.2.2-.7.5-.7 1-1.2l7.7-4.5c.5-.2 1-.3 1.5-.3zm360.9-11.2 7.8 4.5.6.5c.3.4.5.9.5 1.4 0 1.1-.8 2-1.8 2.2-.5.1-1.1 0-1.5-.3l-7.7-4.5c-.5-.4-.7-.5-1-1.2-.3-1 .1-2.1 1-2.7.5-.3 1-.4 1.5-.3zm-341.7 0c.6.5 1 1.2 1.1 1.9 0 .5-.2 1-.5 1.4-.2.2-.4.4-.6.5l-7.8 4.5c-.5.3-1 .4-1.5.3-1.3-.2-2.1-1.5-1.8-2.7 0-.1 0-.2.1-.3.2-.7.5-.7 1-1.2l7.7-4.5c.5-.2 1-.3 1.5-.3l.7.3zm322.4-11.2 7.7 4.5.6.5c.3.4.5.9.5 1.4 0 1.1-.8 2-1.8 2.2-.5.1-1 0-1.5-.3l-7.7-4.5c-.5-.4-.7-.5-1-1.2-.3-1 .1-2.1 1-2.7.5-.3 1-.4 1.5-.3zm-303 0c.4.3.8.7 1 1.2.3.8.1 1.6-.4 2.2-.2.2-.4.3-.6.5l-7.8 4.4c-.5.3-1 .4-1.5.3-1.3-.2-2.1-1.5-1.8-2.7 0-.1 0-.2.1-.3.2-.7.5-.7 1-1.2l7.7-4.5c.5-.2 1-.3 1.5-.3zm283.7-11.1 7.7 4.5.6.5c.3.4.5.9.5 1.4 0 1.2-1 2.2-2.2 2.2-.4 0-.8-.1-1.1-.3l-7.7-4.5c-.5-.4-.7-.5-1-1.2-.3-1 .1-2.1 1-2.7.5-.3 1-.4 1.5-.3zm-264.3 0c.2.1.4.3.6.5.7.8.7 2 0 2.9-.2.2-.4.4-.6.5l-7.7 4.5c-1.1.6-2.5.2-3.1-.8-.3-.6-.4-1.3-.2-1.9.2-.7.5-.7 1-1.2l7.7-4.5c.5-.2 1-.3 1.5-.3zm244.9-11.2 7.7 4.5.6.5c.3.6.5.7.5 1.4 0 1.1-.8 2-1.8 2.2-.5.1-1 0-1.5-.3l-7.8-4.4c-.5-.4-.7-.5-1-1.2-.3-1 .1-2.1 1-2.7.5-.3 1-.4 1.5-.3zm-225.5 0c.6.5 1 1.2 1.1 1.9 0 .5-.2 1-.5 1.4-.2.2-.4.4-.6.5l-7.8 4.5c-.5.3-1 .4-1.5.3-1.3-.2-2.1-1.5-1.8-2.7 0-.1 0-.2.1-.3.2-.7.5-.7 1-1.2l7.7-4.5c.5-.2 1-.3 1.5-.3zm206.1-11.2 7.8 4.4.6.5c.3.4.5.9.5 1.4 0 1.1-.8 2-1.8 2.2-.5.1-1.1 0-1.5-.3l-7.7-4.5c-.5-.4-.7-.5-1-1.2-.4-1.1.1-2.4 1.3-2.9.4-.1.8-.2 1.2-.1zm-186.8 0c.2.2.4.3.6.5.7.8.7 2 0 2.9-.2.2-.4.3-.6.5l-7.7 4.5c-.5.3-1 .4-1.5.3-1.3-.2-2.1-1.5-1.8-2.7 0-.1 0-.2.1-.3.2-.7.5-.7 1-1.2l7.8-4.5c.5-.2 1-.3 1.5-.2zm167.4-11.2 7.7 4.5.6.5c.3.4.5.9.5 1.4 0 1.1-.8 2-1.8 2.2-.5.1-1 0-1.5-.2l-7.8-4.5c-.5-.4-.7-.5-1-1.2-.3-1 .1-2.1 1-2.7.5-.3 1-.4 1.5-.3zm-148.1 0c.4.3.8.7 1 1.2.3.8.1 1.6-.4 2.2-.2.2-.4.4-.6.5l-7.7 4.6c-.5.3-1 .3-1.5.2-1.3-.2-2.1-1.4-1.9-2.7 0-.1 0-.2.1-.3.2-.7.5-.7 1-1.2l7.7-4.5c.5-.2 1-.3 1.5-.3zm128.7-11.2 7.8 4.5.6.5c.3.4.5.9.5 1.4 0 1.1-.8 2-1.8 2.2-.5.1-1.1 0-1.5-.3l-7.7-4.5c-.5-.4-.7-.5-1-1.2-.3-1 .1-2.1 1-2.7.5-.3 1-.4 1.5-.3zm-109.3 0c.6.5 1 1.2 1.1 1.9 0 .5-.2 1-.5 1.4-.2.2-.4.4-.6.5l-7.7 4.5c-.5.3-1 .4-1.5.3-1.3-.3-2.1-1.5-1.8-2.8 0-.1 0-.1.1-.2.2-.7.5-.7 1-1.2l7.8-4.5c.5-.2 1-.3 1.5-.3zm90-11.2 7.7 4.5.6.5c.3.4.5.9.5 1.4 0 1.1-.8 2-1.8 2.2-.5.1-1 0-1.5-.3l-7.8-4.5c-.5-.4-.7-.5-1-1.2-.4-1.2.2-2.5 1.3-2.9.4-.1.8-.2 1.1-.1zm-70.6 0c.4.3.8.7 1 1.2.3.7.1 1.6-.4 2.2-.2.2-.4.4-.6.5l-7.8 4.5c-.5.3-1 .4-1.5.3-1.3-.2-2.1-1.5-1.8-2.7 0-.1 0-.2.1-.3.2-.7.5-.7 1-1.2l7.7-4.5c.5-.2 1-.3 1.5-.3zm51.2-11.1 7.8 4.5.6.5c.3.4.5.9.5 1.4 0 1.1-.8 2-1.8 2.2-.5.1-1.1 0-1.5-.3l-7.7-4.5c-.5-.4-.7-.5-1-1.2-.3-1 .1-2.1 1-2.7.5-.3 1-.4 1.5-.3zm-31.8 0c.2.1.4.3.6.5.7.8.7 2 0 2.9-.2.2-.4.3-.6.5l-7.7 4.5c-.5.3-1 .4-1.5.3-1.3-.2-2.1-1.5-1.8-2.7 0-.1 0-.2.1-.3.2-.7.5-.7 1-1.2l7.8-4.5c.5-.2 1-.3 1.5-.3zm13.7-9.2c.5-.3 1-.4 1.5-.3l.7.3 4.3 2.5.6.5c.3.4.5.9.5 1.4 0 1.1-.8 2-1.8 2.2-.5.1-1 0-1.5-.3l-3.2-1.8-3.2 1.8c-.5.3-1 .4-1.5.3-1.3-.2-2.1-1.5-1.8-2.7 0-.1 0-.2.1-.2.2-.7.5-.7 1-1.2z" fill="#fff" fill-rule="evenodd"/><path clip-rule="evenodd" d="m556.6 279.3c5-6.7 14.3-11.2 26-12.1 10.6-.9 21.2 1.1 30.6 5.9l-8 17.1c-7.5-3.6-18.2-6.6-24.4-6.1-3.7.3-6.1 1.8-6.1 4.4 0 10.6 38.3 1.3 38.3 27.3 0 15.3-13.8 23.7-30.2 25-12.5 1-26-2.3-35.3-8.6l8.2-16.9c7.5 5.7 19.7 9.4 27.3 8.9 4.6-.4 7.5-2.1 7.5-5.4 0-9.5-28.9-3.2-36.5-18.1l-17.8 1.4c-1.3.1-2.6-.3-3.6-1.2s-1.5-2.2-1.5-3.5c0-1.7 1.3-3.2 3.1-3.3l18-1.4v-.2c0-1.5.2-3 .4-4.5l-7.6.6c-2.6.2-4.9-1.8-5.1-4.4 0-.1 0-.2 0-.3 0-1.7 1.4-3.2 3.1-3.3l13.4-1.1zm86.2 56.1-21.7 1.8v-72.1l21.7-1.8v28.7l26-2v-28.7l21.7-1.8v72l-12.6 1-19.8 1.6c-1.3.1-2.6-.4-3.6-1.2-1-.9-1.5-2.2-1.5-3.5 0-1.7 1.3-3.2 3.1-3.3l12.6-.9v-18.6l-26.1 2.1zm-247.5-36-35.1 2.8v14.4l32.6-2.6v16.4l-32.6 2.6v24.7l-21.7 1.8v-49.2l-1.2.1c-2.6.2-4.9-1.8-5.1-4.4 0-.1 0-.2 0-.3 0-1.7 1.3-3.2 3.1-3.3l3.2-.2v-6.4l-8.8.7c-2.6.2-4.9-1.7-5.1-4.3 0-.1 0-.3 0-.4 0-1.7 1.3-3.2 3.1-3.3l67.8-5.4v16.4zm149.6 43.7-23.2 1.8-4.3-11.2-29.6 2.3-4.4 11.9-22.4 1.8 22.8-54.3-16.4 1.3c-2.6.2-4.9-1.7-5.1-4.3 0-.1 0-.3 0-.4 0-1.7 1.3-3.2 3.1-3.3l22-1.8 4.9-11.6 22.4-1.8zm-120-8.4 30.8-2.4v17.8l-33.3 2.6-22 1.8c-1.3.1-2.6-.4-3.6-1.2-1-.9-1.5-2.2-1.5-3.5 0-1.7 1.3-3.2 3.1-3.3l4.8-.4v-63.8l21.7-1.8zm86.7-16-8.8-22.9-8.9 24.2z" fill="url(#l)" fill-rule="evenodd"/><path clip-rule="evenodd" d="m359.9 389.1c5.4-9.5 17.1-15.9 32.6-17.1 13.2-1.1 26.8 1.8 36.2 7l-9.5 20.2c-8.9-4.3-21.5-7.8-28.8-7.1-4.3.3-7.1 2-7.1 5.2 0 12.5 45.2 1.5 45.2 32.2 0 18.1-16.3 28-35.7 29.5-12.7 1-25.4-1.5-36.7-7.2l-6.7.5c-2.6.2-4.9-1.7-5.1-4.3 0-.1 0-.3 0-.4 0-1.7 1.3-3.2 3.1-3.3l6.3-.5 7.1-14.8c8.9 6.7 23.4 11.1 32.3 10.4 5.4-.4 8.9-2.5 8.9-6.4 0-11.1-33.4-4-42.8-20.8l-5.2.4c-1.3.1-2.6-.4-3.6-1.2-1-.9-1.5-2.2-1.5-3.5 0-1.7 1.3-3.2 3.1-3.3l4.9-.4c0-.7-.1-1.5-.1-2.3 0-1.4.1-2.7.3-4.1l-10.7.8c-2.6.2-4.9-1.7-5.1-4.3 0-.1 0-.3 0-.4 0-1.7 1.3-3.2 3.1-3.3zm168.7 58.3-27.5 2.2-5.1-13.2-35 2.8-5.2 14-26.4 2.1 23.5-55.9-1.5.1c-1.3.1-2.6-.4-3.6-1.2-1-.9-1.5-2.2-1.5-3.5 0-1.7 1.3-3.2 3.1-3.3l7.1-.6 2.8-6.6-15.4 1.2c-1.3.1-2.6-.3-3.6-1.2s-1.5-2.2-1.5-3.5c0-1.7 1.3-3.2 3.1-3.3l21-1.7 3.6-8.4 26.4-2.1zm32-23.6 36.3-2.9v21.1l-62 4.9v-35.5l-4.3.3c-2.6.2-4.9-1.7-5.1-4.3 0-.1 0-.3 0-.4 0-1.7 1.3-3.2 3.1-3.3l6.4-.5v-6.4l-11.9.9c-2.6.2-4.9-1.7-5.1-4.3 0-.1 0-.3 0-.4 0-1.7 1.3-3.2 3.1-3.3l14-1.1v-26.6l25.7-2v63.8zm115.9-53.7-45.1 3.6v13.4l40.9-3.2v19.4l-40.9 3.2v13.5l46.4-3.7v19.4l-72 5.7v-60.5l-4.4.4c-1.3.1-2.6-.4-3.6-1.2-1-.9-1.6-2.2-1.5-3.6 0-1.7 1.3-3.2 3.1-3.3l6.4-.5v-6.3l-12 .9c-2.6.2-4.9-1.7-5.1-4.3 0-.1 0-.3 0-.4 0-1.7 1.3-3.2 3.1-3.3l14-1.1v-1.8l70.8-5.6zm-187.3 48.4-10.4-27-10.6 28.5z" fill="url(#m)" fill-rule="evenodd"/><path clip-rule="evenodd" d="m836 448.9c-10.4-18.1-33.6-24.3-51.6-13.8l-104.5 60.3c-18.2 10.3-24.6 33.3-14.3 51.5s33.3 24.6 51.5 14.3c.2-.1.4-.2.6-.4l104.5-60.3c18.1-10.4 24.3-33.5 13.8-51.6z" fill="url(#n)" fill-rule="evenodd"/><path clip-rule="evenodd" d="m319.6 388.4c-10.2-17.6-32.7-23.6-50.3-13.5l-60 34.6c-17.6 10.2-23.7 32.7-13.5 50.3s32.7 23.7 50.3 13.5l60-34.6c17.7-10.1 23.7-32.7 13.5-50.3z" fill="url(#o)" fill-rule="evenodd"/><path clip-rule="evenodd" d="m292.6 561.2c26.5 10.6 39.4 40.7 28.8 67.3-10.6 26.5-40.7 39.4-67.3 28.8s-39.4-40.7-28.8-67.3c0 0 0 0 0-.1 10.7-26.4 40.8-39.3 67.3-28.7z" fill="url(#q)" fill-rule="evenodd"/><path d="m256 627.6c-1 .9-2.2 1.5-3.5 2-.9.3-1.9.3-2.9 0-1-.4-1.9-1.2-2.3-2.2s-.4-2.2 0-3.2c.2-.6.6-1.1 1-1.6s.9-1 1.4-1.4l39-31.1c1.1-.9 2.3-1.5 3.6-2 .9-.3 1.9-.2 2.8.2 1.1.4 1.9 1.2 2.4 2.2.4 1 .4 2.1 0 3.1-.2.5-.5 1-.9 1.5-.5.6-1.1 1.1-1.7 1.5zm23.6.5c-.4 1-.4 2.2 0 3.2.3 1 1.1 1.8 2 2.2 1 .4 2 .3 2.9-.2 1-.5 1.8-1.3 2.1-2.3.4-1 .4-2.2 0-3.2-.7-1.9-2.7-2.8-4.5-2.2-.2.1-.3.1-.4.2-.9.4-1.7 1.3-2.1 2.3zm-7-2.8c1.1-2.9 3.4-5.3 6.2-6.6 5.6-2.5 12.2 0 14.8 5.6.1.1.1.3.2.5 2.4 6-.4 12.8-6.2 15.5-2.8 1.3-5.9 1.4-8.8.2-2.9-1.1-5.1-3.3-6.2-6.2-1.3-2.9-1.3-6.1 0-9zm-12.5-38.1c-.4 1-.5 2.2-.1 3.2.7 1.9 2.7 2.8 4.6 2.1.1-.1.3-.1.4-.2 2-1 3-3.4 2.2-5.5-.3-1-1.1-1.8-2.1-2.1-1-.4-2-.3-2.9.1-.9.6-1.7 1.4-2.1 2.4zm-7.1-2.8c1.1-2.9 3.3-5.3 6.2-6.6 5.6-2.6 12.2-.1 14.8 5.5.1.2.1.3.2.5 2.4 6-.4 12.8-6.2 15.5-5.6 2.5-12.3 0-14.8-5.6-.1-.1-.1-.3-.2-.4-1.3-2.8-1.3-6 0-8.9z" fill="url(#r)"/><path clip-rule="evenodd" d="m377.6 108.5c24.9 6.3 40 31.7 33.7 56.6s-31.7 40-56.6 33.7-40-31.7-33.7-56.6c6.4-24.9 31.7-40 56.6-33.7z" fill="url(#s)" fill-rule="evenodd"/><path d="m353 172.1c-.8.9-1.8 1.6-2.9 2.2-.8.4-1.7.5-2.6.3-1-.2-1.8-.9-2.3-1.8s-.7-1.9-.4-2.9c.1-.6.4-1.1.7-1.6s.7-1 1.1-1.4l31.1-32.4c.8-.8 1.8-1.5 2.8-2 1.8-.7 3.8-.1 4.9 1.5.5.8.7 1.8.4 2.8-.1.5-.4 1-.6 1.4-.4.6-.8 1.1-1.3 1.6zm21.2-2.4c-.3 1-.1 2 .3 2.8.4.9 1.2 1.5 2.1 1.8.9.2 1.9 0 2.6-.5.8-.6 1.4-1.4 1.6-2.4.3-1 .2-2-.3-2.9-.4-.8-1.2-1.5-2.1-1.7s-1.9-.1-2.6.5c-.8.7-1.4 1.6-1.6 2.4zm-6.7-1.6c.6-2.8 2.3-5.1 4.8-6.6 4.7-2.9 10.9-1.5 13.9 3.2.1.1.1.2.2.3 1.4 2.4 1.8 5.4 1 8.1-.6 2.7-2.3 5.1-4.7 6.5-4.7 2.9-11 1.5-13.9-3.3-.1-.1-.1-.2-.2-.3-1.4-2.4-1.8-5.3-1.1-7.9zm-15.7-32.5c-.3 1-.2 2 .3 2.9.4.8 1.2 1.5 2.1 1.7s1.9 0 2.6-.5c.8-.5 1.4-1.4 1.6-2.4.3-.9.2-2-.3-2.8-.8-1.6-2.7-2.2-4.3-1.4-.1.1-.3.1-.4.2-.8.5-1.4 1.3-1.6 2.3zm-6.6-1.7c.6-2.8 2.3-5.1 4.8-6.6 4.7-2.9 10.9-1.5 13.9 3.2.1.1.1.2.2.3 2.8 5.1 1.2 11.5-3.7 14.6-4.7 2.9-11 1.5-13.9-3.3-.1-.1-.1-.2-.2-.3-1.5-2.3-1.9-5.2-1.1-7.9z" fill="url(#t)"/><path clip-rule="evenodd" d="m840 386.1c36.6-3.8 69.4 22.7 73.2 59.3s-22.7 69.4-59.3 73.2-69.4-22.7-73.2-59.3v-.1c-3.7-36.5 22.8-69.2 59.3-73.1z" fill="url(#u)" fill-rule="evenodd"/><path d="m838.3 483.7c-.7 1.6-1.6 3.1-2.8 4.3-.9.9-2 1.5-3.3 1.7-2.9.3-5.6-1.8-5.9-4.8-.1-.8-.1-1.6.1-2.4.2-.9.5-1.7.8-2.5l25.7-58.9c.7-1.6 1.6-3.1 2.8-4.3.9-.9 2.1-1.4 3.3-1.5 1.4-.2 2.9.2 4 1.1 1.1.8 1.9 2.2 1.9 3.6.1.8 0 1.5-.2 2.3-.2.9-.5 1.9-1 2.7zm27.2-13.6c.1 1.4.8 2.6 1.8 3.6 1 .9 2.3 1.4 3.6 1.2 1.3-.1 2.5-.9 3.2-2 1.7-2.4 1.3-5.7-.8-7.7-1.8-1.7-4.8-1.6-6.5.2-.1.2-.3.3-.4.5-.8 1.2-1.2 2.6-1 4zm-9.7 1c-.5-4 .6-8.1 3.1-11.2 4.9-6.3 13.9-7.4 20.2-2.5.2.1.3.3.5.4 6.3 5.4 7.3 14.8 2.2 21.4-4.9 6.3-13.9 7.5-20.2 2.6-.2-.1-.3-.2-.4-.4-3.1-2.6-5.1-6.3-5.4-10.3zm-37.2-35.8c.1 1.4.7 2.7 1.8 3.7 1.8 1.7 4.6 1.7 6.3-.1.2-.2.4-.4.5-.7 1.7-2.4 1.4-5.7-.8-7.7-1-.9-2.3-1.3-3.6-1.2s-2.5.8-3.3 1.9c-.7 1.3-1 2.7-.9 4.1zm-9.7 1.1c-.5-4 .6-8.1 3.1-11.2 2.4-3.1 6-5.1 9.9-5.5s7.8.8 10.7 3.4c6.3 5.4 7.3 14.8 2.2 21.4-4.9 6.3-14 7.4-20.3 2.5-.1-.1-.3-.2-.4-.3-3-2.6-4.9-6.4-5.2-10.3z" fill="url(#v)"/><circle cx="167.3" cy="321.5" fill="url(#x)" r="56.9"/><path clip-rule="evenodd" d="m163.7 329.8h-24.2c-.8 0-1.5-.6-1.5-1.5 0-.4.1-.7.4-1l37.6-43.9c.5-.6 1.5-.7 2.1-.1.4.4.6.9.5 1.4-2.6 10-7.5 28.5-7.5 28.5h24.2c.6 0 1.1.3 1.3.8s.2 1.1-.2 1.6l-37.5 43.9c-.4.5-1.2.6-1.8.3s-.9-1-.7-1.7c2.4-9.7 7.3-28.3 7.3-28.3z" fill="url(#y)" fill-rule="evenodd"/><circle cx="705.2" cy="657.8" fill="url(#z)" r="52.3"/><path clip-rule="evenodd" d="m701.9 665.4h-22.2c-.5 0-1-.3-1.2-.8s-.2-1 .2-1.4l34.5-40.4c.5-.6 1.3-.6 1.9-.2.4.3.6.9.4 1.4l-6.9 26.2h22.2c.5 0 1 .3 1.2.8s.2 1-.2 1.4l-34.4 40.4c-.5.6-1.3.6-1.9.2-.4-.3-.6-.9-.4-1.4 2.2-9.2 6.8-26.2 6.8-26.2z" fill="url(#A)" fill-rule="evenodd"/><circle cx="719.2" cy="90.5" fill="url(#B)" r="47.2"/><path clip-rule="evenodd" d="m716.2 97.3h-20c-.5 0-.9-.3-1.1-.7s-.1-.9.2-1.3l31.1-36.4c.4-.4 1-.6 1.5-.3s.7.8.6 1.4c-2.2 8.3-6.2 23.7-6.2 23.7h20c.5 0 .9.3 1.1.7s.1.9-.2 1.3l-31.1 36.4c-.4.4-1 .6-1.5.3s-.7-.8-.6-1.4c2.1-8.3 6.2-23.7 6.2-23.7z" fill="url(#C)" fill-rule="evenodd"/><path clip-rule="evenodd" d="m277 935c-5-1.5-8.6-6.1-8.7-11.3-.2-71.1-.2-142.2 0-213.3.2-6.4 5.4-11.6 11.8-11.8 107-.3 241.1-.3 348.2 0 6.4.2 11.6 5.3 11.8 11.8.2 71.1.2 142.2 0 213.3-.2 6.4-5.4 11.6-11.8 11.8-107 .3-241.1.3-348.2 0-1 0-2.1-.2-3.1-.5z" fill="url(#D)" fill-rule="evenodd"/><path clip-rule="evenodd" d="m621.6 909.8c.8 0 1.5-.7 1.5-1.5v-191.1c0-.8-.7-1.5-1.5-1.5h-334.7c-.8 0-1.5.7-1.5 1.5v191.1c0 .8.7 1.5 1.5 1.5z" fill="url(#F)" fill-rule="evenodd"/><path clip-rule="evenodd" d="m499.1 715.7 124 71.6v121c0 .8-.7 1.5-1.5 1.5h-212.3l-123.9-71.6v-121c0-.8.7-1.5 1.5-1.5z" fill="url(#G)" fill-rule="evenodd"/><path clip-rule="evenodd" d="m285.4 774.6 234.1 135.1h-232.6c-.8 0-1.5-.7-1.5-1.5z" fill="url(#H)" fill-rule="evenodd"/><path clip-rule="evenodd" d="m481.6 970.2v-34.5h-54.7v34.5z" fill="url(#I)" fill-rule="evenodd"/><path clip-rule="evenodd" d="m530.6 980.7v-20.9h-152.8v20.9z" fill="url(#J)" fill-rule="evenodd"/><path clip-rule="evenodd" d="m897.3 964c0-2.5-2-4.5-4.5-4.5h-332.5c-2.5 0-4.5 2-4.5 4.5v12.3c0 2.5 2 4.5 4.5 4.5h332.5c2.5 0 4.5-2 4.5-4.4z" fill="url(#K)" fill-rule="evenodd"/><path clip-rule="evenodd" d="m860.9 797.8c0-5.3-4.3-9.5-9.5-9.5h-249.6c-5.3 0-9.5 4.2-9.5 9.5v161.7h268.7v-161.7z" fill="url(#L)" fill-rule="evenodd"/><path d="m609.3 805.3h234.5v143.4h-234.5z" fill="url(#M)"/><path clip-rule="evenodd" d="m633.4 948.7-24-13.9v-129.5h128.9l105.6 61v82.4z" fill="url(#N)" fill-rule="evenodd"/><path clip-rule="evenodd" d="m609.3 850.7 169.7 98h-169.7z" fill="url(#O)" fill-rule="evenodd"/><path d="m830 951.2h27.7v14.8h-27.7z" fill="url(#P)"/><path clip-rule="evenodd" d="m883.4 846.4c0-14.9-12.2-27-27.1-27h-24.9c-14.9 0-27 12.1-27 27v83.7c0 15 12.1 27.1 27.1 27.1h24.9c15 0 27.1-12.1 27.1-27.1z" fill="url(#Q)" fill-rule="evenodd"/><path clip-rule="evenodd" d="m858.1 907.6c0-2.9-2.3-5.2-5.2-5.2h-18.2c-2.9 0-5.2 2.3-5.2 5.2 0 2.9 2.3 5.2 5.2 5.2h18.2c1.4 0 2.7-.6 3.7-1.5.9-1 1.4-2.2 1.5-3.7z" fill="url(#R)" fill-rule="evenodd"/><path clip-rule="evenodd" d="m887.3 980.7c0-8.1-6.6-14.8-14.8-14.8h-57.4c-8.1 0-14.8 6.6-14.8 14.8z" fill="url(#S)" fill-rule="evenodd"/><circle cx="843.8" cy="858.8" fill="url(#T)" r="30.8"/><circle cx="838.8" cy="857.6" fill="url(#V)" r="16.8"/><path clip-rule="evenodd" d="m843.8 850.5c4.6 0 8.3 3.7 8.3 8.3s-3.7 8.3-8.3 8.3-8.3-3.7-8.3-8.3c.1-4.5 3.8-8.3 8.3-8.3z" fill="url(#W)" fill-rule="evenodd"/><circle cx="838.4" cy="853.4" fill="url(#X)" r="4.9"/><g clip-rule="evenodd" fill-rule="evenodd"><path d="m850.3 862.5c1.6 0 2.9 1.3 2.9 2.8 0 1.6-1.3 2.9-2.8 2.9-1.6 0-2.9-1.3-2.9-2.8 0-1.6 1.3-2.9 2.8-2.9z" fill="url(#Y)"/><path d="m338.7 805.2c7.8.2 14 6.4 14.3 14.2.1 49 .1 98 0 147-.2 7.8-6.5 14-14.3 14.2-38.2.1-76.3.1-114.5 0-7.8-.2-14-6.4-14.3-14.2-.1-49-.1-98 0-147 .2-7.8 6.5-14 14.3-14.2 38.2-.1 76.3-.1 114.5 0z" fill="url(#Z)"/><path d="m229.5 820.7c-2.2.1-3.9 1.8-4 3.9-.1 49-1.1 87.6 0 136.6.1 2.1 1.8 3.7 3.9 3.8 38.1.6 66 .8 104.1 0 2.1-.1 3.8-1.8 3.8-3.9.1-49 1.1-87.6 0-136.6-.1-2.1-1.8-3.8-3.9-3.9-38.1 0-65.8.1-103.9.1z" fill="url(#aa)"/><path d="m225.4 844.3 112.3 64.8c-.1 16.6-.3 33.5-.4 52-.1 2.1-1.7 3.8-3.8 3.9-38.2.8-66 .6-104.1 0-2.1-.1-3.8-1.8-3.9-3.8-.9-42.2-.4-76.7-.1-116.9z" fill="url(#ab)"/><path d="m181.4 879.8c-.4-3-2.9-5.3-5.9-5.3h-25.8c-3 0-5.6 2.3-5.9 5.3-.9 7.5-2.4 20.3-2.4 20.3h42.5c-.1 0-1.6-12.8-2.5-20.3z" fill="url(#ac)"/><path d="m181.4 975.5c-.4 3-2.9 5.3-5.9 5.2h-25.8c-3 0-5.6-2.2-5.9-5.2-.9-7.5-2.4-20.3-2.4-20.3h42.5c-.1 0-1.6 12.8-2.5 20.3z" fill="url(#ad)"/><path d="m193.4 907.7c0-6.8-5.5-12.3-12.3-12.3h-37.1c-6.8 0-12.4 5.5-12.4 12.3v39.9c0 6.8 5.5 12.3 12.3 12.3h37.1c6.8 0 12.3-5.5 12.3-12.3v-39.9z" fill="url(#ae)"/><path d="m183.8 911.7c0-3.5-2.9-6.4-6.4-6.4h-29.8c-3.5 0-6.4 2.9-6.4 6.4v31.8c0 3.5 2.9 6.4 6.4 6.4h29.8c3.5 0 6.4-2.9 6.4-6.4z" fill="url(#af)"/><path d="m141.2 914.1 42.6 24.6v4.9c0 3.5-2.9 6.4-6.4 6.4h-29.8c-3.5 0-6.4-2.9-6.4-6.4z" fill="url(#ag)"/><path d="m659.5 980.7h-11.1v-64h11.1c13.3 0 24.1 14.3 24.1 32s-10.8 32-24.1 32z" fill="url(#ah)"/><path d="m703.7 861.1c50.4 4.8 50.4 54.3 50.4 61.2h-19.4v-.7c-.2-15-5.2-29.6-13.5-39.9-6.6-8.5-16.2-14.3-26.9-16.1z" fill="url(#aj)"/><path d="m694.5 865.6c-4.9-.7-31.3 6.6-36.1 56.8h-19.6c0-26.1 13.7-51.2 33.6-60.2 5.4-2.5 11.3-3.8 17.3-3.8h17z" fill="url(#ak)"/><path d="m706.9 858.4c20.8.1 41 17.8 47.9 43.7 1.8 6.6 2.6 13.5 2.6 20.3h-5.4v-.7c-.2-15-5.2-29.6-13.5-39.9-10.7-13.3-26.8-19.2-41.4-15.2-13.9 3.8-26.1 16.3-31.9 32.7-2.6 7.5-3.9 15.3-3.9 23.2h-5.3c0-26.1 13.7-51.2 33.6-60.2 5.4-2.7 11.3-4 17.3-3.9z" fill="url(#al)"/><path d="m747.8 980.7h-11.1v-64h11.1c13.3 0 24.1 14.3 24.1 32-.1 17.7-10.9 32-24.1 32z" fill="url(#am)"/><path d="m743.6 980.7h-11.1v-64h11.1c13.3 0 24.1 14.3 24.1 32s-10.8 32-24.1 32z" fill="url(#an)"/></g><ellipse cx="648.4" cy="948.7" fill="url(#ao)" rx="24.1" ry="32"/><ellipse cx="732.5" cy="948.7" fill="url(#ap)" rx="24.1" ry="32"/><ellipse cx="641.9" cy="948.7" fill="url(#aq)" rx="17.6" ry="24.8"/><ellipse cx="730.3" cy="948.7" fill="url(#ar)" rx="13.4" ry="18.8"/><path clip-rule="evenodd" d="m576.2 871.7c0-4.9-4-8.9-8.9-8.9h-54.1c-4.9 0-8.9 4-8.9 8.9v100c0 4.9 4 8.9 8.9 8.9h54c4.9 0 8.9-4 8.9-8.9z" fill="url(#as)" fill-rule="evenodd"/><path clip-rule="evenodd" d="m562.8 873.2c1.6 0 3 1.3 3 3v91.1c0 1.6-1.3 3-3 3h-45.1c-1.6 0-3-1.3-3-3v-91.1c0-1.6 1.3-3 3-3h7.7c.9 0 1.8.4 2.3 1.1l2.2 2.8c.6.7 1.4 1.1 2.3 1.1h16.1c.9 0 1.8-.4 2.3-1.1l2.2-2.8c.6-.7 1.4-1.1 2.3-1.1z" fill="url(#at)" fill-rule="evenodd"/><path clip-rule="evenodd" d="m514.7 911.7 51.1 29.5v26c0 1.6-1.3 3-3 3h-45.1c-1.6 0-3-1.3-3-3z" fill="url(#au)" fill-rule="evenodd"/><path clip-rule="evenodd" d="m421.5 897.7h21.4c1 0 1.8.8 1.8 1.8v3.7h-23.2z" fill="url(#aw)" fill-rule="evenodd"/><path clip-rule="evenodd" d="m410.5 896.1h21.5c1 0 1.8.8 1.8 1.8v5.4h-23.2v-7.2z" fill="url(#ax)" fill-rule="evenodd"/><path clip-rule="evenodd" d="m315.2 914.6h37.8v66h-30.6c-3.9 0-7.1-3.2-7.1-7.1z" fill="url(#ay)" fill-rule="evenodd"/><path clip-rule="evenodd" d="m315.2 903.2c0-3.9 3.2-7.1 7.1-7.1h30.7v18.6h-37.8z" fill="url(#aA)" fill-rule="evenodd"/><path clip-rule="evenodd" d="m345.2 914.6h104.8v58.9c0 3.9-3.2 7.1-7.1 7.1h-90.5c-3.9 0-7.1-3.2-7.1-7.1z" fill="url(#aB)" fill-rule="evenodd"/><path clip-rule="evenodd" d="m345.2 903.2c0-3.9 3.2-7.1 7.1-7.1h62c1.6 0 3.1.9 3.9 2.3l1.4 2.6c.8 1.4 2.3 2.3 3.9 2.3h19.2c3.9 0 7.1 3.2 7.1 7.1v4.2h-104.6z" fill="url(#aC)" fill-rule="evenodd"/><path clip-rule="evenodd" d="m357 937.8c0-3.3 2.6-5.9 5.9-6h.1 8.1v20.2h-8.1c-3.3 0-5.9-2.6-6-5.9 0 0 0 0 0-.1z" fill="url(#aD)" fill-rule="evenodd"/><path clip-rule="evenodd" d="m400.2 980.7h20.3v-77.5h-20.3c-18.6 0-33.7 17.3-33.7 38.7s15.1 38.7 33.7 38.8z" fill="url(#aE)" fill-rule="evenodd"/><ellipse cx="420.5" cy="942" fill="url(#aF)" rx="33.7" ry="38.7"/><ellipse cx="420.5" cy="942" fill="url(#aG)" rx="23.8" ry="27.4"/><ellipse cx="420.5" cy="942" fill="url(#aH)" rx="13.4" ry="15.3"/></svg>